<svg width="36" height="36" viewBox="0 0 36 36" fill="none" xmlns="http://www.w3.org/2000/svg">
<path d="M18 0C13.2439 0.0573807 8.69882 1.97223 5.33552 5.33552C1.97223 8.69882 0.0573807 13.2439 0 18C0.0573807 22.7561 1.97223 27.3012 5.33552 30.6645C8.69882 34.0278 13.2439 35.9426 18 36C22.7561 35.9426 27.3012 34.0278 30.6645 30.6645C34.0278 27.3012 35.9426 22.7561 36 18C35.9426 13.2439 34.0278 8.69882 30.6645 5.33552C27.3012 1.97223 22.7561 0.0573807 18 0V0ZM28.2857 19.2857H19.2857V28.2857H16.7143V19.2857H7.71429V16.7143H16.7143V7.71429H19.2857V16.7143H28.2857V19.2857Z" fill="#85E2A5"/>
</svg>
