<svg width="24" height="27" viewBox="0 0 24 27" fill="none" xmlns="http://www.w3.org/2000/svg">
<path d="M6 11.8125C9.31607 11.8125 12 9.17051 12 5.90625C12 2.64199 9.31607 0 6 0C2.68393 0 0 2.64199 0 5.90625C0 9.17051 2.68393 11.8125 6 11.8125ZM6 3.375C7.41964 3.375 8.57143 4.50879 8.57143 5.90625C8.57143 7.30371 7.41964 8.4375 6 8.4375C4.58036 8.4375 3.42857 7.30371 3.42857 5.90625C3.42857 4.50879 4.58036 3.375 6 3.375ZM18 15.1875C14.6839 15.1875 12 17.8295 12 21.0938C12 24.358 14.6839 27 18 27C21.3161 27 24 24.358 24 21.0938C24 17.8295 21.3161 15.1875 18 15.1875ZM18 23.625C16.5804 23.625 15.4286 22.4912 15.4286 21.0938C15.4286 19.6963 16.5804 18.5625 18 18.5625C19.4196 18.5625 20.5714 19.6963 20.5714 21.0938C20.5714 22.4912 19.4196 23.625 18 23.625ZM21.0161 0.0105469L22.7089 0.00527344C23.7482 0 24.3643 1.15488 23.7643 1.99863L4.14643 26.4516C4.02814 26.6176 3.87097 26.7532 3.68821 26.8468C3.50544 26.9404 3.30246 26.9894 3.09643 26.9895L1.30714 26.9947C0.2625 26.9947 -0.348214 25.8398 0.251786 25.0014L19.9661 0.548437C20.2071 0.210937 20.5982 0.0105469 21.0161 0.0105469Z" fill="#85E2A5"/>
</svg>
