<svg width="83" height="83" viewBox="0 0 83 83" fill="none" xmlns="http://www.w3.org/2000/svg">
<path d="M18.1562 0C18.8442 0 19.5039 0.273269 19.9903 0.759692C20.4767 1.24611 20.75 1.90584 20.75 2.59375V5.1875H62.25V2.59375C62.25 1.90584 62.5233 1.24611 63.0097 0.759692C63.4961 0.273269 64.1558 0 64.8438 0C65.5317 0 66.1914 0.273269 66.6778 0.759692C67.1642 1.24611 67.4375 1.90584 67.4375 2.59375V5.1875H72.625C75.3766 5.1875 78.0155 6.28058 79.9612 8.22627C81.9069 10.172 83 12.8109 83 15.5625V72.625C83 75.3766 81.9069 78.0155 79.9612 79.9612C78.0155 81.9069 75.3766 83 72.625 83H10.375C7.62338 83 4.98446 81.9069 3.03877 79.9612C1.09308 78.0155 0 75.3766 0 72.625V15.5625C0 12.8109 1.09308 10.172 3.03877 8.22627C4.98446 6.28058 7.62338 5.1875 10.375 5.1875H15.5625V2.59375C15.5625 1.90584 15.8358 1.24611 16.3222 0.759692C16.8086 0.273269 17.4683 0 18.1562 0ZM5.1875 20.75V72.625C5.1875 74.0008 5.73404 75.3203 6.70688 76.2931C7.67973 77.266 8.99919 77.8125 10.375 77.8125H72.625C74.0008 77.8125 75.3203 77.266 76.2931 76.2931C77.266 75.3203 77.8125 74.0008 77.8125 72.625V20.75H5.1875Z" fill="#6650EF"/>
</svg>
