<svg width="38" height="30" viewBox="0 0 38 30" fill="none" xmlns="http://www.w3.org/2000/svg">
<path d="M37.9951 29.5411L36.0565 17.3043C36.0276 17.1118 35.8636 16.9737 35.6756 16.9737H23.0604C22.8723 16.9737 22.7083 17.1118 22.6794 17.3043L20.7408 29.5411C20.736 29.5609 20.736 29.5855 20.736 29.6053C20.736 29.8224 20.9096 30 21.1218 30H37.6141C37.6334 30 37.6575 30 37.6768 29.9951C37.8842 29.9605 38.0289 29.7582 37.9951 29.5411ZM15.3205 17.3043C15.2916 17.1118 15.1276 16.9737 14.9396 16.9737H2.32436C2.13629 16.9737 1.97233 17.1118 1.9434 17.3043L0.00482225 29.5411C-7.36547e-08 29.5609 0 29.5855 0 29.6053C0 29.8224 0.173604 30 0.385786 30H16.8781C16.8974 30 16.9215 30 16.9408 29.9951C17.153 29.9605 17.2929 29.7582 17.2591 29.5411L15.3205 17.3043ZM10.802 13.0263H27.2944C27.3137 13.0263 27.3378 13.0263 27.3571 13.0214C27.5692 12.9868 27.7091 12.7845 27.6753 12.5674L25.7368 0.330592C25.7078 0.138158 25.5439 0 25.3558 0H12.7406C12.5525 0 12.3886 0.138158 12.3596 0.330592L10.421 12.5674C10.4162 12.5872 10.4162 12.6118 10.4162 12.6316C10.4162 12.8487 10.5898 13.0263 10.802 13.0263Z" fill="#F4ED47"/>
</svg>
