<svg width="32" height="32" viewBox="0 0 32 32" fill="none" xmlns="http://www.w3.org/2000/svg">
<path d="M27.75 2H8C6.78875 2 5.13125 2.27125 3.99313 3.54813C3.26062 4.37 3 5.35375 3 6C2.99997 6.24142 3.08728 6.4747 3.2458 6.65677C3.40433 6.83885 3.62338 6.95743 3.8625 6.99063C5.73125 7.25 6 7.36188 6 8.5V25C6.00116 26.3257 6.52832 27.5968 7.46575 28.5343C8.40318 29.4717 9.67427 29.9988 11 30H23C24.3255 29.9982 25.5962 29.4708 26.5335 28.5335C27.4708 27.5962 27.9982 26.3255 28 25V6C28 5.21563 28.4663 4.29688 28.625 4.04L28.6313 4.03125C28.645 4.00938 28.6625 3.98625 28.68 3.9625C28.805 3.78813 28.9981 3.525 28.9981 3.15313C29 2.48688 28.4306 2 27.75 2ZM5.25688 5.1925C5.58438 4.63813 6.33 4.005 8.025 4.005H26.4269C26.2063 4.55438 26 5.26688 26 6V10H8V8.5C8 6.1675 6.66563 5.49125 5.25688 5.1925Z" fill="#508AFB"/>
</svg>
