<svg width="26" height="37" viewBox="0 0 26 37" fill="none" xmlns="http://www.w3.org/2000/svg">
<path d="M24.2312 13.4518C23.2246 10.7794 21.7569 8.30434 19.8949 6.13925C16.6725 2.40906 12.4353 0 9.1 0C8.90168 0.000147901 8.70602 0.0456685 8.528 0.133078C8.34998 0.220487 8.19432 0.347467 8.07293 0.504299C7.95154 0.661131 7.86765 0.843657 7.82766 1.03791C7.78768 1.23215 7.79267 1.43298 7.84225 1.625C8.96919 5.93125 6.63325 9.51194 4.16081 13.3023C2.1125 16.4418 0 19.6844 0 23.4C0 30.5679 5.83212 36.4 13 36.4C20.1679 36.4 26 30.5679 26 23.4C26 19.8819 25.4053 16.5352 24.2312 13.4518ZM15.6268 31.4186C14.7875 32.3123 13.7353 32.5 13 32.5C12.2647 32.5 11.2125 32.3123 10.3732 31.4186C9.53387 30.5248 9.1 29.107 9.1 27.3C9.1 25.2574 9.81662 23.7023 10.5089 22.1991C10.9111 21.3265 11.3214 20.4384 11.5651 19.4878C11.591 19.3844 11.6419 19.289 11.7134 19.2099C11.7848 19.1308 11.8747 19.0705 11.9749 19.0343C12.0752 18.9981 12.1828 18.9871 12.2883 19.0023C12.3938 19.0175 12.494 19.0584 12.5799 19.1214C13.3231 19.6963 13.9838 20.3705 14.5437 21.125C16.0201 23.075 16.9 25.3841 16.9 27.3C16.9 29.107 16.4596 30.5313 15.6268 31.4186Z" fill="#F37630"/>
</svg>
