<svg width="33" height="33" viewBox="0 0 33 33" fill="none" xmlns="http://www.w3.org/2000/svg">
<path d="M16.5 25.3825C16.2277 25.3766 15.9676 25.2686 15.7712 25.08L7.93372 17.2287C7.76173 17.0411 7.66632 16.7958 7.66632 16.5412C7.66632 16.2867 7.76173 16.0414 7.93372 15.8537L19.47 4.12499C19.6632 3.93154 19.9253 3.82274 20.1987 3.82249H28.105C28.3761 3.82247 28.6364 3.92923 28.8294 4.11966C29.0224 4.3101 29.1326 4.56888 29.1362 4.83999L29.2187 12.65C29.2191 12.9276 29.1105 13.1942 28.9162 13.3925L17.215 25.0937C17.0229 25.2788 16.7667 25.3823 16.5 25.3825ZM10.1062 16.5L16.5 22.88L27.17 12.2237L27.0875 5.87124L20.625 5.84374L10.1062 16.5Z" fill="#85E2A5"/>
<path d="M20.3362 29.2187C20.2007 29.2194 20.0665 29.193 19.9413 29.141C19.8162 29.0891 19.7027 29.0126 19.6075 28.9162L4.12497 13.3925C3.99931 13.1987 3.94236 12.9683 3.96324 12.7382C3.98412 12.5082 4.08163 12.2918 4.24014 12.1238C4.39865 11.9558 4.60898 11.8458 4.83742 11.8116C5.06585 11.7774 5.29917 11.8208 5.49997 11.935L21.065 27.5C21.2581 27.6933 21.3666 27.9555 21.3666 28.2287C21.3666 28.502 21.2581 28.7641 21.065 28.9575C20.9668 29.0471 20.8519 29.1164 20.7268 29.1612C20.6017 29.206 20.4689 29.2256 20.3362 29.2187Z" fill="#85E2A5"/>
<path d="M9.625 29.1363C9.48118 29.151 9.33586 29.1354 9.19847 29.0904C9.06108 29.0454 8.93469 28.972 8.8275 28.875L4.125 24.1312C4.02714 24.0314 3.95003 23.9132 3.89811 23.7834C3.84619 23.6536 3.82049 23.5148 3.8225 23.375C3.8225 22.8112 3.8225 22.7975 9.47375 17.2975C9.67067 17.106 9.93558 17.0007 10.2102 17.0045C10.4848 17.0084 10.7467 17.1212 10.9381 17.3181C11.1296 17.515 11.235 17.78 11.2311 18.0546C11.2272 18.3292 11.1144 18.591 10.9175 18.7825C9.1575 20.5012 7.2325 22.3987 6.28375 23.375L9.625 26.6475L14.1762 22C14.271 21.9027 14.3844 21.8254 14.5095 21.7726C14.6347 21.7198 14.7692 21.6926 14.905 21.6926C15.0408 21.6926 15.1753 21.7198 15.3005 21.7726C15.4256 21.8254 15.5389 21.9027 15.6337 22C15.8269 22.1934 15.9353 22.4555 15.9353 22.7287C15.9353 23.002 15.8269 23.2641 15.6337 23.4575L10.285 28.875C10.1005 29.0335 9.86804 29.1255 9.625 29.1363Z" fill="#85E2A5"/>
<path d="M16.5 17.5312C16.3645 17.5319 16.2303 17.5055 16.1051 17.4535C15.98 17.4016 15.8665 17.3251 15.7713 17.2287C15.5782 17.0354 15.4697 16.7733 15.4697 16.5C15.4697 16.2267 15.5782 15.9646 15.7713 15.7712L21.2713 10.2712C21.3657 10.1699 21.4795 10.0887 21.606 10.0323C21.7325 9.97593 21.8691 9.94563 22.0076 9.94318C22.146 9.94074 22.2836 9.96621 22.412 10.0181C22.5404 10.0699 22.657 10.1471 22.755 10.2451C22.8529 10.343 22.9301 10.4596 22.982 10.5881C23.0338 10.7165 23.0593 10.854 23.0568 10.9925C23.0544 11.1309 23.0241 11.2675 22.9677 11.394C22.9114 11.5205 22.8301 11.6343 22.7288 11.7287L17.2288 17.2287C17.1336 17.3251 17.0201 17.4016 16.8949 17.4535C16.7698 17.5055 16.6355 17.5319 16.5 17.5312Z" fill="#85E2A5"/>
</svg>
