<svg width="24" height="27" viewBox="0 0 24 27" fill="none" xmlns="http://www.w3.org/2000/svg">
<path d="M21.3333 3.00004H15.76C15.2 1.45337 13.7333 0.333374 12 0.333374C10.2667 0.333374 8.8 1.45337 8.24 3.00004H2.66667C1.2 3.00004 0 4.20004 0 5.66671V24.3334C0 25.8 1.2 27 2.66667 27H21.3333C22.8 27 24 25.8 24 24.3334V5.66671C24 4.20004 22.8 3.00004 21.3333 3.00004ZM12 3.00004C12.7333 3.00004 13.3333 3.60004 13.3333 4.33337C13.3333 5.06671 12.7333 5.66671 12 5.66671C11.2667 5.66671 10.6667 5.06671 10.6667 4.33337C10.6667 3.60004 11.2667 3.00004 12 3.00004ZM12 8.33337C14.2133 8.33337 16 10.12 16 12.3334C16 14.5467 14.2133 16.3334 12 16.3334C9.78667 16.3334 8 14.5467 8 12.3334C8 10.12 9.78667 8.33337 12 8.33337ZM20 24.3334H4V22.4667C4 19.8 9.33333 18.3334 12 18.3334C14.6667 18.3334 20 19.8 20 22.4667V24.3334Z" fill="#81E8E8"/>
</svg>
