<svg width="32" height="32" viewBox="0 0 32 32" fill="none" xmlns="http://www.w3.org/2000/svg">
<path d="M25.3333 3.99992H19.76C19.2 2.45325 17.7333 1.33325 16 1.33325C14.2667 1.33325 12.8 2.45325 12.24 3.99992H6.66667C5.2 3.99992 4 5.19992 4 6.66658V25.3333C4 26.7999 5.2 27.9999 6.66667 27.9999H25.3333C26.8 27.9999 28 26.7999 28 25.3333V6.66658C28 5.19992 26.8 3.99992 25.3333 3.99992ZM16 3.99992C16.7333 3.99992 17.3333 4.59992 17.3333 5.33325C17.3333 6.06659 16.7333 6.66658 16 6.66658C15.2667 6.66658 14.6667 6.06659 14.6667 5.33325C14.6667 4.59992 15.2667 3.99992 16 3.99992ZM16 9.33325C18.2133 9.33325 20 11.1199 20 13.3333C20 15.5466 18.2133 17.3333 16 17.3333C13.7867 17.3333 12 15.5466 12 13.3333C12 11.1199 13.7867 9.33325 16 9.33325ZM24 25.3333H8V23.4666C8 20.7999 13.3333 19.3333 16 19.3333C18.6667 19.3333 24 20.7999 24 23.4666V25.3333Z" fill="#F28B0C"/>
</svg>
