<svg width="36" height="36" viewBox="0 0 36 36" fill="none" xmlns="http://www.w3.org/2000/svg">
<path d="M18 0C22.7739 0 27.3523 1.89642 30.7279 5.27208C34.1036 8.64773 36 13.2261 36 18C36 22.7739 34.1036 27.3523 30.7279 30.7279C27.3523 34.1036 22.7739 36 18 36C13.2261 36 8.64773 34.1036 5.27208 30.7279C1.89642 27.3523 0 22.7739 0 18C0 13.2261 1.89642 8.64773 5.27208 5.27208C8.64773 1.89642 13.2261 0 18 0V0ZM9 18C9 18.4092 9.16255 18.8016 9.45189 19.091C9.74123 19.3803 10.1337 19.5429 10.5429 19.5429H25.4571C25.8663 19.5429 26.2588 19.3803 26.5481 19.091C26.8375 18.8016 27 18.4092 27 18C27 17.5908 26.8375 17.1984 26.5481 16.909C26.2588 16.6197 25.8663 16.4571 25.4571 16.4571H10.5429C10.3402 16.4571 10.1396 16.4971 9.95243 16.5746C9.76524 16.6521 9.59516 16.7658 9.45189 16.909C9.30862 17.0523 9.19498 17.2224 9.11744 17.4096C9.03991 17.5968 9 17.7974 9 18V18Z" fill="#FC6363"/>
</svg>
