<svg width="42" height="42" viewBox="0 0 42 42" fill="none" xmlns="http://www.w3.org/2000/svg">
<path d="M20.65 19.075C16.6775 18.0425 15.4 16.975 15.4 15.3125C15.4 13.405 17.1675 12.075 20.125 12.075C23.24 12.075 24.395 13.5625 24.5 15.75H28.3675C28.245 12.74 26.4075 9.975 22.75 9.0825V5.25H17.5V9.03C14.105 9.765 11.375 11.97 11.375 15.3475C11.375 19.39 14.7175 21.4025 19.6 22.575C23.975 23.625 24.85 25.165 24.85 26.7925C24.85 28 23.9925 29.925 20.125 29.925C16.52 29.925 15.1025 28.315 14.91 26.25H11.06C11.27 30.0825 14.14 32.235 17.5 32.9525V36.75H22.75V32.9875C26.1625 32.34 28.875 30.3625 28.875 26.775C28.875 21.805 24.6225 20.1075 20.65 19.075Z" fill="#85E2A5"/>
</svg>
