<svg width="34" height="33" viewBox="0 0 34 33" fill="none" xmlns="http://www.w3.org/2000/svg">
<path d="M16.2456 3.50389L16.6366 3.54619C15.3061 5.53411 14.7737 7.94679 15.1449 10.3068C15.4764 12.3988 17.0893 13.6913 18.5343 14.2836L25.0006 16.9489C26.4456 17.5454 28.5026 17.7675 30.2218 16.5237C31.6097 15.5183 32.6998 14.1591 33.3774 12.5892C33.7854 13.8161 34 15.1911 34 16.7268C34 20.435 32.8631 23.0347 31.6837 24.7206C31.1384 25.5059 30.4878 26.2133 29.75 26.8232V29.827C29.75 30.6685 29.4142 31.4756 28.8164 32.0707C28.2186 32.6657 27.4079 33 26.5625 33H23.6215C22.9921 32.9989 22.389 32.7492 21.9443 32.3058C21.4997 31.8624 21.25 31.2616 21.25 30.6351C21.2503 30.6027 21.2441 30.5705 21.2319 30.5405C21.2196 30.5105 21.2015 30.4832 21.1786 30.4602C21.1556 30.4372 21.1284 30.4189 21.0983 30.4065C21.0683 30.394 21.0361 30.3876 21.0035 30.3876H17.2465C17.2139 30.3876 17.1817 30.394 17.1517 30.4065C17.1216 30.4189 17.0944 30.4372 17.0714 30.4602C17.0485 30.4832 17.0304 30.5105 17.0181 30.5405C17.0059 30.5705 16.9997 30.6027 17 30.6351C17 31.9402 15.9375 32.9979 14.6285 32.9979H11.6875C10.8421 32.9979 10.0314 32.6636 9.4336 32.0685C8.83582 31.4735 8.5 30.6664 8.5 29.8249V28.6869C8.38717 28.6211 8.27593 28.5527 8.16638 28.4817C7.55438 28.0861 6.70013 27.4282 5.6185 26.3367C4.54383 25.2389 3.67838 23.9559 3.06425 22.5503C3.00566 22.3972 2.91036 22.2607 2.78666 22.1527C2.66296 22.0447 2.5146 21.9684 2.3545 21.9305C1.69585 21.8195 1.09799 21.4799 0.666983 20.9718C0.23597 20.4638 -0.000330485 19.8202 3.46913e-07 19.1552V15.9695C3.46913e-07 14.6368 0.966875 13.4988 2.2865 13.2788C2.53725 13.2365 2.81563 13.0144 2.93888 12.6379C3.264 11.6521 3.89088 10.1947 5.04263 9.03123C6.05895 8.01874 7.22489 7.16699 8.5 6.50553V1.61067C8.5 0.863958 8.98875 0.335127 9.52 0.121479C10.0513 -0.0900541 10.7546 -0.0519783 11.2774 0.449354C11.8894 1.03741 12.733 1.77566 13.6467 2.38699C14.5839 3.01101 15.4913 3.42773 16.2456 3.50389V3.50389ZM10.0938 15.0176C10.5164 15.0176 10.9218 14.8505 11.2207 14.5529C11.5196 14.2554 11.6875 13.8519 11.6875 13.4311C11.6875 13.0103 11.5196 12.6068 11.2207 12.3093C10.9218 12.0118 10.5164 11.8446 10.0938 11.8446C9.67106 11.8446 9.26568 12.0118 8.9668 12.3093C8.66791 12.6068 8.5 13.0103 8.5 13.4311C8.5 13.8519 8.66791 14.2554 8.9668 14.5529C9.26568 14.8505 9.67106 15.0176 10.0938 15.0176ZM31.9558 9.80333L31.9642 9.81602C31.8295 10.8066 31.495 11.7598 30.9809 12.6184C30.4667 13.477 29.7835 14.2233 28.9722 14.8124C28.0606 15.4724 26.8536 15.4259 25.8124 14.9965L19.3481 12.3311C18.3494 11.9187 17.4909 11.1508 17.2678 10.1101C17.0771 9.05661 17.1183 7.97455 17.3883 6.93846C17.6583 5.90237 18.1508 4.93688 18.8319 4.10854C19.5129 3.28021 20.3663 2.60873 21.3332 2.14038C22.3001 1.67203 23.3575 1.41795 24.4326 1.39565C25.5076 1.37336 26.5747 1.58338 27.5604 2.01123C28.546 2.43909 29.4268 3.07461 30.1419 3.87399C30.857 4.67337 31.3895 5.6176 31.7026 6.6416C32.0157 7.6656 32.1021 8.74501 31.9558 9.80544V9.80333Z" fill="#F28B0C"/>
</svg>
