<svg width="26" height="20" viewBox="0 0 26 20" fill="none" xmlns="http://www.w3.org/2000/svg">
<path d="M17.225 9.23516L11.6536 5.58219C11.5126 5.49407 11.3507 5.44353 11.1838 5.43552C11.017 5.42752 10.8508 5.46233 10.7018 5.53653C10.5533 5.61533 10.4295 5.73242 10.3436 5.87522C10.2577 6.01802 10.213 6.18113 10.2143 6.34703V13.653C10.213 13.8189 10.2577 13.982 10.3436 14.1248C10.4295 14.2676 10.5533 14.3847 10.7018 14.4635C10.8387 14.5309 10.9897 14.5661 11.1429 14.5662C11.3238 14.5643 11.5006 14.5129 11.6536 14.4178L17.225 10.7648C17.3543 10.6819 17.4606 10.5684 17.5341 10.4349C17.6077 10.3014 17.6462 10.1519 17.6462 10C17.6462 9.84813 17.6077 9.69865 17.5341 9.5651C17.4606 9.43155 17.3543 9.31815 17.225 9.23516V9.23516ZM12.0714 11.9521V8.04795L15.0429 10L12.0714 11.9521ZM25.3384 3.35617C25.2317 2.9353 25.0229 2.54616 24.7297 2.22208C24.4366 1.89801 24.0679 1.64867 23.6554 1.49544C19.6857 -0.0114132 13.3482 2.5431e-06 13 2.5431e-06C12.6518 2.5431e-06 6.31429 -0.0114132 2.34464 1.49544C1.93206 1.64867 1.5634 1.89801 1.27027 2.22208C0.977147 2.54616 0.768292 2.9353 0.661607 3.35617C0.359822 4.4863 0 6.56393 0 10C0 13.4361 0.359822 15.5137 0.661607 16.6438C0.768292 17.0647 0.977147 17.4538 1.27027 17.7779C1.5634 18.102 1.93206 18.3513 2.34464 18.5046C6.15179 19.9543 12.1179 20 12.9187 20H13.0812C13.8821 20 19.8482 19.9543 23.6554 18.5046C24.0679 18.3513 24.4366 18.102 24.7297 17.7779C25.0229 17.4538 25.2317 17.0647 25.3384 16.6438C25.6402 15.5137 26 13.4361 26 10C26 6.56393 25.6402 4.4863 25.3384 3.35617V3.35617ZM23.5393 16.1872C23.505 16.3253 23.4376 16.4534 23.3427 16.5606C23.2478 16.6679 23.1281 16.7512 22.9938 16.8037C19.3143 18.1963 13.0696 18.1735 13 18.1735H12.9884C12.9304 18.1735 6.68571 18.1963 3.00625 16.8037C2.87188 16.7512 2.75224 16.6679 2.65733 16.5606C2.56242 16.4534 2.495 16.3253 2.46071 16.1872C2.18214 15.1484 1.85714 13.242 1.85714 10C1.85714 6.75799 2.18214 4.8516 2.46071 3.81279C2.495 3.67467 2.56242 3.54663 2.65733 3.43938C2.75224 3.33213 2.87188 3.2488 3.00625 3.19635C6.54643 1.86073 12.4893 1.82649 12.9768 1.82649H13C13.0696 1.82649 19.3143 1.80366 22.9938 3.19635C23.1281 3.2488 23.2478 3.33213 23.3427 3.43938C23.4376 3.54663 23.505 3.67467 23.5393 3.81279C23.8179 4.8516 24.1429 6.75799 24.1429 10C24.1429 13.242 23.8179 15.1484 23.5393 16.1872Z" fill="white"/>
</svg>
