<svg width="106" height="40" viewBox="0 0 106 40" fill="none" xmlns="http://www.w3.org/2000/svg">
<path d="M0.5 0.5H73.262L104.95 39.5H0.5V0.5Z" fill="black" stroke="#175A84"/>
<path d="M21.3203 13.625H25.0859C25.9401 13.625 26.6615 13.7552 27.25 14.0156C27.8438 14.276 28.2943 14.6615 28.6016 15.1719C28.9141 15.6771 29.0703 16.2995 29.0703 17.0391C29.0703 17.5599 28.9635 18.0365 28.75 18.4688C28.5417 18.8958 28.2396 19.2604 27.8438 19.5625C27.4531 19.8594 26.9844 20.0807 26.4375 20.2266L26.0156 20.3906H22.4766L22.4609 19.1641H25.1328C25.6745 19.1641 26.125 19.0703 26.4844 18.8828C26.8438 18.6901 27.1146 18.4323 27.2969 18.1094C27.4792 17.7865 27.5703 17.4297 27.5703 17.0391C27.5703 16.6016 27.4844 16.2188 27.3125 15.8906C27.1406 15.5625 26.8698 15.3099 26.5 15.1328C26.1354 14.9505 25.6641 14.8594 25.0859 14.8594H22.8281V25H21.3203V13.625ZM27.9688 25L25.2031 19.8438L26.7734 19.8359L29.5781 24.9062V25H27.9688ZM39.9375 18.9531V19.6719C39.9375 20.526 39.8307 21.2917 39.6172 21.9688C39.4036 22.6458 39.0964 23.2214 38.6953 23.6953C38.2943 24.1693 37.8125 24.5312 37.25 24.7812C36.6927 25.0312 36.0677 25.1562 35.375 25.1562C34.7031 25.1562 34.0859 25.0312 33.5234 24.7812C32.9661 24.5312 32.4818 24.1693 32.0703 23.6953C31.6641 23.2214 31.349 22.6458 31.125 21.9688C30.901 21.2917 30.7891 20.526 30.7891 19.6719V18.9531C30.7891 18.099 30.8984 17.3359 31.1172 16.6641C31.3411 15.987 31.6562 15.4115 32.0625 14.9375C32.4688 14.4583 32.9505 14.0938 33.5078 13.8438C34.0703 13.5938 34.6875 13.4688 35.3594 13.4688C36.0521 13.4688 36.6771 13.5938 37.2344 13.8438C37.7969 14.0938 38.2786 14.4583 38.6797 14.9375C39.0859 15.4115 39.3958 15.987 39.6094 16.6641C39.8281 17.3359 39.9375 18.099 39.9375 18.9531ZM38.4453 19.6719V18.9375C38.4453 18.2604 38.375 17.6615 38.2344 17.1406C38.099 16.6198 37.8984 16.1823 37.6328 15.8281C37.3672 15.474 37.0417 15.2057 36.6562 15.0234C36.276 14.8411 35.8438 14.75 35.3594 14.75C34.8906 14.75 34.4661 14.8411 34.0859 15.0234C33.7109 15.2057 33.388 15.474 33.1172 15.8281C32.8516 16.1823 32.6458 16.6198 32.5 17.1406C32.3542 17.6615 32.2812 18.2604 32.2812 18.9375V19.6719C32.2812 20.3542 32.3542 20.9583 32.5 21.4844C32.6458 22.0052 32.8542 22.4453 33.125 22.8047C33.401 23.1589 33.7266 23.4271 34.1016 23.6094C34.4818 23.7917 34.9062 23.8828 35.375 23.8828C35.8646 23.8828 36.2995 23.7917 36.6797 23.6094C37.0599 23.4271 37.3802 23.1589 37.6406 22.8047C37.9062 22.4453 38.1068 22.0052 38.2422 21.4844C38.3776 20.9583 38.4453 20.3542 38.4453 19.6719ZM46.2344 14.6328L42.4688 25H40.9297L45.2656 13.625H46.2578L46.2344 14.6328ZM49.3906 25L45.6172 14.6328L45.5938 13.625H46.5859L50.9375 25H49.3906ZM49.1953 20.7891V22.0234H42.8047V20.7891H49.1953ZM55.5391 25H53.1641L53.1797 23.7734H55.5391C56.3516 23.7734 57.0286 23.6042 57.5703 23.2656C58.112 22.9219 58.5182 22.4427 58.7891 21.8281C59.0651 21.2083 59.2031 20.4844 59.2031 19.6562V18.9609C59.2031 18.3099 59.125 17.7318 58.9688 17.2266C58.8125 16.7161 58.5833 16.2865 58.2812 15.9375C57.9792 15.5833 57.6094 15.3151 57.1719 15.1328C56.7396 14.9505 56.2422 14.8594 55.6797 14.8594H53.1172V13.625H55.6797C56.4245 13.625 57.1042 13.75 57.7188 14C58.3333 14.2448 58.862 14.6016 59.3047 15.0703C59.7526 15.5339 60.0964 16.0964 60.3359 16.7578C60.5755 17.4141 60.6953 18.1536 60.6953 18.9766V19.6562C60.6953 20.4792 60.5755 21.2214 60.3359 21.8828C60.0964 22.5391 59.75 23.099 59.2969 23.5625C58.849 24.026 58.3073 24.3828 57.6719 24.6328C57.0417 24.8776 56.3307 25 55.5391 25ZM53.9688 13.625V25H52.4609V13.625H53.9688Z" fill="#A3C7D7"/>
<path d="M72 0H74L106 40H104L72 0Z" fill="#007AC7"/>
</svg>
