<svg width="106" height="40" viewBox="0 0 106 40" fill="none" xmlns="http://www.w3.org/2000/svg">
<path d="M0.5 0.5H73.262L104.95 39.5H0.5V0.5Z" fill="black" stroke="#175A84"/>
<path d="M21.7266 19.3359V23.5C21.5859 23.7083 21.362 23.9427 21.0547 24.2031C20.7474 24.4583 20.3229 24.6823 19.7812 24.875C19.2448 25.0625 18.5521 25.1562 17.7031 25.1562C17.0104 25.1562 16.3724 25.0365 15.7891 24.7969C15.2109 24.5521 14.7083 24.1979 14.2812 23.7344C13.8594 23.2656 13.5312 22.6979 13.2969 22.0312C13.0677 21.3594 12.9531 20.599 12.9531 19.75V18.8672C12.9531 18.0182 13.0521 17.2604 13.25 16.5938C13.4531 15.9271 13.75 15.362 14.1406 14.8984C14.5312 14.4297 15.0104 14.0755 15.5781 13.8359C16.1458 13.5911 16.7969 13.4688 17.5312 13.4688C18.401 13.4688 19.1276 13.6198 19.7109 13.9219C20.2995 14.2188 20.7578 14.6302 21.0859 15.1562C21.4193 15.6823 21.6328 16.2812 21.7266 16.9531H20.2188C20.151 16.5417 20.0156 16.1667 19.8125 15.8281C19.6146 15.4896 19.3307 15.2188 18.9609 15.0156C18.5911 14.8073 18.1146 14.7031 17.5312 14.7031C17.0052 14.7031 16.5495 14.7995 16.1641 14.9922C15.7786 15.1849 15.4609 15.4609 15.2109 15.8203C14.9609 16.1797 14.7734 16.6146 14.6484 17.125C14.5286 17.6354 14.4688 18.2109 14.4688 18.8516V19.75C14.4688 20.4062 14.5443 20.9922 14.6953 21.5078C14.8516 22.0234 15.0729 22.4635 15.3594 22.8281C15.6458 23.1875 15.987 23.4609 16.3828 23.6484C16.7839 23.8359 17.2266 23.9297 17.7109 23.9297C18.2474 23.9297 18.6823 23.8854 19.0156 23.7969C19.349 23.7031 19.6094 23.5938 19.7969 23.4688C19.9844 23.3385 20.1276 23.2161 20.2266 23.1016V20.5547H17.5938V19.3359H21.7266ZM28.4375 14.6328L24.6719 25H23.1328L27.4688 13.625H28.4609L28.4375 14.6328ZM31.5938 25L27.8203 14.6328L27.7969 13.625H28.7891L33.1406 25H31.5938ZM31.3984 20.7891V22.0234H25.0078V20.7891H31.3984ZM34.6641 13.625H38.4297C39.2839 13.625 40.0052 13.7552 40.5938 14.0156C41.1875 14.276 41.638 14.6615 41.9453 15.1719C42.2578 15.6771 42.4141 16.2995 42.4141 17.0391C42.4141 17.5599 42.3073 18.0365 42.0938 18.4688C41.8854 18.8958 41.5833 19.2604 41.1875 19.5625C40.7969 19.8594 40.3281 20.0807 39.7812 20.2266L39.3594 20.3906H35.8203L35.8047 19.1641H38.4766C39.0182 19.1641 39.4688 19.0703 39.8281 18.8828C40.1875 18.6901 40.4583 18.4323 40.6406 18.1094C40.8229 17.7865 40.9141 17.4297 40.9141 17.0391C40.9141 16.6016 40.8281 16.2188 40.6562 15.8906C40.4844 15.5625 40.2135 15.3099 39.8438 15.1328C39.4792 14.9505 39.0078 14.8594 38.4297 14.8594H36.1719V25H34.6641V13.625ZM41.3125 25L38.5469 19.8438L40.1172 19.8359L42.9219 24.9062V25H41.3125ZM48.7344 14.6328L44.9688 25H43.4297L47.7656 13.625H48.7578L48.7344 14.6328ZM51.8906 25L48.1172 14.6328L48.0938 13.625H49.0859L53.4375 25H51.8906ZM51.6953 20.7891V22.0234H45.3047V20.7891H51.6953ZM63.2734 19.3359V23.5C63.1328 23.7083 62.9089 23.9427 62.6016 24.2031C62.2943 24.4583 61.8698 24.6823 61.3281 24.875C60.7917 25.0625 60.099 25.1562 59.25 25.1562C58.5573 25.1562 57.9193 25.0365 57.3359 24.7969C56.7578 24.5521 56.2552 24.1979 55.8281 23.7344C55.4062 23.2656 55.0781 22.6979 54.8438 22.0312C54.6146 21.3594 54.5 20.599 54.5 19.75V18.8672C54.5 18.0182 54.599 17.2604 54.7969 16.5938C55 15.9271 55.2969 15.362 55.6875 14.8984C56.0781 14.4297 56.5573 14.0755 57.125 13.8359C57.6927 13.5911 58.3438 13.4688 59.0781 13.4688C59.9479 13.4688 60.6745 13.6198 61.2578 13.9219C61.8464 14.2188 62.3047 14.6302 62.6328 15.1562C62.9661 15.6823 63.1797 16.2812 63.2734 16.9531H61.7656C61.6979 16.5417 61.5625 16.1667 61.3594 15.8281C61.1615 15.4896 60.8776 15.2188 60.5078 15.0156C60.138 14.8073 59.6615 14.7031 59.0781 14.7031C58.5521 14.7031 58.0964 14.7995 57.7109 14.9922C57.3255 15.1849 57.0078 15.4609 56.7578 15.8203C56.5078 16.1797 56.3203 16.6146 56.1953 17.125C56.0755 17.6354 56.0156 18.2109 56.0156 18.8516V19.75C56.0156 20.4062 56.0911 20.9922 56.2422 21.5078C56.3984 22.0234 56.6198 22.4635 56.9062 22.8281C57.1927 23.1875 57.5339 23.4609 57.9297 23.6484C58.3307 23.8359 58.7734 23.9297 59.2578 23.9297C59.7943 23.9297 60.2292 23.8854 60.5625 23.7969C60.8958 23.7031 61.1562 23.5938 61.3438 23.4688C61.5312 23.3385 61.6745 23.2161 61.7734 23.1016V20.5547H59.1406V19.3359H63.2734ZM73 23.7734V25H66.9766V23.7734H73ZM67.2812 13.625V25H65.7734V13.625H67.2812ZM72.2031 18.5156V19.7422H66.9766V18.5156H72.2031ZM72.9219 13.625V14.8594H66.9766V13.625H72.9219Z" fill="#A3C7D7"/>
<path d="M72 0H74L106 40H104L72 0Z" fill="#007AC7"/>
</svg>
