<svg width="106" height="40" viewBox="0 0 106 40" fill="none" xmlns="http://www.w3.org/2000/svg">
<path d="M0.5 0.5H73.262L104.95 39.5H0.5V0.5Z" fill="black" stroke="#175A84"/>
<path d="M25.3828 22.125C25.3828 21.8594 25.3411 21.625 25.2578 21.4219C25.1797 21.2135 25.0391 21.026 24.8359 20.8594C24.638 20.6927 24.362 20.5339 24.0078 20.3828C23.6589 20.2318 23.2161 20.0781 22.6797 19.9219C22.1172 19.7552 21.6094 19.5703 21.1562 19.3672C20.7031 19.1589 20.3151 18.9219 19.9922 18.6562C19.6693 18.3906 19.4219 18.0859 19.25 17.7422C19.0781 17.3984 18.9922 17.0052 18.9922 16.5625C18.9922 16.1198 19.0833 15.7109 19.2656 15.3359C19.4479 14.9609 19.7083 14.6354 20.0469 14.3594C20.3906 14.0781 20.7995 13.8594 21.2734 13.7031C21.7474 13.5469 22.276 13.4688 22.8594 13.4688C23.7135 13.4688 24.4375 13.6328 25.0312 13.9609C25.6302 14.2839 26.0859 14.7083 26.3984 15.2344C26.7109 15.7552 26.8672 16.3125 26.8672 16.9062H25.3672C25.3672 16.4792 25.276 16.1016 25.0938 15.7734C24.9115 15.4401 24.6354 15.1797 24.2656 14.9922C23.8958 14.7995 23.4271 14.7031 22.8594 14.7031C22.3229 14.7031 21.8802 14.7839 21.5312 14.9453C21.1823 15.1068 20.9219 15.3255 20.75 15.6016C20.5833 15.8776 20.5 16.1927 20.5 16.5469C20.5 16.7865 20.5495 17.0052 20.6484 17.2031C20.7526 17.3958 20.9115 17.5755 21.125 17.7422C21.3438 17.9089 21.6198 18.0625 21.9531 18.2031C22.2917 18.3438 22.6953 18.4792 23.1641 18.6094C23.8099 18.7917 24.3672 18.9948 24.8359 19.2188C25.3047 19.4427 25.6901 19.6953 25.9922 19.9766C26.2995 20.2526 26.526 20.5677 26.6719 20.9219C26.8229 21.2708 26.8984 21.6667 26.8984 22.1094C26.8984 22.5729 26.8047 22.9922 26.6172 23.3672C26.4297 23.7422 26.1615 24.0625 25.8125 24.3281C25.4635 24.5938 25.0443 24.7995 24.5547 24.9453C24.0703 25.0859 23.5286 25.1562 22.9297 25.1562C22.4036 25.1562 21.8854 25.0833 21.375 24.9375C20.8698 24.7917 20.4089 24.5729 19.9922 24.2812C19.5807 23.9896 19.25 23.6302 19 23.2031C18.7552 22.7708 18.6328 22.2708 18.6328 21.7031H20.1328C20.1328 22.0938 20.2083 22.4297 20.3594 22.7109C20.5104 22.987 20.7161 23.2161 20.9766 23.3984C21.2422 23.5807 21.5417 23.7161 21.875 23.8047C22.2135 23.888 22.5651 23.9297 22.9297 23.9297C23.4557 23.9297 23.901 23.8568 24.2656 23.7109C24.6302 23.5651 24.9062 23.3568 25.0938 23.0859C25.2865 22.8151 25.3828 22.4948 25.3828 22.125ZM36.25 18.5156V19.7422H30.0938V18.5156H36.25ZM30.3281 13.625V25H28.8203V13.625H30.3281ZM37.5625 13.625V25H36.0625V13.625H37.5625ZM49 18.9531V19.6719C49 20.526 48.8932 21.2917 48.6797 21.9688C48.4661 22.6458 48.1589 23.2214 47.7578 23.6953C47.3568 24.1693 46.875 24.5312 46.3125 24.7812C45.7552 25.0312 45.1302 25.1562 44.4375 25.1562C43.7656 25.1562 43.1484 25.0312 42.5859 24.7812C42.0286 24.5312 41.5443 24.1693 41.1328 23.6953C40.7266 23.2214 40.4115 22.6458 40.1875 21.9688C39.9635 21.2917 39.8516 20.526 39.8516 19.6719V18.9531C39.8516 18.099 39.9609 17.3359 40.1797 16.6641C40.4036 15.987 40.7188 15.4115 41.125 14.9375C41.5312 14.4583 42.013 14.0938 42.5703 13.8438C43.1328 13.5938 43.75 13.4688 44.4219 13.4688C45.1146 13.4688 45.7396 13.5938 46.2969 13.8438C46.8594 14.0938 47.3411 14.4583 47.7422 14.9375C48.1484 15.4115 48.4583 15.987 48.6719 16.6641C48.8906 17.3359 49 18.099 49 18.9531ZM47.5078 19.6719V18.9375C47.5078 18.2604 47.4375 17.6615 47.2969 17.1406C47.1615 16.6198 46.9609 16.1823 46.6953 15.8281C46.4297 15.474 46.1042 15.2057 45.7188 15.0234C45.3385 14.8411 44.9062 14.75 44.4219 14.75C43.9531 14.75 43.5286 14.8411 43.1484 15.0234C42.7734 15.2057 42.4505 15.474 42.1797 15.8281C41.9141 16.1823 41.7083 16.6198 41.5625 17.1406C41.4167 17.6615 41.3438 18.2604 41.3438 18.9375V19.6719C41.3438 20.3542 41.4167 20.9583 41.5625 21.4844C41.7083 22.0052 41.9167 22.4453 42.1875 22.8047C42.4635 23.1589 42.7891 23.4271 43.1641 23.6094C43.5443 23.7917 43.9688 23.8828 44.4375 23.8828C44.9271 23.8828 45.362 23.7917 45.7422 23.6094C46.1224 23.4271 46.4427 23.1589 46.7031 22.8047C46.9688 22.4453 47.1693 22.0052 47.3047 21.4844C47.4401 20.9583 47.5078 20.3542 47.5078 19.6719ZM55.4531 20.5391H52.4141V19.3125H55.4531C56.0417 19.3125 56.5182 19.2188 56.8828 19.0312C57.2474 18.8438 57.513 18.5833 57.6797 18.25C57.8516 17.9167 57.9375 17.5365 57.9375 17.1094C57.9375 16.7188 57.8516 16.3516 57.6797 16.0078C57.513 15.6641 57.2474 15.388 56.8828 15.1797C56.5182 14.9661 56.0417 14.8594 55.4531 14.8594H52.7656V25H51.2578V13.625H55.4531C56.3125 13.625 57.0391 13.7734 57.6328 14.0703C58.2266 14.3672 58.6771 14.7786 58.9844 15.3047C59.2917 15.8255 59.4453 16.4219 59.4453 17.0938C59.4453 17.8229 59.2917 18.4453 58.9844 18.9609C58.6771 19.4766 58.2266 19.8698 57.6328 20.1406C57.0391 20.4062 56.3125 20.5391 55.4531 20.5391Z" fill="#A3C7D7"/>
<path d="M72 0H74L106 40H104L72 0Z" fill="#007AC7"/>
</svg>
