<svg width="106" height="40" viewBox="0 0 106 40" fill="none" xmlns="http://www.w3.org/2000/svg">
<path d="M0.5 0.5H73.262L104.95 39.5H0.5V0.5Z" fill="#0A324B" stroke="#175A84"/>
<path d="M19.3203 13.625H23.0859C23.9401 13.625 24.6615 13.7552 25.25 14.0156C25.8438 14.276 26.2943 14.6615 26.6016 15.1719C26.9141 15.6771 27.0703 16.2995 27.0703 17.0391C27.0703 17.5599 26.9635 18.0365 26.75 18.4688C26.5417 18.8958 26.2396 19.2604 25.8438 19.5625C25.4531 19.8594 24.9844 20.0807 24.4375 20.2266L24.0156 20.3906H20.4766L20.4609 19.1641H23.1328C23.6745 19.1641 24.125 19.0703 24.4844 18.8828C24.8438 18.6901 25.1146 18.4323 25.2969 18.1094C25.4792 17.7865 25.5703 17.4297 25.5703 17.0391C25.5703 16.6016 25.4844 16.2188 25.3125 15.8906C25.1406 15.5625 24.8698 15.3099 24.5 15.1328C24.1354 14.9505 23.6641 14.8594 23.0859 14.8594H20.8281V25H19.3203V13.625ZM25.9688 25L23.2031 19.8438L24.7734 19.8359L27.5781 24.9062V25H25.9688ZM37.9375 18.9531V19.6719C37.9375 20.526 37.8307 21.2917 37.6172 21.9688C37.4036 22.6458 37.0964 23.2214 36.6953 23.6953C36.2943 24.1693 35.8125 24.5312 35.25 24.7812C34.6927 25.0312 34.0677 25.1562 33.375 25.1562C32.7031 25.1562 32.0859 25.0312 31.5234 24.7812C30.9661 24.5312 30.4818 24.1693 30.0703 23.6953C29.6641 23.2214 29.349 22.6458 29.125 21.9688C28.901 21.2917 28.7891 20.526 28.7891 19.6719V18.9531C28.7891 18.099 28.8984 17.3359 29.1172 16.6641C29.3411 15.987 29.6562 15.4115 30.0625 14.9375C30.4688 14.4583 30.9505 14.0938 31.5078 13.8438C32.0703 13.5938 32.6875 13.4688 33.3594 13.4688C34.0521 13.4688 34.6771 13.5938 35.2344 13.8438C35.7969 14.0938 36.2786 14.4583 36.6797 14.9375C37.0859 15.4115 37.3958 15.987 37.6094 16.6641C37.8281 17.3359 37.9375 18.099 37.9375 18.9531ZM36.4453 19.6719V18.9375C36.4453 18.2604 36.375 17.6615 36.2344 17.1406C36.099 16.6198 35.8984 16.1823 35.6328 15.8281C35.3672 15.474 35.0417 15.2057 34.6562 15.0234C34.276 14.8411 33.8438 14.75 33.3594 14.75C32.8906 14.75 32.4661 14.8411 32.0859 15.0234C31.7109 15.2057 31.388 15.474 31.1172 15.8281C30.8516 16.1823 30.6458 16.6198 30.5 17.1406C30.3542 17.6615 30.2812 18.2604 30.2812 18.9375V19.6719C30.2812 20.3542 30.3542 20.9583 30.5 21.4844C30.6458 22.0052 30.8542 22.4453 31.125 22.8047C31.401 23.1589 31.7266 23.4271 32.1016 23.6094C32.4818 23.7917 32.9062 23.8828 33.375 23.8828C33.8646 23.8828 34.2995 23.7917 34.6797 23.6094C35.0599 23.4271 35.3802 23.1589 35.6406 22.8047C35.9062 22.4453 36.1068 22.0052 36.2422 21.4844C36.3776 20.9583 36.4453 20.3542 36.4453 19.6719ZM44.2344 14.6328L40.4688 25H38.9297L43.2656 13.625H44.2578L44.2344 14.6328ZM47.3906 25L43.6172 14.6328L43.5938 13.625H44.5859L48.9375 25H47.3906ZM47.1953 20.7891V22.0234H40.8047V20.7891H47.1953ZM53.5391 25H51.1641L51.1797 23.7734H53.5391C54.3516 23.7734 55.0286 23.6042 55.5703 23.2656C56.112 22.9219 56.5182 22.4427 56.7891 21.8281C57.0651 21.2083 57.2031 20.4844 57.2031 19.6562V18.9609C57.2031 18.3099 57.125 17.7318 56.9688 17.2266C56.8125 16.7161 56.5833 16.2865 56.2812 15.9375C55.9792 15.5833 55.6094 15.3151 55.1719 15.1328C54.7396 14.9505 54.2422 14.8594 53.6797 14.8594H51.1172V13.625H53.6797C54.4245 13.625 55.1042 13.75 55.7188 14C56.3333 14.2448 56.862 14.6016 57.3047 15.0703C57.7526 15.5339 58.0964 16.0964 58.3359 16.7578C58.5755 17.4141 58.6953 18.1536 58.6953 18.9766V19.6562C58.6953 20.4792 58.5755 21.2214 58.3359 21.8828C58.0964 22.5391 57.75 23.099 57.2969 23.5625C56.849 24.026 56.3073 24.3828 55.6719 24.6328C55.0417 24.8776 54.3307 25 53.5391 25ZM51.9688 13.625V25H50.4609V13.625H51.9688Z" fill="#40E9F1"/>
<path d="M72 0H74L106 40H104L72 0Z" fill="#40E9F1"/>
</svg>
