<svg width="152" height="60" viewBox="0 0 152 60" fill="none" xmlns="http://www.w3.org/2000/svg">
<g filter="url(#filter0_di_479_38)">
<path d="M20 50H132L142 24L132 10H20L10 24L20 50Z" fill="#0E2E5E"/>
<path d="M141.437 24.0717L131.657 49.5H20.3434L10.5633 24.0717L20.2573 10.5H131.743L141.437 24.0717Z" stroke="#0B52BD"/>
</g>
<path d="M32 49.5H119.5" stroke="url(#paint0_linear_479_38)"/>
<g filter="url(#filter1_d_479_38)">
<path d="M75.3594 35H73.8516L68.125 26.2344V35H66.6172V23.625H68.125L73.8672 32.4297V23.625H75.3594V35ZM86.7734 29.6797C86.7734 30.7943 86.5859 31.7682 86.2109 32.6016C85.8359 33.4297 85.3047 34.0625 84.6172 34.5C83.9297 34.9375 83.1276 35.1562 82.2109 35.1562C81.3151 35.1562 80.5208 34.9375 79.8281 34.5C79.1354 34.0573 78.5964 33.4297 78.2109 32.6172C77.8307 31.7995 77.6354 30.8542 77.625 29.7812V28.9609C77.625 27.8672 77.8151 26.901 78.1953 26.0625C78.5755 25.224 79.112 24.5833 79.8047 24.1406C80.5026 23.6927 81.2995 23.4688 82.1953 23.4688C83.1068 23.4688 83.9089 23.6901 84.6016 24.1328C85.2995 24.5703 85.8359 25.2083 86.2109 26.0469C86.5859 26.8802 86.7734 27.8516 86.7734 28.9609V29.6797ZM85.2812 28.9453C85.2812 27.5964 85.0104 26.5625 84.4688 25.8438C83.9271 25.1198 83.1693 24.7578 82.1953 24.7578C81.2474 24.7578 80.5 25.1198 79.9531 25.8438C79.4115 26.5625 79.1328 27.5625 79.1172 28.8438V29.6797C79.1172 30.987 79.3906 32.0156 79.9375 32.7656C80.4896 33.5104 81.2474 33.8828 82.2109 33.8828C83.1797 33.8828 83.9297 33.5312 84.4609 32.8281C84.9922 32.1198 85.2656 31.1068 85.2812 29.7891V28.9453Z" fill="#40E9F1"/>
</g>
<defs>
<filter id="filter0_di_479_38" x="0" y="0" width="152" height="60" filterUnits="userSpaceOnUse" color-interpolation-filters="sRGB">
<feFlood flood-opacity="0" result="BackgroundImageFix"/>
<feColorMatrix in="SourceAlpha" type="matrix" values="0 0 0 0 0 0 0 0 0 0 0 0 0 0 0 0 0 0 127 0" result="hardAlpha"/>
<feOffset/>
<feGaussianBlur stdDeviation="5"/>
<feColorMatrix type="matrix" values="0 0 0 0 0.0431373 0 0 0 0 0.321569 0 0 0 0 0.741176 0 0 0 0.5 0"/>
<feBlend mode="normal" in2="BackgroundImageFix" result="effect1_dropShadow_479_38"/>
<feBlend mode="normal" in="SourceGraphic" in2="effect1_dropShadow_479_38" result="shape"/>
<feColorMatrix in="SourceAlpha" type="matrix" values="0 0 0 0 0 0 0 0 0 0 0 0 0 0 0 0 0 0 127 0" result="hardAlpha"/>
<feOffset/>
<feGaussianBlur stdDeviation="5"/>
<feComposite in2="hardAlpha" operator="arithmetic" k2="-1" k3="1"/>
<feColorMatrix type="matrix" values="0 0 0 0 0 0 0 0 0 0 0 0 0 0 0 0 0 0 0.5 0"/>
<feBlend mode="normal" in2="shape" result="effect2_innerShadow_479_38"/>
</filter>
<filter id="filter1_d_479_38" x="64.6172" y="23.4688" width="28.1562" height="19.6875" filterUnits="userSpaceOnUse" color-interpolation-filters="sRGB">
<feFlood flood-opacity="0" result="BackgroundImageFix"/>
<feColorMatrix in="SourceAlpha" type="matrix" values="0 0 0 0 0 0 0 0 0 0 0 0 0 0 0 0 0 0 127 0" result="hardAlpha"/>
<feOffset dx="2" dy="4"/>
<feGaussianBlur stdDeviation="2"/>
<feColorMatrix type="matrix" values="0 0 0 0 0 0 0 0 0 0 0 0 0 0 0 0 0 0 0.24 0"/>
<feBlend mode="normal" in2="BackgroundImageFix" result="effect1_dropShadow_479_38"/>
<feBlend mode="normal" in="SourceGraphic" in2="effect1_dropShadow_479_38" result="shape"/>
</filter>
<linearGradient id="paint0_linear_479_38" x1="24.5" y1="48.9999" x2="120" y2="48.9998" gradientUnits="userSpaceOnUse">
<stop stop-color="#0B52BD"/>
<stop offset="0.517345" stop-color="#679FF3"/>
<stop offset="1" stop-color="#0B52BD"/>
</linearGradient>
</defs>
</svg>
