<svg width="152" height="60" viewBox="0 0 152 60" fill="none" xmlns="http://www.w3.org/2000/svg">
<g filter="url(#filter0_di_479_49)">
<path d="M20 50H132L142 24L132 10H20L10 24L20 50Z" fill="#133F82"/>
<path d="M141.437 24.0717L131.657 49.5H20.3434L10.5633 24.0717L20.2573 10.5H131.743L141.437 24.0717Z" stroke="#0B52BD"/>
</g>
<line x1="66" y1="10" x2="66" y2="50" stroke="url(#paint0_linear_479_49)" stroke-opacity="0.4" stroke-width="112" stroke-dasharray="1 1"/>
<path d="M134 13H18L20 10H132L134 13Z" fill="#40E9F1"/>
<path d="M32 49.5H119.5" stroke="url(#paint1_linear_479_49)"/>
<g filter="url(#filter1_d_479_49)">
<path d="M75.5469 28.9531V29.6719C75.5469 30.526 75.4401 31.2917 75.2266 31.9688C75.013 32.6458 74.7057 33.2214 74.3047 33.6953C73.9036 34.1693 73.4219 34.5312 72.8594 34.7812C72.3021 35.0312 71.6771 35.1562 70.9844 35.1562C70.3125 35.1562 69.6953 35.0312 69.1328 34.7812C68.5755 34.5312 68.0911 34.1693 67.6797 33.6953C67.2734 33.2214 66.9583 32.6458 66.7344 31.9688C66.5104 31.2917 66.3984 30.526 66.3984 29.6719V28.9531C66.3984 28.099 66.5078 27.3359 66.7266 26.6641C66.9505 25.987 67.2656 25.4115 67.6719 24.9375C68.0781 24.4583 68.5599 24.0938 69.1172 23.8438C69.6797 23.5938 70.2969 23.4688 70.9688 23.4688C71.6615 23.4688 72.2865 23.5938 72.8438 23.8438C73.4062 24.0938 73.888 24.4583 74.2891 24.9375C74.6953 25.4115 75.0052 25.987 75.2188 26.6641C75.4375 27.3359 75.5469 28.099 75.5469 28.9531ZM74.0547 29.6719V28.9375C74.0547 28.2604 73.9844 27.6615 73.8438 27.1406C73.7083 26.6198 73.5078 26.1823 73.2422 25.8281C72.9766 25.474 72.651 25.2057 72.2656 25.0234C71.8854 24.8411 71.4531 24.75 70.9688 24.75C70.5 24.75 70.0755 24.8411 69.6953 25.0234C69.3203 25.2057 68.9974 25.474 68.7266 25.8281C68.4609 26.1823 68.2552 26.6198 68.1094 27.1406C67.9635 27.6615 67.8906 28.2604 67.8906 28.9375V29.6719C67.8906 30.3542 67.9635 30.9583 68.1094 31.4844C68.2552 32.0052 68.4635 32.4453 68.7344 32.8047C69.0104 33.1589 69.3359 33.4271 69.7109 33.6094C70.0911 33.7917 70.5156 33.8828 70.9844 33.8828C71.474 33.8828 71.9089 33.7917 72.2891 33.6094C72.6693 33.4271 72.9896 33.1589 73.25 32.8047C73.5156 32.4453 73.7161 32.0052 73.8516 31.4844C73.987 30.9583 74.0547 30.3542 74.0547 29.6719ZM79.3125 23.625V35H77.8047V23.625H79.3125ZM86.1797 23.625L81.4531 28.9297L78.7969 31.6875L78.5469 30.0781L80.5469 27.875L84.3672 23.625H86.1797ZM84.7266 35L80.5156 29.4531L81.4141 28.2578L86.5234 35H84.7266Z" fill="#FBFFFF"/>
</g>
<defs>
<filter id="filter0_di_479_49" x="0" y="0" width="152" height="60" filterUnits="userSpaceOnUse" color-interpolation-filters="sRGB">
<feFlood flood-opacity="0" result="BackgroundImageFix"/>
<feColorMatrix in="SourceAlpha" type="matrix" values="0 0 0 0 0 0 0 0 0 0 0 0 0 0 0 0 0 0 127 0" result="hardAlpha"/>
<feOffset/>
<feGaussianBlur stdDeviation="5"/>
<feColorMatrix type="matrix" values="0 0 0 0 0.0431373 0 0 0 0 0.321569 0 0 0 0 0.741176 0 0 0 0.5 0"/>
<feBlend mode="normal" in2="BackgroundImageFix" result="effect1_dropShadow_479_49"/>
<feBlend mode="normal" in="SourceGraphic" in2="effect1_dropShadow_479_49" result="shape"/>
<feColorMatrix in="SourceAlpha" type="matrix" values="0 0 0 0 0 0 0 0 0 0 0 0 0 0 0 0 0 0 127 0" result="hardAlpha"/>
<feOffset/>
<feGaussianBlur stdDeviation="5"/>
<feComposite in2="hardAlpha" operator="arithmetic" k2="-1" k3="1"/>
<feColorMatrix type="matrix" values="0 0 0 0 0 0 0 0 0 0 0 0 0 0 0 0 0 0 0.5 0"/>
<feBlend mode="normal" in2="shape" result="effect2_innerShadow_479_49"/>
</filter>
<filter id="filter1_d_479_49" x="64.3984" y="23.4688" width="28.125" height="19.6875" filterUnits="userSpaceOnUse" color-interpolation-filters="sRGB">
<feFlood flood-opacity="0" result="BackgroundImageFix"/>
<feColorMatrix in="SourceAlpha" type="matrix" values="0 0 0 0 0 0 0 0 0 0 0 0 0 0 0 0 0 0 127 0" result="hardAlpha"/>
<feOffset dx="2" dy="4"/>
<feGaussianBlur stdDeviation="2"/>
<feColorMatrix type="matrix" values="0 0 0 0 0 0 0 0 0 0 0 0 0 0 0 0 0 0 0.24 0"/>
<feBlend mode="normal" in2="BackgroundImageFix" result="effect1_dropShadow_479_49"/>
<feBlend mode="normal" in="SourceGraphic" in2="effect1_dropShadow_479_49" result="shape"/>
</filter>
<linearGradient id="paint0_linear_479_49" x1="10" y1="25.9993" x2="122" y2="25.4998" gradientUnits="userSpaceOnUse">
<stop stop-color="#0B52BD" stop-opacity="0"/>
<stop offset="0.518362" stop-color="#0B52BD"/>
<stop offset="1" stop-color="#0B52BD" stop-opacity="0"/>
</linearGradient>
<linearGradient id="paint1_linear_479_49" x1="24.5" y1="48.9999" x2="120" y2="48.9998" gradientUnits="userSpaceOnUse">
<stop stop-color="#0B52BD"/>
<stop offset="0.517345" stop-color="#679FF3"/>
<stop offset="1" stop-color="#0B52BD"/>
</linearGradient>
</defs>
</svg>
