<svg width="152" height="60" viewBox="0 0 152 60" fill="none" xmlns="http://www.w3.org/2000/svg">
<g filter="url(#filter0_di_479_38)">
<path d="M20 50H132L142 24L132 10H20L10 24L20 50Z" fill="#0E2E5E"/>
<path d="M141.437 24.0717L131.657 49.5H20.3434L10.5633 24.0717L20.2573 10.5H131.743L141.437 24.0717Z" stroke="#0B52BD"/>
</g>
<path d="M32 49.5H119.5" stroke="url(#paint0_linear_479_38)"/>
<g filter="url(#filter1_d_479_38)">
<path d="M60.6172 31.3828H62.1172C62.0391 32.1016 61.8333 32.7448 61.5 33.3125C61.1667 33.8802 60.6953 34.3307 60.0859 34.6641C59.4766 34.9922 58.7161 35.1562 57.8047 35.1562C57.138 35.1562 56.5312 35.0312 55.9844 34.7812C55.4427 34.5312 54.9766 34.1771 54.5859 33.7188C54.1953 33.2552 53.8932 32.7005 53.6797 32.0547C53.4714 31.4036 53.3672 30.6797 53.3672 29.8828V28.75C53.3672 27.9531 53.4714 27.2318 53.6797 26.5859C53.8932 25.9349 54.1979 25.3776 54.5938 24.9141C54.9948 24.4505 55.4766 24.0938 56.0391 23.8438C56.6016 23.5938 57.2344 23.4688 57.9375 23.4688C58.7969 23.4688 59.5234 23.6302 60.1172 23.9531C60.7109 24.276 61.1719 24.724 61.5 25.2969C61.8333 25.8646 62.0391 26.5234 62.1172 27.2734H60.6172C60.5443 26.7422 60.4089 26.2865 60.2109 25.9062C60.013 25.5208 59.7318 25.224 59.3672 25.0156C59.0026 24.8073 58.526 24.7031 57.9375 24.7031C57.4323 24.7031 56.987 24.7995 56.6016 24.9922C56.2214 25.1849 55.901 25.4583 55.6406 25.8125C55.3854 26.1667 55.1927 26.5911 55.0625 27.0859C54.9323 27.5807 54.8672 28.1302 54.8672 28.7344V29.8828C54.8672 30.4401 54.9245 30.9635 55.0391 31.4531C55.1589 31.9427 55.3385 32.3724 55.5781 32.7422C55.8177 33.112 56.1224 33.4036 56.4922 33.6172C56.862 33.8255 57.2995 33.9297 57.8047 33.9297C58.4453 33.9297 58.9557 33.8281 59.3359 33.625C59.7161 33.4219 60.0026 33.1302 60.1953 32.75C60.3932 32.3698 60.5339 31.9141 60.6172 31.3828ZM71.0703 33.7734V35H65.3828V33.7734H71.0703ZM65.6797 23.625V35H64.1719V23.625H65.6797ZM81.0391 28.9531V29.6719C81.0391 30.526 80.9323 31.2917 80.7188 31.9688C80.5052 32.6458 80.1979 33.2214 79.7969 33.6953C79.3958 34.1693 78.9141 34.5312 78.3516 34.7812C77.7943 35.0312 77.1693 35.1562 76.4766 35.1562C75.8047 35.1562 75.1875 35.0312 74.625 34.7812C74.0677 34.5312 73.5833 34.1693 73.1719 33.6953C72.7656 33.2214 72.4505 32.6458 72.2266 31.9688C72.0026 31.2917 71.8906 30.526 71.8906 29.6719V28.9531C71.8906 28.099 72 27.3359 72.2188 26.6641C72.4427 25.987 72.7578 25.4115 73.1641 24.9375C73.5703 24.4583 74.0521 24.0938 74.6094 23.8438C75.1719 23.5938 75.7891 23.4688 76.4609 23.4688C77.1536 23.4688 77.7786 23.5938 78.3359 23.8438C78.8984 24.0938 79.3802 24.4583 79.7812 24.9375C80.1875 25.4115 80.4974 25.987 80.7109 26.6641C80.9297 27.3359 81.0391 28.099 81.0391 28.9531ZM79.5469 29.6719V28.9375C79.5469 28.2604 79.4766 27.6615 79.3359 27.1406C79.2005 26.6198 79 26.1823 78.7344 25.8281C78.4688 25.474 78.1432 25.2057 77.7578 25.0234C77.3776 24.8411 76.9453 24.75 76.4609 24.75C75.9922 24.75 75.5677 24.8411 75.1875 25.0234C74.8125 25.2057 74.4896 25.474 74.2188 25.8281C73.9531 26.1823 73.7474 26.6198 73.6016 27.1406C73.4557 27.6615 73.3828 28.2604 73.3828 28.9375V29.6719C73.3828 30.3542 73.4557 30.9583 73.6016 31.4844C73.7474 32.0052 73.9557 32.4453 74.2266 32.8047C74.5026 33.1589 74.8281 33.4271 75.2031 33.6094C75.5833 33.7917 76.0078 33.8828 76.4766 33.8828C76.9661 33.8828 77.401 33.7917 77.7812 33.6094C78.1615 33.4271 78.4818 33.1589 78.7422 32.8047C79.0078 32.4453 79.2083 32.0052 79.3438 31.4844C79.4792 30.9583 79.5469 30.3542 79.5469 29.6719ZM89.3594 32.125C89.3594 31.8594 89.3177 31.625 89.2344 31.4219C89.1562 31.2135 89.0156 31.026 88.8125 30.8594C88.6146 30.6927 88.3385 30.5339 87.9844 30.3828C87.6354 30.2318 87.1927 30.0781 86.6562 29.9219C86.0938 29.7552 85.5859 29.5703 85.1328 29.3672C84.6797 29.1589 84.2917 28.9219 83.9688 28.6562C83.6458 28.3906 83.3984 28.0859 83.2266 27.7422C83.0547 27.3984 82.9688 27.0052 82.9688 26.5625C82.9688 26.1198 83.0599 25.7109 83.2422 25.3359C83.4245 24.9609 83.6849 24.6354 84.0234 24.3594C84.3672 24.0781 84.776 23.8594 85.25 23.7031C85.724 23.5469 86.2526 23.4688 86.8359 23.4688C87.6901 23.4688 88.4141 23.6328 89.0078 23.9609C89.6068 24.2839 90.0625 24.7083 90.375 25.2344C90.6875 25.7552 90.8438 26.3125 90.8438 26.9062H89.3438C89.3438 26.4792 89.2526 26.1016 89.0703 25.7734C88.888 25.4401 88.612 25.1797 88.2422 24.9922C87.8724 24.7995 87.4036 24.7031 86.8359 24.7031C86.2995 24.7031 85.8568 24.7839 85.5078 24.9453C85.1589 25.1068 84.8984 25.3255 84.7266 25.6016C84.5599 25.8776 84.4766 26.1927 84.4766 26.5469C84.4766 26.7865 84.526 27.0052 84.625 27.2031C84.7292 27.3958 84.888 27.5755 85.1016 27.7422C85.3203 27.9089 85.5964 28.0625 85.9297 28.2031C86.2682 28.3438 86.6719 28.4792 87.1406 28.6094C87.7865 28.7917 88.3438 28.9948 88.8125 29.2188C89.2812 29.4427 89.6667 29.6953 89.9688 29.9766C90.276 30.2526 90.5026 30.5677 90.6484 30.9219C90.7995 31.2708 90.875 31.6667 90.875 32.1094C90.875 32.5729 90.7812 32.9922 90.5938 33.3672C90.4062 33.7422 90.138 34.0625 89.7891 34.3281C89.4401 34.5938 89.0208 34.7995 88.5312 34.9453C88.0469 35.0859 87.5052 35.1562 86.9062 35.1562C86.3802 35.1562 85.862 35.0833 85.3516 34.9375C84.8464 34.7917 84.3854 34.5729 83.9688 34.2812C83.5573 33.9896 83.2266 33.6302 82.9766 33.2031C82.7318 32.7708 82.6094 32.2708 82.6094 31.7031H84.1094C84.1094 32.0938 84.1849 32.4297 84.3359 32.7109C84.487 32.987 84.6927 33.2161 84.9531 33.3984C85.2188 33.5807 85.5182 33.7161 85.8516 33.8047C86.1901 33.888 86.5417 33.9297 86.9062 33.9297C87.4323 33.9297 87.8776 33.8568 88.2422 33.7109C88.6068 33.5651 88.8828 33.3568 89.0703 33.0859C89.263 32.8151 89.3594 32.4948 89.3594 32.125ZM100.023 33.7734V35H94V33.7734H100.023ZM94.3047 23.625V35H92.7969V23.625H94.3047ZM99.2266 28.5156V29.7422H94V28.5156H99.2266ZM99.9453 23.625V24.8594H94V23.625H99.9453Z" fill="#40E9F1"/>
</g>
<defs>
<filter id="filter0_di_479_38" x="0" y="0" width="152" height="60" filterUnits="userSpaceOnUse" color-interpolation-filters="sRGB">
<feFlood flood-opacity="0" result="BackgroundImageFix"/>
<feColorMatrix in="SourceAlpha" type="matrix" values="0 0 0 0 0 0 0 0 0 0 0 0 0 0 0 0 0 0 127 0" result="hardAlpha"/>
<feOffset/>
<feGaussianBlur stdDeviation="5"/>
<feColorMatrix type="matrix" values="0 0 0 0 0.0431373 0 0 0 0 0.321569 0 0 0 0 0.741176 0 0 0 0.5 0"/>
<feBlend mode="normal" in2="BackgroundImageFix" result="effect1_dropShadow_479_38"/>
<feBlend mode="normal" in="SourceGraphic" in2="effect1_dropShadow_479_38" result="shape"/>
<feColorMatrix in="SourceAlpha" type="matrix" values="0 0 0 0 0 0 0 0 0 0 0 0 0 0 0 0 0 0 127 0" result="hardAlpha"/>
<feOffset/>
<feGaussianBlur stdDeviation="5"/>
<feComposite in2="hardAlpha" operator="arithmetic" k2="-1" k3="1"/>
<feColorMatrix type="matrix" values="0 0 0 0 0 0 0 0 0 0 0 0 0 0 0 0 0 0 0.5 0"/>
<feBlend mode="normal" in2="shape" result="effect2_innerShadow_479_38"/>
</filter>
<filter id="filter1_d_479_38" x="51.3672" y="23.4688" width="54.6562" height="19.6875" filterUnits="userSpaceOnUse" color-interpolation-filters="sRGB">
<feFlood flood-opacity="0" result="BackgroundImageFix"/>
<feColorMatrix in="SourceAlpha" type="matrix" values="0 0 0 0 0 0 0 0 0 0 0 0 0 0 0 0 0 0 127 0" result="hardAlpha"/>
<feOffset dx="2" dy="4"/>
<feGaussianBlur stdDeviation="2"/>
<feColorMatrix type="matrix" values="0 0 0 0 0 0 0 0 0 0 0 0 0 0 0 0 0 0 0.24 0"/>
<feBlend mode="normal" in2="BackgroundImageFix" result="effect1_dropShadow_479_38"/>
<feBlend mode="normal" in="SourceGraphic" in2="effect1_dropShadow_479_38" result="shape"/>
</filter>
<linearGradient id="paint0_linear_479_38" x1="24.5" y1="48.9999" x2="120" y2="48.9998" gradientUnits="userSpaceOnUse">
<stop stop-color="#0B52BD"/>
<stop offset="0.517345" stop-color="#679FF3"/>
<stop offset="1" stop-color="#0B52BD"/>
</linearGradient>
</defs>
</svg>
