<svg width="708" height="75" viewBox="0 0 708 75" fill="none" xmlns="http://www.w3.org/2000/svg">
<path d="M257 1L227 28V54.5H354.5H488V28L458 1H257Z" fill="#0B111F"/>
<path d="M256 17.5H263.5L277.5 35.5H270L256 17.5Z" fill="#40E9F1"/>
<path d="M273.101 34.8019L273.251 35H273.5H357H439.5H439.761L439.91 34.7859L451.261 18.5H675.798L707.5 49.2118V54.5H694H0.5V34.7026L16.2116 18.5H260.751L273.101 34.8019Z" fill="black" stroke="#113C57"/>
<path d="M679.074 20.5H703L706 23.5V46.5859L679.074 20.5Z" fill="url(#paint0_linear_445_419)"/>
<path d="M698 27.692L695.737 25.4293L695.667 25.3586L695.596 25.4293L694.929 26.0959L694.859 26.1666L694.929 26.2373L697.192 28.5L694.929 30.7627L694.859 30.8334L694.929 30.9041L695.596 31.5707L695.667 31.6414L695.737 31.5707L698 29.308L700.263 31.5707L700.333 31.6414L700.404 31.5707L701.071 30.9041L701.141 30.8334L701.071 30.7627L698.808 28.5L701.071 26.2373L701.141 26.1666L701.071 26.0959L700.404 25.4293L700.333 25.3586L700.263 25.4293L698 27.692Z" fill="#40C5CB" stroke="#40C5CB" stroke-width="0.2"/>
<path d="M477.499 18.55L457.999 1H256.999L237.555 18.5" stroke="#113C57"/>
<path d="M458.5 17.5H451L437 35.5H444.5L458.5 17.5Z" fill="#40E9F1"/>
<defs>
<linearGradient id="paint0_linear_445_419" x1="704.5" y1="22.5" x2="691" y2="36.5" gradientUnits="userSpaceOnUse">
<stop stop-color="#1E497A"/>
<stop offset="1" stop-color="#0B1E36"/>
</linearGradient>
</defs>
</svg>
