<svg width="57" height="57" viewBox="0 0 57 57" fill="none" xmlns="http://www.w3.org/2000/svg">
<path d="M48.0937 29.8538V28.5V27.1285L51.5137 24.136C52.1442 23.5803 52.5579 22.8197 52.6817 21.9885C52.8056 21.1573 52.6316 20.3091 52.1906 19.5938L47.9869 12.4688C47.6745 11.9277 47.2254 11.4784 46.6845 11.1657C46.1436 10.8531 45.53 10.6882 44.9053 10.6875C44.5181 10.6846 44.1331 10.7447 43.7653 10.8656L39.4369 12.3263C38.6896 11.8297 37.91 11.3834 37.1034 10.9903L36.195 6.50159C36.0321 5.68151 35.586 4.94484 34.9347 4.42055C34.2834 3.89626 33.4684 3.61775 32.6325 3.63377H24.2962C23.4603 3.61775 22.6453 3.89626 21.9941 4.42055C21.3428 4.94484 20.8966 5.68151 20.7337 6.50159L19.8253 10.9903C19.0129 11.3833 18.2275 11.8296 17.4741 12.3263L13.2347 10.7944C12.8629 10.6975 12.478 10.6614 12.0947 10.6875C11.4699 10.6882 10.8564 10.8531 10.3155 11.1657C9.77463 11.4784 9.32548 11.9277 9.01312 12.4688L4.80937 19.5938C4.3936 20.308 4.2391 21.1446 4.37234 21.9603C4.50557 22.7759 4.91824 23.5199 5.53968 24.0647L8.90624 27.1463V29.8716L5.53968 32.8641C4.90069 33.4127 4.47673 34.17 4.34303 35.0015C4.20934 35.833 4.37456 36.685 4.80937 37.4063L9.01312 44.5313C9.32548 45.0723 9.77463 45.5217 10.3155 45.8343C10.8564 46.147 11.4699 46.3119 12.0947 46.3125C12.4818 46.3155 12.8669 46.2553 13.2347 46.1344L17.5631 44.6738C18.3104 45.1704 19.09 45.6167 19.8966 46.0097L20.805 50.4985C20.9679 51.3185 21.414 52.0552 22.0653 52.5795C22.7166 53.1038 23.5315 53.3823 24.3675 53.3663H32.775C33.6109 53.3823 34.4259 53.1038 35.0772 52.5795C35.7285 52.0552 36.1746 51.3185 36.3375 50.4985L37.2459 46.0097C38.0583 45.6168 38.8438 45.1705 39.5972 44.6738L43.9078 46.1344C44.2756 46.2553 44.6607 46.3155 45.0478 46.3125C45.6725 46.3119 46.2861 46.147 46.827 45.8343C47.3679 45.5217 47.817 45.0723 48.1294 44.5313L52.1906 37.4063C52.6064 36.692 52.7609 35.8554 52.6276 35.0398C52.4944 34.2241 52.0817 33.4802 51.4603 32.9353L48.0937 29.8538ZM44.9053 42.75L38.7956 40.6838C37.3654 41.8952 35.7308 42.8422 33.9684 43.4803L32.7037 49.875H24.2962L23.0316 43.5516C21.2831 42.8953 19.6574 41.95 18.2222 40.755L12.0947 42.75L7.89093 35.625L12.7359 31.35C12.4066 29.5062 12.4066 27.6186 12.7359 25.7747L7.89093 21.375L12.0947 14.25L18.2044 16.3163C19.6346 15.1048 21.2692 14.1579 23.0316 13.5197L24.2962 7.12502H32.7037L33.9684 13.4485C35.7169 14.1047 37.3426 15.0501 38.7778 16.245L44.9053 14.25L49.1091 21.375L44.2641 25.65C44.5934 27.4939 44.5934 29.3815 44.2641 31.2253L49.1091 35.625L44.9053 42.75Z" fill="#DAE9FF"/>
<path d="M28.5 39.1875C26.3862 39.1875 24.3199 38.5607 22.5623 37.3863C20.8048 36.212 19.435 34.5428 18.626 32.5899C17.8171 30.637 17.6055 28.4881 18.0179 26.415C18.4302 24.3418 19.4481 22.4375 20.9428 20.9428C22.4375 19.4481 24.3418 18.4302 26.415 18.0179C28.4881 17.6055 30.637 17.8171 32.5899 18.626C34.5428 19.435 36.212 20.8048 37.3863 22.5623C38.5607 24.3199 39.1875 26.3862 39.1875 28.5C39.2018 29.9075 38.9351 31.3037 38.4031 32.6068C37.871 33.9099 37.0843 35.0938 36.0891 36.0891C35.0938 37.0843 33.9099 37.871 32.6068 38.4031C31.3037 38.9351 29.9075 39.2018 28.5 39.1875V39.1875ZM28.5 21.375C27.5583 21.3531 26.622 21.5224 25.7476 21.8727C24.8733 22.223 24.0791 22.747 23.413 23.413C22.747 24.0791 22.223 24.8733 21.8727 25.7476C21.5224 26.622 21.3531 27.5583 21.375 28.5C21.3531 29.4417 21.5224 30.378 21.8727 31.2524C22.223 32.1267 22.747 32.9209 23.413 33.587C24.0791 34.253 24.8733 34.777 25.7476 35.1273C26.622 35.4776 27.5583 35.6469 28.5 35.625C29.4417 35.6469 30.378 35.4776 31.2524 35.1273C32.1267 34.777 32.9209 34.253 33.587 33.587C34.253 32.9209 34.777 32.1267 35.1273 31.2524C35.4776 30.378 35.6469 29.4417 35.625 28.5C35.6469 27.5583 35.4776 26.622 35.1273 25.7476C34.777 24.8733 34.253 24.0791 33.587 23.413C32.9209 22.747 32.1267 22.223 31.2524 21.8727C30.378 21.5224 29.4417 21.3531 28.5 21.375Z" fill="#DAE9FF"/>
</svg>
