<svg width="57" height="57" viewBox="0 0 57 57" fill="none" xmlns="http://www.w3.org/2000/svg">
<path d="M7.125 35.625V39.1875H15.2938L3.5625 50.9188L6.08119 53.4375L17.8125 41.7062V49.875H21.375V35.625H7.125Z" fill="#8CA7CE"/>
<path d="M42.75 37.4062H46.3125V46.3125H42.75V37.4062Z" fill="#8CA7CE"/>
<path d="M35.625 28.5H39.1875V46.3125H35.625V28.5Z" fill="#8CA7CE"/>
<path d="M28.5 32.0625H32.0625V46.3125H28.5V32.0625Z" fill="#8CA7CE"/>
<path d="M49.875 3.5625H7.125C6.18046 3.56344 5.27487 3.93908 4.60697 4.60697C3.93908 5.27487 3.56344 6.18046 3.5625 7.125V28.5H7.125V23.1562H49.8768L49.8786 49.875H28.5V53.4375H49.875C50.8194 53.4361 51.7247 53.0603 52.3925 52.3925C53.0603 51.7247 53.4361 50.8194 53.4375 49.875V7.125C53.4366 6.18046 53.0609 5.27487 52.393 4.60697C51.7251 3.93908 50.8195 3.56344 49.875 3.5625ZM21.375 19.5938H7.125V7.125H21.375V19.5938ZM24.9375 19.5938V7.125H49.875V19.5938H24.9375Z" fill="#8CA7CE"/>
</svg>
