<svg width="59" height="59" viewBox="0 0 59 59" fill="none" xmlns="http://www.w3.org/2000/svg">
<path d="M29.3361 28.3528C33.7611 28.3528 37.2028 24.7472 37.2028 20.3222C37.2028 15.8972 33.5972 12.4556 29.1722 12.4556C24.7472 12.4556 21.3055 16.0611 21.3055 20.3222C21.3055 24.7472 24.9111 28.3528 29.3361 28.3528ZM29.1722 15.7333C29.3361 15.7333 29.3361 15.7333 29.1722 15.7333C31.7944 15.7333 33.925 17.8639 33.925 20.4861C33.925 23.1083 31.7944 25.075 29.1722 25.075C26.55 25.075 24.5833 22.9445 24.5833 20.4861C24.5833 17.8639 26.7139 15.7333 29.1722 15.7333V15.7333Z" fill="#8CA7CE"/>
<path d="M53.5917 27.3694C50.4778 24.5833 46.3806 23.1083 42.1195 23.2722H40.8084C40.4806 24.5833 39.9889 25.7306 39.3334 26.7139C40.3167 26.55 41.1362 26.55 42.1195 26.55C45.2334 26.3861 48.3473 27.3694 50.8056 29.1722V40.9722H54.0834V27.8611L53.5917 27.3694Z" fill="#8CA7CE"/>
<path d="M38.35 12.7834C39.1694 10.8167 41.4639 9.83335 43.5944 10.6528C45.5611 11.4722 46.5444 13.7667 45.725 15.8972C45.0694 17.3722 43.5944 18.3556 42.1194 18.3556C41.7917 18.3556 41.3 18.3556 40.9722 18.1917C41.1361 19.0111 41.1361 19.8306 41.1361 20.4861V21.4695C41.4639 21.4695 41.7917 21.6333 42.1194 21.6333C46.2167 21.6333 49.4944 18.3556 49.4944 14.4222C49.4944 10.325 46.2167 7.04724 42.2833 7.04724C39.6611 7.04724 37.3667 8.35835 36.0555 10.6528C36.875 11.1445 37.6944 11.8 38.35 12.7834V12.7834Z" fill="#8CA7CE"/>
<path d="M19.6666 26.8778C19.0111 25.8945 18.5194 24.7472 18.1916 23.4361H16.8805C12.6194 23.2722 8.52218 24.7472 5.40829 27.3695L4.91663 27.8611V40.9722H8.1944V29.1722C10.8166 27.3695 13.7666 26.3861 16.8805 26.55C17.8638 26.55 18.8472 26.7139 19.6666 26.8778Z" fill="#8CA7CE"/>
<path d="M16.8806 21.4695C17.2083 21.4695 17.5361 21.4695 17.8639 21.3056V20.3223C17.8639 19.5028 17.8639 18.6834 18.0278 18.0278C17.7 18.1917 17.2083 18.1917 16.8806 18.1917C14.75 18.1917 12.9472 16.3889 12.9472 14.2584C12.9472 12.1278 14.75 10.325 16.8806 10.325C18.5194 10.325 19.9944 11.3084 20.65 12.7834C21.3056 11.9639 22.2889 11.1445 23.1083 10.4889C20.9778 7.04725 16.5528 5.90003 13.1111 8.03059C9.66945 10.1611 8.52222 14.5861 10.6528 18.0278C11.9639 20.1584 14.2583 21.4695 16.8806 21.4695V21.4695Z" fill="#8CA7CE"/>
<path d="M42.775 37.2028L42.4472 36.7111C39.1695 33.1055 34.5806 30.975 29.6639 31.1389C24.7472 30.975 19.9945 33.1055 16.7167 36.7111L16.3889 37.2028V49.6583C16.3889 51.1333 17.5361 52.4444 19.175 52.4444H40.1528C41.6278 52.4444 42.9389 51.1333 42.9389 49.6583V37.2028H42.775ZM39.4972 49.1667H19.6667V38.35C22.2889 35.7278 25.8945 34.4167 29.6639 34.4167C33.2695 34.2528 36.875 35.7278 39.4972 38.35V49.1667Z" fill="#8CA7CE"/>
</svg>
