<svg width="56" height="56" viewBox="0 0 56 56" fill="none" xmlns="http://www.w3.org/2000/svg">
<path d="M33.5288 47.25C33.5288 46.7859 33.3481 46.3408 33.0264 46.0126C32.7047 45.6844 32.2684 45.5 31.8135 45.5H21.5214C21.0664 45.5 20.6301 45.6844 20.3084 46.0126C19.9868 46.3408 19.806 46.7859 19.806 47.25C19.806 47.7141 19.9868 48.1592 20.3084 48.4874C20.6301 48.8156 21.0664 49 21.5214 49H31.8135C32.2684 49 32.7047 48.8156 33.0264 48.4874C33.3481 48.1592 33.5288 47.7141 33.5288 47.25Z" fill="#DAE9FF"/>
<path d="M35.1412 38.5H24.8491C24.3942 38.5 23.9579 38.6844 23.6362 39.0126C23.3145 39.3408 23.1338 39.7859 23.1338 40.25C23.1338 40.7141 23.3145 41.1592 23.6362 41.4874C23.9579 41.8156 24.3942 42 24.8491 42H35.1412C35.5962 42 36.0325 41.8156 36.3542 41.4874C36.6759 41.1592 36.8566 40.7141 36.8566 40.25C36.8566 39.7859 36.6759 39.3408 36.3542 39.0126C36.0325 38.6844 35.5962 38.5 35.1412 38.5Z" fill="#DAE9FF"/>
<path d="M34.2151 52.5H23.923C23.4681 52.5 23.0317 52.6844 22.7101 53.0126C22.3884 53.3408 22.2076 53.7859 22.2076 54.25C22.2076 54.7141 22.3884 55.1592 22.7101 55.4874C23.0317 55.8156 23.4681 56 23.923 56H34.2151C34.67 56 35.1063 55.8156 35.428 55.4874C35.7497 55.1592 35.9305 54.7141 35.9305 54.25C35.9305 53.7859 35.7497 53.3408 35.428 53.0126C35.1063 52.6844 34.67 52.5 34.2151 52.5V52.5Z" fill="#DAE9FF"/>
<path d="M52.5692 52.5H40.5618C40.1068 52.5 39.6705 52.6844 39.3488 53.0126C39.0272 53.3408 38.8464 53.7859 38.8464 54.25C38.8464 54.7141 39.0272 55.1592 39.3488 55.4874C39.6705 55.8156 40.1068 56 40.5618 56H52.5692C53.0242 56 53.4605 55.8156 53.7822 55.4874C54.1039 55.1592 54.2846 54.7141 54.2846 54.25C54.2846 53.7859 54.1039 53.3408 53.7822 53.0126C53.4605 52.6844 53.0242 52.5 52.5692 52.5V52.5Z" fill="#DAE9FF"/>
<path d="M54.2846 45.5H42.2771C41.8222 45.5 41.3859 45.6844 41.0642 46.0126C40.7425 46.3408 40.5618 46.7859 40.5618 47.25C40.5618 47.7141 40.7425 48.1592 41.0642 48.4874C41.3859 48.8156 41.8222 49 42.2771 49H54.2846C54.7395 49 55.1758 48.8156 55.4975 48.4874C55.8192 48.1592 55.9999 47.7141 55.9999 47.25C55.9999 46.7859 55.8192 46.3408 55.4975 46.0126C55.1758 45.6844 54.7395 45.5 54.2846 45.5Z" fill="#DAE9FF"/>
<path d="M54.3532 42C53.8505 35.8382 52.2091 29.8291 49.5159 24.29C46.9359 19.2845 43.2186 14.9821 38.6749 11.7425L42.7917 2.48501C42.9244 2.20833 42.9832 1.90082 42.9622 1.59355C42.9411 1.28627 42.8409 0.990116 42.6717 0.735005C42.5155 0.511211 42.3099 0.328059 42.0715 0.20037C41.8331 0.0726811 41.5686 0.0040416 41.2994 5.37125e-06H13.2877C12.9993 -0.000723433 12.7154 0.0727255 12.4622 0.213562C12.2091 0.3544 11.9948 0.558079 11.8392 0.805773C11.6836 1.05347 11.5917 1.33718 11.5721 1.63069C11.5524 1.92419 11.6056 2.21802 11.7267 2.48501L15.9293 11.7775C11.4188 15.0201 7.72683 19.3084 5.15692 24.29C1.46891 31.29 0.319625 39.8475 0.010862 45.78C-0.0396956 46.6485 0.0866182 47.5183 0.381844 48.3345C0.67707 49.1507 1.13481 49.8957 1.72621 50.5225C2.34779 51.1384 3.08378 51.6213 3.89092 51.9429C4.69806 52.2645 5.56007 52.4182 6.42628 52.395H17.0615V49H6.28905C5.90084 48.9988 5.51688 48.9175 5.16021 48.7611C4.80354 48.6048 4.48152 48.3765 4.21347 48.09C3.94503 47.8058 3.73771 47.4675 3.60479 47.0969C3.47187 46.7262 3.41627 46.3313 3.44156 45.9375C3.68171 41.37 4.62516 32.6725 8.17594 25.9C10.679 21.0474 14.3804 16.9455 18.914 14H20.6294C19.467 15.6406 18.396 17.3466 17.4217 19.11C16.4293 20.9864 15.5861 22.941 14.9001 24.955L17.2501 26.565C17.9444 24.4755 18.799 22.445 19.806 20.4925C21.0426 18.2222 22.4475 16.0517 24.0086 14H25.724C26.8747 16.8059 27.6869 19.7441 28.1426 22.75C28.5152 24.9814 28.6989 27.2414 28.6915 29.505L31.4018 27.5625C31.3263 25.8025 31.1429 24.0491 30.8529 22.3125C30.3926 19.4743 29.6571 16.6898 28.6572 14H29.9952L31.5562 10.5H19.137L15.9636 3.50001H38.6234L34.335 13.0725C35.0701 13.4742 35.7753 13.9304 36.4449 14.4375C40.6478 17.3957 44.0947 21.3383 46.4969 25.935C48.903 30.9753 50.3965 36.4178 50.9053 42H54.3532Z" fill="#DAE9FF"/>
</svg>
