<svg width="56" height="56" viewBox="0 0 56 56" fill="none" xmlns="http://www.w3.org/2000/svg">
<path d="M33.5287 47.25C33.5287 46.7859 33.348 46.3408 33.0263 46.0126C32.7046 45.6844 32.2683 45.5 31.8134 45.5H21.5213C21.0663 45.5 20.63 45.6844 20.3083 46.0126C19.9866 46.3408 19.8059 46.7859 19.8059 47.25C19.8059 47.7141 19.9866 48.1592 20.3083 48.4874C20.63 48.8156 21.0663 49 21.5213 49H31.8134C32.2683 49 32.7046 48.8156 33.0263 48.4874C33.348 48.1592 33.5287 47.7141 33.5287 47.25Z" fill="#8CA7CE"/>
<path d="M35.1412 38.5H24.8491C24.3942 38.5 23.9579 38.6844 23.6362 39.0126C23.3145 39.3408 23.1338 39.7859 23.1338 40.25C23.1338 40.7141 23.3145 41.1592 23.6362 41.4874C23.9579 41.8156 24.3942 42 24.8491 42H35.1412C35.5962 42 36.0325 41.8156 36.3542 41.4874C36.6759 41.1592 36.8566 40.7141 36.8566 40.25C36.8566 39.7859 36.6759 39.3408 36.3542 39.0126C36.0325 38.6844 35.5962 38.5 35.1412 38.5Z" fill="#8CA7CE"/>
<path d="M34.2152 52.5H23.9231C23.4682 52.5 23.0319 52.6844 22.7102 53.0126C22.3885 53.3408 22.2078 53.7859 22.2078 54.25C22.2078 54.7141 22.3885 55.1592 22.7102 55.4874C23.0319 55.8156 23.4682 56 23.9231 56H34.2152C34.6702 56 35.1065 55.8156 35.4282 55.4874C35.7499 55.1592 35.9306 54.7141 35.9306 54.25C35.9306 53.7859 35.7499 53.3408 35.4282 53.0126C35.1065 52.6844 34.6702 52.5 34.2152 52.5V52.5Z" fill="#8CA7CE"/>
<path d="M52.5694 52.5H40.5619C40.107 52.5 39.6707 52.6844 39.349 53.0126C39.0273 53.3408 38.8466 53.7859 38.8466 54.25C38.8466 54.7141 39.0273 55.1592 39.349 55.4874C39.6707 55.8156 40.107 56 40.5619 56H52.5694C53.0243 56 53.4606 55.8156 53.7823 55.4874C54.104 55.1592 54.2847 54.7141 54.2847 54.25C54.2847 53.7859 54.104 53.3408 53.7823 53.0126C53.4606 52.6844 53.0243 52.5 52.5694 52.5V52.5Z" fill="#8CA7CE"/>
<path d="M54.2847 45.5H42.2772C41.8223 45.5 41.386 45.6844 41.0643 46.0126C40.7426 46.3408 40.5619 46.7859 40.5619 47.25C40.5619 47.7141 40.7426 48.1592 41.0643 48.4874C41.386 48.8156 41.8223 49 42.2772 49H54.2847C54.7396 49 55.1759 48.8156 55.4976 48.4874C55.8193 48.1592 56 47.7141 56 47.25C56 46.7859 55.8193 46.3408 55.4976 46.0126C55.1759 45.6844 54.7396 45.5 54.2847 45.5Z" fill="#8CA7CE"/>
<path d="M54.3532 42C53.8505 35.8382 52.2091 29.8291 49.5159 24.29C46.9359 19.2845 43.2186 14.9821 38.6749 11.7425L42.7917 2.48501C42.9244 2.20833 42.9832 1.90082 42.9622 1.59355C42.9411 1.28627 42.8409 0.990116 42.6717 0.735005C42.5155 0.511211 42.3099 0.328059 42.0715 0.20037C41.8331 0.0726811 41.5686 0.0040416 41.2994 5.37125e-06H13.2877C12.9993 -0.000723433 12.7154 0.0727255 12.4622 0.213562C12.2091 0.3544 11.9948 0.558079 11.8392 0.805773C11.6836 1.05347 11.5917 1.33718 11.5721 1.63069C11.5524 1.92419 11.6056 2.21802 11.7267 2.48501L15.9293 11.7775C11.4188 15.0201 7.72683 19.3084 5.15692 24.29C1.46891 31.29 0.319625 39.8475 0.010862 45.78C-0.0396956 46.6485 0.0866182 47.5183 0.381844 48.3345C0.67707 49.1507 1.13481 49.8957 1.72621 50.5225C2.34779 51.1384 3.08378 51.6213 3.89092 51.9429C4.69806 52.2645 5.56007 52.4182 6.42628 52.395H17.0615V49H6.28905C5.90084 48.9988 5.51688 48.9175 5.16021 48.7611C4.80354 48.6048 4.48152 48.3765 4.21347 48.09C3.94503 47.8058 3.73771 47.4675 3.60479 47.0969C3.47187 46.7262 3.41627 46.3313 3.44156 45.9375C3.68171 41.37 4.62516 32.6725 8.17594 25.9C10.679 21.0474 14.3804 16.9455 18.914 14H20.6294C19.467 15.6406 18.396 17.3466 17.4217 19.11C16.4293 20.9864 15.5861 22.941 14.9001 24.955L17.2501 26.565C17.9444 24.4755 18.799 22.445 19.806 20.4925C21.0426 18.2222 22.4475 16.0517 24.0086 14H25.724C26.8747 16.8059 27.6869 19.7441 28.1426 22.75C28.5152 24.9814 28.6989 27.2414 28.6915 29.505L31.4018 27.5625C31.3263 25.8025 31.1429 24.0491 30.8529 22.3125C30.3926 19.4743 29.6571 16.6898 28.6572 14H29.9952L31.5562 10.5H19.137L15.9636 3.50001H38.6234L34.335 13.0725C35.0701 13.4742 35.7753 13.9304 36.4449 14.4375C40.6478 17.3957 44.0947 21.3383 46.4969 25.935C48.903 30.9753 50.3965 36.4178 50.9053 42H54.3532Z" fill="#8CA7CE"/>
</svg>
