<svg width="54" height="54" viewBox="0 0 54 54" fill="none" xmlns="http://www.w3.org/2000/svg">
<g filter="url(#filter0_dd_385_647)">
<path d="M50.3344 26V45.6212C50.3344 47.0271 49.2898 48.1667 48.0011 48.1667H6.00106C4.71239 48.1667 3.66772 47.0271 3.66772 45.6212V26L27.0011 41.1667L50.3344 26Z" stroke="#DAE9FF" stroke-width="3" stroke-linejoin="round"/>
<path d="M50.3344 25.7457L38.6677 17.7051M3.66772 25.7457L15.3344 17.7051L3.66772 25.7457Z" stroke="#DAE9FF" stroke-width="3" stroke-linecap="round" stroke-linejoin="round"/>
<path d="M38.6688 3.83221H15.3354V32.3159C15.3354 33.1058 15.7349 33.8419 16.3971 34.2723L25.7305 40.339C26.5037 40.8416 27.5005 40.8416 28.2738 40.339L37.6071 34.2723C38.2693 33.8419 38.6688 33.1058 38.6688 32.3159V3.83221Z" stroke="#DAE9FF" stroke-width="3" stroke-linejoin="round"/>
<path d="M22.3354 13.1644H27.0021" stroke="#DAE9FF" stroke-width="3" stroke-linecap="round" stroke-linejoin="round"/>
<path d="M22.3354 20.1644H31.6688" stroke="#DAE9FF" stroke-width="3" stroke-linecap="round" stroke-linejoin="round"/>
</g>
<defs>
<filter id="filter0_dd_385_647" x="0.167603" y="0.332214" width="53.6669" height="53.3345" filterUnits="userSpaceOnUse" color-interpolation-filters="sRGB">
<feFlood flood-opacity="0" result="BackgroundImageFix"/>
<feColorMatrix in="SourceAlpha" type="matrix" values="0 0 0 0 0 0 0 0 0 0 0 0 0 0 0 0 0 0 127 0" result="hardAlpha"/>
<feOffset/>
<feGaussianBlur stdDeviation="1"/>
<feColorMatrix type="matrix" values="0 0 0 0 0.195017 0 0 0 0 0.803637 0 0 0 0 0.995833 0 0 0 1 0"/>
<feBlend mode="normal" in2="BackgroundImageFix" result="effect1_dropShadow_385_647"/>
<feColorMatrix in="SourceAlpha" type="matrix" values="0 0 0 0 0 0 0 0 0 0 0 0 0 0 0 0 0 0 127 0" result="hardAlpha"/>
<feOffset dy="2"/>
<feGaussianBlur stdDeviation="1"/>
<feColorMatrix type="matrix" values="0 0 0 0 0.196078 0 0 0 0 0.803922 0 0 0 0 0.996078 0 0 0 0.25 0"/>
<feBlend mode="normal" in2="effect1_dropShadow_385_647" result="effect2_dropShadow_385_647"/>
<feBlend mode="normal" in="SourceGraphic" in2="effect2_dropShadow_385_647" result="shape"/>
</filter>
</defs>
</svg>
