<svg width="164" height="53" viewBox="0 0 164 53" fill="none" xmlns="http://www.w3.org/2000/svg">
<g filter="url(#filter0_d_465_12)">
<path d="M44.7915 12.8198H151.733C153.338 12.8198 154.787 13.7788 155.415 15.2558L159.336 24.4855C159.76 25.4849 159.76 26.614 159.336 27.6134L155.415 36.8431C154.787 38.3201 153.338 39.2791 151.733 39.2791H44.7915V12.8198Z" fill="#091322"/>
<path d="M45.5415 13.5698H151.733C153.037 13.5698 154.215 14.349 154.725 15.5491L158.645 24.7788C158.99 25.5908 158.99 26.5081 158.645 27.3201L154.725 36.5498C154.215 37.7499 153.037 38.5291 151.733 38.5291H45.5415V13.5698Z" stroke="#0A233C" stroke-width="1.5"/>
</g>
<g filter="url(#filter1_d_465_12)">
<path d="M12.8136 8.42229C14.1687 5.71202 16.9388 4 19.969 4H37.6423C40.6725 4 43.4426 5.71202 44.7977 8.42229L51.8224 22.4718C52.9486 24.724 52.9486 27.375 51.8224 29.6272L44.7977 43.6766C43.4426 46.3869 40.6725 48.0989 37.6423 48.0989H19.969C16.9388 48.0989 14.1687 46.3869 12.8136 43.6766L5.78886 29.6272C4.66275 27.375 4.66274 24.724 5.78885 22.4718L12.8136 8.42229Z" fill="#030D1C"/>
<path d="M14.1552 9.09311C15.2563 6.89102 17.507 5.5 19.969 5.5H37.6423C40.1043 5.5 42.355 6.89102 43.4561 9.09311L50.4808 23.1426C51.3958 24.9725 51.3958 27.1264 50.4808 28.9564L43.4561 43.0058C42.355 45.2079 40.1043 46.5989 37.6423 46.5989H19.969C17.507 46.5989 15.2563 45.2079 14.1552 43.0058L7.1305 28.9564C6.21553 27.1264 6.21553 24.9725 7.1305 23.1426L14.1552 9.09311Z" stroke="#273440" stroke-width="3"/>
</g>
<g clip-path="url(#clip0_465_12)">
<path d="M40.1539 23.2308V33.3846C40.1539 33.6294 40.0566 33.8642 39.8835 34.0373C39.7104 34.2104 39.4756 34.3077 39.2308 34.3077C38.986 34.3077 38.7512 34.2104 38.5781 34.0373C38.405 33.8642 38.3077 33.6294 38.3077 33.3846V29.6923C38.3077 28.9579 38.0159 28.2535 37.4966 27.7342C36.9773 27.2148 36.2729 26.9231 35.5385 26.9231H32.7692V15.8462C32.7692 15.3565 32.5747 14.8869 32.2285 14.5407C31.8823 14.1945 31.4127 14 30.9231 14H19.8462C19.3565 14 18.887 14.1945 18.5407 14.5407C18.1945 14.8869 18 15.3565 18 15.8462V36.1538C18 36.6435 18.1945 37.1131 18.5407 37.4593C18.887 37.8055 19.3565 38 19.8462 38H30.9231C31.4127 38 31.8823 37.8055 32.2285 37.4593C32.5747 37.1131 32.7692 36.6435 32.7692 36.1538V28.7692H35.5385C35.7833 28.7692 36.0181 28.8665 36.1912 29.0396C36.3643 29.2127 36.4615 29.4475 36.4615 29.6923V33.3846C36.4615 34.1191 36.7533 34.8234 37.2726 35.3428C37.792 35.8621 38.4963 36.1538 39.2308 36.1538C39.9652 36.1538 40.6696 35.8621 41.1889 35.3428C41.7083 34.8234 42 34.1191 42 33.3846V21.3846C42 20.895 41.8055 20.4254 41.4593 20.0792C41.1131 19.733 40.6435 19.5385 40.1539 19.5385V16.7508C40.149 16.5092 40.0496 16.2791 39.877 16.11C39.7045 15.9408 39.4724 15.8461 39.2308 15.8462C39.1022 15.8483 38.9755 15.8767 38.8583 15.9297C38.7412 15.9827 38.6361 16.0591 38.5496 16.1542C38.4632 16.2493 38.3971 16.3612 38.3555 16.4828C38.3139 16.6045 38.2976 16.7334 38.3077 16.8615V21.3846C38.3077 21.7498 38.416 22.1067 38.6188 22.4103C38.8217 22.7139 39.11 22.9505 39.4474 23.0902C39.7847 23.23 40.1559 23.2665 40.514 23.1953C40.8721 23.1241 41.2011 22.9482 41.4593 22.69C41.7175 22.4319 41.8933 22.1029 41.9645 21.7448C42.0358 21.3867 41.9992 21.0155 41.8595 20.6781C41.7197 20.3408 41.4831 20.0525 41.1795 19.8496C40.8759 19.6467 40.519 19.5385 40.1539 19.5385V23.2308ZM30.9231 24.1538C30.9231 24.3987 30.8258 24.6334 30.6527 24.8066C30.4796 24.9797 30.2448 25.0769 30 25.0769H20.7692C20.5244 25.0769 20.2896 24.9797 20.1165 24.8066C19.9434 24.6334 19.8462 24.3987 19.8462 24.1538V18.6154C19.8462 18.3706 19.9434 18.1358 20.1165 17.9627C20.2896 17.7896 20.5244 17.6923 20.7692 17.6923H30C30.2448 17.6923 30.4796 17.7896 30.6527 17.9627C30.8258 18.1358 30.9231 18.3706 30.9231 18.6154V24.1538Z" fill="#D62F3B"/>
</g>
<defs>
<filter id="filter0_d_465_12" x="40.7915" y="10.8198" width="122.863" height="34.4594" filterUnits="userSpaceOnUse" color-interpolation-filters="sRGB">
<feFlood flood-opacity="0" result="BackgroundImageFix"/>
<feColorMatrix in="SourceAlpha" type="matrix" values="0 0 0 0 0 0 0 0 0 0 0 0 0 0 0 0 0 0 127 0" result="hardAlpha"/>
<feOffset dy="2"/>
<feGaussianBlur stdDeviation="2"/>
<feColorMatrix type="matrix" values="0 0 0 0 0 0 0 0 0 0 0 0 0 0 0 0 0 0 0.25 0"/>
<feBlend mode="normal" in2="BackgroundImageFix" result="effect1_dropShadow_465_12"/>
<feBlend mode="normal" in="SourceGraphic" in2="effect1_dropShadow_465_12" result="shape"/>
</filter>
<filter id="filter1_d_465_12" x="0.944275" y="0" width="55.7227" height="52.0989" filterUnits="userSpaceOnUse" color-interpolation-filters="sRGB">
<feFlood flood-opacity="0" result="BackgroundImageFix"/>
<feColorMatrix in="SourceAlpha" type="matrix" values="0 0 0 0 0 0 0 0 0 0 0 0 0 0 0 0 0 0 127 0" result="hardAlpha"/>
<feOffset/>
<feGaussianBlur stdDeviation="2"/>
<feColorMatrix type="matrix" values="0 0 0 0 0 0 0 0 0 0 0 0 0 0 0 0 0 0 0.25 0"/>
<feBlend mode="normal" in2="BackgroundImageFix" result="effect1_dropShadow_465_12"/>
<feBlend mode="normal" in="SourceGraphic" in2="effect1_dropShadow_465_12" result="shape"/>
</filter>
<clipPath id="clip0_465_12">
<rect width="24.8057" height="24.8057" fill="white" transform="translate(16.8622 14.106)"/>
</clipPath>
</defs>
</svg>
