<svg width="164" height="53" viewBox="0 0 164 53" fill="none" xmlns="http://www.w3.org/2000/svg">
<g filter="url(#filter0_d_333_2472)">
<path d="M44.7915 12.8198H151.733C153.338 12.8198 154.787 13.7788 155.415 15.2558L159.336 24.4855C159.76 25.4849 159.76 26.614 159.336 27.6134L155.415 36.8431C154.787 38.3201 153.338 39.2791 151.733 39.2791H44.7915V12.8198Z" fill="#091322"/>
<path d="M45.5415 13.5698H151.733C153.037 13.5698 154.215 14.349 154.725 15.5491L158.645 24.7788C158.99 25.5908 158.99 26.5081 158.645 27.3201L154.725 36.5498C154.215 37.7499 153.037 38.5291 151.733 38.5291H45.5415V13.5698Z" stroke="#0A233C" stroke-width="1.5"/>
</g>
<g filter="url(#filter1_d_333_2472)">
<path d="M12.8136 8.42229C14.1687 5.71202 16.9388 4 19.969 4H37.6423C40.6725 4 43.4426 5.71202 44.7977 8.42229L51.8224 22.4718C52.9486 24.724 52.9486 27.375 51.8224 29.6272L44.7977 43.6766C43.4426 46.3869 40.6725 48.0989 37.6423 48.0989H19.969C16.9388 48.0989 14.1687 46.3869 12.8136 43.6766L5.78886 29.6272C4.66275 27.375 4.66274 24.724 5.78885 22.4718L12.8136 8.42229Z" fill="#030D1C"/>
<path d="M14.1552 9.09311C15.2563 6.89102 17.507 5.5 19.969 5.5H37.6423C40.1043 5.5 42.355 6.89102 43.4561 9.09311L50.4808 23.1426C51.3958 24.9725 51.3958 27.1264 50.4808 28.9564L43.4561 43.0058C42.355 45.2079 40.1043 46.5989 37.6423 46.5989H19.969C17.507 46.5989 15.2563 45.2079 14.1552 43.0058L7.1305 28.9564C6.21553 27.1264 6.21553 24.9725 7.1305 23.1426L14.1552 9.09311Z" stroke="#273440" stroke-width="3"/>
</g>
<path d="M34.976 13C30.546 13 26.976 16.57 26.976 21C26.976 21.235 27.013 21.553 27.039 21.844L18.476 30.406C18.0082 30.8708 17.637 31.4234 17.3837 32.0321C17.1304 32.6409 17 33.2937 17 33.953C17 34.6124 17.1304 35.2652 17.3837 35.874C17.637 36.4827 18.0082 37.0353 18.476 37.5C18.9407 37.9678 19.4933 38.339 20.1021 38.5923C20.7108 38.8456 21.3636 38.976 22.023 38.976C22.6823 38.976 23.3351 38.8456 23.9439 38.5923C24.5526 38.339 25.1053 37.9678 25.57 37.5L34.132 28.937C34.422 28.963 34.742 29 34.976 29C39.406 29 42.976 25.43 42.976 21C42.9812 19.711 42.6585 18.4419 42.038 17.312L41.413 16.156L40.476 17.094L36.163 21.374L34.601 19.8121L38.881 15.5L39.821 14.562L38.664 13.937C37.5337 13.3178 36.2648 12.9954 34.976 13ZM34.976 15C35.462 15 35.824 15.2101 36.256 15.3131L32.476 19.0931L31.756 19.813L32.476 20.5001L35.476 23.5L36.164 24.22L36.882 23.5L40.664 19.7201C40.767 20.1521 40.976 20.514 40.976 21C40.976 24.37 38.346 27 34.976 27C34.576 27 34.256 27 34.006 26.937L33.476 26.781L33.07 27.188L24.163 36.095C22.933 37.325 21.113 37.325 19.883 36.095L19.851 36.063C18.651 34.833 18.661 33.033 19.881 31.813L28.788 22.907L29.195 22.501L29.037 21.971C28.977 21.721 28.975 21.401 28.975 21.001C28.975 17.6311 31.605 15.001 34.975 15.001L34.976 15Z" fill="#C76C02"/>
<defs>
<filter id="filter0_d_333_2472" x="40.7915" y="10.8198" width="122.863" height="34.4594" filterUnits="userSpaceOnUse" color-interpolation-filters="sRGB">
<feFlood flood-opacity="0" result="BackgroundImageFix"/>
<feColorMatrix in="SourceAlpha" type="matrix" values="0 0 0 0 0 0 0 0 0 0 0 0 0 0 0 0 0 0 127 0" result="hardAlpha"/>
<feOffset dy="2"/>
<feGaussianBlur stdDeviation="2"/>
<feColorMatrix type="matrix" values="0 0 0 0 0 0 0 0 0 0 0 0 0 0 0 0 0 0 0.25 0"/>
<feBlend mode="normal" in2="BackgroundImageFix" result="effect1_dropShadow_333_2472"/>
<feBlend mode="normal" in="SourceGraphic" in2="effect1_dropShadow_333_2472" result="shape"/>
</filter>
<filter id="filter1_d_333_2472" x="0.944275" y="0" width="55.7227" height="52.0989" filterUnits="userSpaceOnUse" color-interpolation-filters="sRGB">
<feFlood flood-opacity="0" result="BackgroundImageFix"/>
<feColorMatrix in="SourceAlpha" type="matrix" values="0 0 0 0 0 0 0 0 0 0 0 0 0 0 0 0 0 0 127 0" result="hardAlpha"/>
<feOffset/>
<feGaussianBlur stdDeviation="2"/>
<feColorMatrix type="matrix" values="0 0 0 0 0 0 0 0 0 0 0 0 0 0 0 0 0 0 0.25 0"/>
<feBlend mode="normal" in2="BackgroundImageFix" result="effect1_dropShadow_333_2472"/>
<feBlend mode="normal" in="SourceGraphic" in2="effect1_dropShadow_333_2472" result="shape"/>
</filter>
</defs>
</svg>
