<svg width="913" height="132" viewBox="0 0 913 132" fill="none" xmlns="http://www.w3.org/2000/svg">
<path d="M231.837 129.5L301.299 0.5H619.701L689.163 129.5H231.837Z" fill="url(#paint0_linear_384_620)" stroke="url(#paint1_linear_384_620)"/>
<mask id="mask0_384_620" style="mask-type:alpha" maskUnits="userSpaceOnUse" x="231" y="0" width="459" height="130">
<path d="M232.674 129L301.597 1H619.403L688.326 129H232.674Z" fill="#08192D" stroke="url(#paint2_linear_384_620)" stroke-width="2"/>
</mask>
<g mask="url(#mask0_384_620)">
<path d="M276.328 192.684L608.668 -139.657" stroke="#295D9B" stroke-opacity="0.04" stroke-width="400" stroke-dasharray="10 12"/>
</g>
<path d="M412.305 89.3839L412.444 89.5H412.625H456.5H500.375H500.556L500.695 89.3839L584.431 19.5H911.5V129.5H1.5V78V19.5H328.569L412.305 89.3839Z" fill="#0C1526" stroke="#0C3358"/>
<path d="M412 89H499.5" stroke="url(#paint3_linear_384_620)"/>
<rect x="1" y="20" width="4" height="109" fill="#0C1526"/>
<rect x="912.506" y="123.001" width="8.1331" height="911.506" transform="rotate(90.0467 912.506 123.001)" fill="#0C1526"/>
<rect x="908" y="20" width="4" height="109" fill="#0C1526"/>
<defs>
<linearGradient id="paint0_linear_384_620" x1="460.5" y1="0" x2="460.5" y2="130" gradientUnits="userSpaceOnUse">
<stop stop-color="#0C2543"/>
<stop offset="1" stop-color="#08192D" stop-opacity="0"/>
</linearGradient>
<linearGradient id="paint1_linear_384_620" x1="231" y1="17.4994" x2="661.5" y2="18.5163" gradientUnits="userSpaceOnUse">
<stop stop-color="#0B2641" stop-opacity="0.4"/>
<stop offset="0.526902" stop-color="#295D9B"/>
<stop offset="1" stop-color="#0B2641" stop-opacity="0.4"/>
</linearGradient>
<linearGradient id="paint2_linear_384_620" x1="231" y1="17.4994" x2="661.5" y2="18.5163" gradientUnits="userSpaceOnUse">
<stop stop-color="#0B2641" stop-opacity="0.4"/>
<stop offset="0.526902" stop-color="#295D9B"/>
<stop offset="1" stop-color="#0B2641" stop-opacity="0.4"/>
</linearGradient>
<linearGradient id="paint3_linear_384_620" x1="404.5" y1="88.4999" x2="500" y2="88.4998" gradientUnits="userSpaceOnUse">
<stop stop-color="#0B2641"/>
<stop offset="0.517345" stop-color="#295D9B"/>
<stop offset="1" stop-color="#0B2641"/>
</linearGradient>
</defs>
</svg>
