<svg width="708" height="449" viewBox="0 0 708 449" fill="none" xmlns="http://www.w3.org/2000/svg">
<path d="M254 1L224 28V65H485V28L455 1H254Z" fill="#0B111F"/>
<path d="M272.606 33.8078L272.756 34H273H355.5H438.5H438.75L438.9 33.8L450.75 18H675.798L707.5 48.7118V432.293L691.793 448H0.5V33.7071L16.2071 18H260.256L272.606 33.8078Z" fill="black" stroke="#113C57"/>
<path d="M678.074 19.5H702L705 22.5V45.5859L678.074 19.5Z" fill="url(#paint0_linear_429_11)"/>
<path d="M697 26.692L694.737 24.4293L694.667 24.3586L694.596 24.4293L693.929 25.0959L693.859 25.1666L693.929 25.2373L696.192 27.5L693.929 29.7627L693.859 29.8334L693.929 29.9041L694.596 30.5707L694.667 30.6414L694.737 30.5707L697 28.308L699.263 30.5707L699.333 30.6414L699.404 30.5707L700.071 29.9041L700.141 29.8334L700.071 29.7627L697.808 27.5L700.071 25.2373L700.141 25.1666L700.071 25.0959L699.404 24.4293L699.333 24.3586L699.263 24.4293L697 26.692Z" fill="#40C5CB" stroke="#40C5CB" stroke-width="0.2"/>
<path d="M474.499 18.55L454.999 1H253.999L234.555 18.5" stroke="#113C57"/>
<path d="M253 17.5H260.5L274.5 35.5H267L253 17.5Z" fill="#40E9F1"/>
<path d="M457.5 17.5H450L436 35.5H443.5L457.5 17.5Z" fill="#40E9F1"/>
<defs>
<linearGradient id="paint0_linear_429_11" x1="703.5" y1="21.5" x2="690" y2="35.5" gradientUnits="userSpaceOnUse">
<stop stop-color="#1E497A"/>
<stop offset="1" stop-color="#0B1E36"/>
</linearGradient>
</defs>
</svg>
