<svg width="335" height="654" viewBox="0 0 335 654" fill="none" xmlns="http://www.w3.org/2000/svg">
<path d="M37.2264 15.2333H104.593L99.0251 26.1143H30.3167L37.2264 15.2333Z" fill="#113C57"/>
<path d="M294.742 15.2333H227.376L232.943 26.1143H301.652L294.742 15.2333Z" fill="#113C57"/>
<path d="M95.4978 26.1143H101.511L116.72 0H111.06L95.4978 26.1143Z" fill="#40E9F1"/>
<path d="M237.986 26.1143H232.403L218.281 0H223.535L237.986 26.1143Z" fill="#40E9F1"/>
<path d="M316 25H332.481L334.547 26.7251V40L316 25Z" fill="url(#paint0_linear_449_624)"/>
<path d="M326.906 28.3352L328.422 29.6002L326.906 30.8652L326.814 30.942L326.906 31.0187L327.365 31.402L327.429 31.4555L327.493 31.402L329.037 30.1137L330.58 31.402L330.644 31.4555L330.708 31.402L331.167 31.0187L331.259 30.942L331.167 30.8652L329.652 29.6002L331.167 28.3352L331.259 28.2584L331.167 28.1816L330.708 27.7984L330.644 27.7449L330.58 27.7984L329.037 29.0866L327.493 27.7984L327.429 27.7449L327.365 27.7984L326.906 28.1816L326.814 28.2584L326.906 28.3352Z" fill="#40C5CB" stroke="#40C5CB" stroke-width="0.2"/>
<path d="M101.5 24.0769H101.785L101.93 23.8322L115.785 0.5H163H218.71L232.066 23.8254L232.21 24.0769H232.5H314.913L334.5 39.2452V637.342L323.526 653H0.5V39.1626L11.468 24.0769H101.5Z" fill="black" stroke="#113C57"/>
<defs>
<linearGradient id="paint0_linear_449_624" x1="333.514" y1="26.15" x2="325.925" y2="35.5773" gradientUnits="userSpaceOnUse">
<stop stop-color="#1E497A"/>
<stop offset="1" stop-color="#0B1E36"/>
</linearGradient>
</defs>
</svg>
