<svg width="120" height="44" viewBox="0 0 120 44" fill="none" xmlns="http://www.w3.org/2000/svg">
<g filter="url(#filter0_d_485_10)">
<path d="M10 11.8L12.6786 10H107.321L110 11.8V31.9L107.321 34H12.6786L10 31.9V11.8Z" fill="#0E2E5E"/>
<path d="M10.5 31.6567V12.0664L12.831 10.5H107.169L109.5 12.0664V31.6567L107.149 33.5H12.8512L10.5 31.6567Z" stroke="#0B52BD"/>
</g>
<g filter="url(#filter1_d_485_10)">
<path d="M38.6318 17.0469H41.9268C42.6742 17.0469 43.3053 17.1608 43.8203 17.3887C44.3398 17.6165 44.734 17.9538 45.0029 18.4004C45.2764 18.8424 45.4131 19.387 45.4131 20.0342C45.4131 20.4899 45.3197 20.9069 45.1328 21.2852C44.9505 21.6589 44.6862 21.9779 44.3398 22.2422C43.998 22.502 43.5879 22.6956 43.1094 22.8232L42.7402 22.9668H39.6436L39.6299 21.8936H41.9678C42.4417 21.8936 42.8359 21.8115 43.1504 21.6475C43.4648 21.4788 43.7018 21.2533 43.8613 20.9707C44.0208 20.6882 44.1006 20.376 44.1006 20.0342C44.1006 19.6514 44.0254 19.3164 43.875 19.0293C43.7246 18.7422 43.4876 18.5212 43.1641 18.3662C42.8451 18.2067 42.4326 18.127 41.9268 18.127H39.9512V27H38.6318V17.0469ZM44.4492 27L42.0293 22.4883L43.4033 22.4814L45.8574 26.918V27H44.4492ZM53.582 25.9268V27H48.3115V25.9268H53.582ZM48.5781 17.0469V27H47.2588V17.0469H48.5781ZM52.8848 21.3262V22.3994H48.3115V21.3262H52.8848ZM53.5137 17.0469V18.127H48.3115V17.0469H53.5137ZM58.8867 23.0967H56.2275V22.0234H58.8867C59.4017 22.0234 59.8187 21.9414 60.1377 21.7773C60.4567 21.6133 60.6891 21.3854 60.835 21.0938C60.9854 20.8021 61.0605 20.4694 61.0605 20.0957C61.0605 19.7539 60.9854 19.4326 60.835 19.1318C60.6891 18.8311 60.4567 18.5895 60.1377 18.4072C59.8187 18.2204 59.4017 18.127 58.8867 18.127H56.5352V27H55.2158V17.0469H58.8867C59.6387 17.0469 60.2744 17.1768 60.7939 17.4365C61.3135 17.6963 61.7077 18.0563 61.9766 18.5166C62.2454 18.9723 62.3799 19.4941 62.3799 20.082C62.3799 20.7201 62.2454 21.2646 61.9766 21.7158C61.7077 22.167 61.3135 22.5111 60.7939 22.748C60.2744 22.9805 59.6387 23.0967 58.8867 23.0967ZM66.7891 17.9287L63.4941 27H62.1475L65.9414 17.0469H66.8096L66.7891 17.9287ZM69.5508 27L66.249 17.9287L66.2285 17.0469H67.0967L70.9043 27H69.5508ZM69.3799 23.3154V24.3955H63.7881V23.3154H69.3799ZM73.6523 17.0469V27H72.333V17.0469H73.6523ZM76.0518 17.0469H79.3467C80.0941 17.0469 80.7253 17.1608 81.2402 17.3887C81.7598 17.6165 82.154 17.9538 82.4229 18.4004C82.6963 18.8424 82.833 19.387 82.833 20.0342C82.833 20.4899 82.7396 20.9069 82.5527 21.2852C82.3704 21.6589 82.1061 21.9779 81.7598 22.2422C81.418 22.502 81.0078 22.6956 80.5293 22.8232L80.1602 22.9668H77.0635L77.0498 21.8936H79.3877C79.8617 21.8936 80.2559 21.8115 80.5703 21.6475C80.8848 21.4788 81.1217 21.2533 81.2812 20.9707C81.4408 20.6882 81.5205 20.376 81.5205 20.0342C81.5205 19.6514 81.4453 19.3164 81.2949 19.0293C81.1445 18.7422 80.9076 18.5212 80.584 18.3662C80.265 18.2067 79.8525 18.127 79.3467 18.127H77.3711V27H76.0518V17.0469ZM81.8691 27L79.4492 22.4883L80.8232 22.4814L83.2773 26.918V27H81.8691Z" fill="#FBFFFF"/>
</g>
<defs>
<filter id="filter0_d_485_10" x="0" y="0" width="120" height="44" filterUnits="userSpaceOnUse" color-interpolation-filters="sRGB">
<feFlood flood-opacity="0" result="BackgroundImageFix"/>
<feColorMatrix in="SourceAlpha" type="matrix" values="0 0 0 0 0 0 0 0 0 0 0 0 0 0 0 0 0 0 127 0" result="hardAlpha"/>
<feOffset/>
<feGaussianBlur stdDeviation="5"/>
<feColorMatrix type="matrix" values="0 0 0 0 0.0431373 0 0 0 0 0.321569 0 0 0 0 0.741176 0 0 0 0.5 0"/>
<feBlend mode="normal" in2="BackgroundImageFix" result="effect1_dropShadow_485_10"/>
<feBlend mode="normal" in="SourceGraphic" in2="effect1_dropShadow_485_10" result="shape"/>
</filter>
<filter id="filter1_d_485_10" x="36.6318" y="17.0469" width="52.6455" height="17.9531" filterUnits="userSpaceOnUse" color-interpolation-filters="sRGB">
<feFlood flood-opacity="0" result="BackgroundImageFix"/>
<feColorMatrix in="SourceAlpha" type="matrix" values="0 0 0 0 0 0 0 0 0 0 0 0 0 0 0 0 0 0 127 0" result="hardAlpha"/>
<feOffset dx="2" dy="4"/>
<feGaussianBlur stdDeviation="2"/>
<feColorMatrix type="matrix" values="0 0 0 0 0 0 0 0 0 0 0 0 0 0 0 0 0 0 0.24 0"/>
<feBlend mode="normal" in2="BackgroundImageFix" result="effect1_dropShadow_485_10"/>
<feBlend mode="normal" in="SourceGraphic" in2="effect1_dropShadow_485_10" result="shape"/>
</filter>
</defs>
</svg>
