<svg width="112" height="26" viewBox="0 0 112 26" fill="none" xmlns="http://www.w3.org/2000/svg">
<path d="M0 1.8L3 0H109L112 1.8V21.9L109 24H3L0 21.9V1.8Z" fill="#030D1C"/>
<g filter="url(#filter0_d_464_10)">
<path d="M34.6318 7.18976H37.9268C38.6742 7.18976 39.3053 7.30369 39.8203 7.53156C40.3398 7.75942 40.734 8.09666 41.0029 8.54327C41.2764 8.98533 41.4131 9.52993 41.4131 10.1771C41.4131 10.6328 41.3197 11.0498 41.1328 11.428C40.9505 11.8017 40.6862 12.1207 40.3398 12.3851C39.998 12.6448 39.5879 12.8385 39.1094 12.9661L38.7402 13.1097H35.6436L35.6299 12.0364H37.9678C38.4417 12.0364 38.8359 11.9544 39.1504 11.7903C39.4648 11.6217 39.7018 11.3961 39.8613 11.1136C40.0208 10.831 40.1006 10.5189 40.1006 10.1771C40.1006 9.79425 40.0254 9.45929 39.875 9.17218C39.7246 8.88507 39.4876 8.66404 39.1641 8.50909C38.8451 8.34959 38.4326 8.26984 37.9268 8.26984H35.9512V17.1429H34.6318V7.18976ZM40.4492 17.1429L38.0293 12.6312L39.4033 12.6243L41.8574 17.0609V17.1429H40.4492ZM49.582 16.0696V17.1429H44.3115V16.0696H49.582ZM44.5781 7.18976V17.1429H43.2588V7.18976H44.5781ZM48.8848 11.4691V12.5423H44.3115V11.4691H48.8848ZM49.5137 7.18976V8.26984H44.3115V7.18976H49.5137ZM54.8867 13.2396H52.2275V12.1663H54.8867C55.4017 12.1663 55.8187 12.0843 56.1377 11.9202C56.4567 11.7562 56.6891 11.5283 56.835 11.2366C56.9854 10.945 57.0605 10.6123 57.0605 10.2386C57.0605 9.89679 56.9854 9.5755 56.835 9.27472C56.6891 8.97394 56.4567 8.7324 56.1377 8.55011C55.8187 8.36326 55.4017 8.26984 54.8867 8.26984H52.5352V17.1429H51.2158V7.18976H54.8867C55.6387 7.18976 56.2744 7.31964 56.7939 7.57941C57.3135 7.83917 57.7077 8.1992 57.9766 8.65948C58.2454 9.11521 58.3799 9.63702 58.3799 10.2249C58.3799 10.8629 58.2454 11.4075 57.9766 11.8587C57.7077 12.3099 57.3135 12.654 56.7939 12.8909C56.2744 13.1234 55.6387 13.2396 54.8867 13.2396ZM62.7891 8.07159L59.4941 17.1429H58.1475L61.9414 7.18976H62.8096L62.7891 8.07159ZM65.5508 17.1429L62.249 8.07159L62.2285 7.18976H63.0967L66.9043 17.1429H65.5508ZM65.3799 13.4583V14.5384H59.7881V13.4583H65.3799ZM69.6523 7.18976V17.1429H68.333V7.18976H69.6523ZM72.0518 7.18976H75.3467C76.0941 7.18976 76.7253 7.30369 77.2402 7.53156C77.7598 7.75942 78.154 8.09666 78.4229 8.54327C78.6963 8.98533 78.833 9.52993 78.833 10.1771C78.833 10.6328 78.7396 11.0498 78.5527 11.428C78.3704 11.8017 78.1061 12.1207 77.7598 12.3851C77.418 12.6448 77.0078 12.8385 76.5293 12.9661L76.1602 13.1097H73.0635L73.0498 12.0364H75.3877C75.8617 12.0364 76.2559 11.9544 76.5703 11.7903C76.8848 11.6217 77.1217 11.3961 77.2812 11.1136C77.4408 10.831 77.5205 10.5189 77.5205 10.1771C77.5205 9.79425 77.4453 9.45929 77.2949 9.17218C77.1445 8.88507 76.9076 8.66404 76.584 8.50909C76.265 8.34959 75.8525 8.26984 75.3467 8.26984H73.3711V17.1429H72.0518V7.18976ZM77.8691 17.1429L75.4492 12.6312L76.8232 12.6243L79.2773 17.0609V17.1429H77.8691Z" fill="#FBFFFF" fill-opacity="0.16"/>
</g>
<defs>
<filter id="filter0_d_464_10" x="32.6318" y="7.18976" width="52.6455" height="17.9531" filterUnits="userSpaceOnUse" color-interpolation-filters="sRGB">
<feFlood flood-opacity="0" result="BackgroundImageFix"/>
<feColorMatrix in="SourceAlpha" type="matrix" values="0 0 0 0 0 0 0 0 0 0 0 0 0 0 0 0 0 0 127 0" result="hardAlpha"/>
<feOffset dx="2" dy="4"/>
<feGaussianBlur stdDeviation="2"/>
<feColorMatrix type="matrix" values="0 0 0 0 0 0 0 0 0 0 0 0 0 0 0 0 0 0 0.24 0"/>
<feBlend mode="normal" in2="BackgroundImageFix" result="effect1_dropShadow_464_10"/>
<feBlend mode="normal" in="SourceGraphic" in2="effect1_dropShadow_464_10" result="shape"/>
</filter>
</defs>
</svg>
