<svg width="120" height="44" viewBox="0 0 120 44" fill="none" xmlns="http://www.w3.org/2000/svg">
<g filter="url(#filter0_d_469_13)">
<path d="M10 11.8L12.6786 10H107.321L110 11.8V31.9L107.321 34H12.6786L10 31.9V11.8Z" fill="#0E2E5E"/>
<path d="M10.5 31.6567V12.0664L12.831 10.5H107.169L109.5 12.0664V31.6567L107.149 33.5H12.8512L10.5 31.6567Z" stroke="#0B52BD"/>
</g>
<g filter="url(#filter1_d_469_13)">
<path d="M35.6299 17.0469H38.9248C39.6722 17.0469 40.3034 17.1608 40.8184 17.3887C41.3379 17.6165 41.7321 17.9538 42.001 18.4004C42.2744 18.8424 42.4111 19.387 42.4111 20.0342C42.4111 20.4899 42.3177 20.9069 42.1309 21.2852C41.9486 21.6589 41.6842 21.9779 41.3379 22.2422C40.9961 22.502 40.5859 22.6956 40.1074 22.8232L39.7383 22.9668H36.6416L36.6279 21.8936H38.9658C39.4398 21.8936 39.834 21.8115 40.1484 21.6475C40.4629 21.4788 40.6999 21.2533 40.8594 20.9707C41.0189 20.6882 41.0986 20.376 41.0986 20.0342C41.0986 19.6514 41.0234 19.3164 40.873 19.0293C40.7227 18.7422 40.4857 18.5212 40.1621 18.3662C39.8431 18.2067 39.4307 18.127 38.9248 18.127H36.9492V27H35.6299V17.0469ZM41.4473 27L39.0273 22.4883L40.4014 22.4814L42.8555 26.918V27H41.4473ZM50.5801 25.9268V27H45.3096V25.9268H50.5801ZM45.5762 17.0469V27H44.2568V17.0469H45.5762ZM49.8828 21.3262V22.3994H45.3096V21.3262H49.8828ZM50.5117 17.0469V18.127H45.3096V17.0469H50.5117ZM57.5186 24.4844C57.5186 24.252 57.4821 24.0469 57.4092 23.8691C57.3408 23.6868 57.2178 23.5228 57.04 23.377C56.8669 23.2311 56.6253 23.0921 56.3154 22.96C56.0101 22.8278 55.6227 22.6934 55.1533 22.5566C54.6611 22.4108 54.2168 22.249 53.8203 22.0713C53.4238 21.889 53.0843 21.6816 52.8018 21.4492C52.5192 21.2168 52.3027 20.9502 52.1523 20.6494C52.002 20.3486 51.9268 20.0046 51.9268 19.6172C51.9268 19.2298 52.0065 18.8721 52.166 18.5439C52.3255 18.2158 52.5534 17.931 52.8496 17.6895C53.1504 17.4434 53.5081 17.252 53.9229 17.1152C54.3376 16.9785 54.8001 16.9102 55.3105 16.9102C56.0579 16.9102 56.6914 17.0537 57.2109 17.3408C57.735 17.6234 58.1338 17.9948 58.4072 18.4551C58.6807 18.9108 58.8174 19.3984 58.8174 19.918H57.5049C57.5049 19.5443 57.4251 19.2139 57.2656 18.9268C57.1061 18.6351 56.8646 18.4072 56.541 18.2432C56.2174 18.0745 55.8073 17.9902 55.3105 17.9902C54.8411 17.9902 54.4538 18.0609 54.1484 18.2021C53.8431 18.3434 53.6152 18.5348 53.4648 18.7764C53.319 19.0179 53.2461 19.2936 53.2461 19.6035C53.2461 19.8132 53.2894 20.0046 53.376 20.1777C53.4671 20.3464 53.6061 20.5036 53.793 20.6494C53.9844 20.7952 54.2259 20.9297 54.5176 21.0527C54.8138 21.1758 55.167 21.2943 55.5771 21.4082C56.1423 21.5677 56.6299 21.7454 57.04 21.9414C57.4502 22.1374 57.7874 22.3584 58.0518 22.6045C58.3206 22.846 58.5189 23.1217 58.6465 23.4316C58.7786 23.737 58.8447 24.0833 58.8447 24.4707C58.8447 24.8763 58.7627 25.2432 58.5986 25.5713C58.4346 25.8994 58.1999 26.1797 57.8945 26.4121C57.5892 26.6445 57.2223 26.8245 56.7939 26.9521C56.3701 27.0752 55.8962 27.1367 55.3721 27.1367C54.9118 27.1367 54.4583 27.0729 54.0117 26.9453C53.5697 26.8177 53.1663 26.6263 52.8018 26.3711C52.4417 26.1159 52.1523 25.8014 51.9336 25.4277C51.7194 25.0495 51.6123 24.612 51.6123 24.1152H52.9248C52.9248 24.457 52.9909 24.751 53.123 24.9971C53.2552 25.2386 53.4352 25.4391 53.6631 25.5986C53.8955 25.7581 54.1576 25.8766 54.4492 25.9541C54.7454 26.027 55.0531 26.0635 55.3721 26.0635C55.8324 26.0635 56.222 25.9997 56.541 25.8721C56.86 25.7445 57.1016 25.5622 57.2656 25.3252C57.4342 25.0882 57.5186 24.8079 57.5186 24.4844ZM66.5352 23.835H67.8477C67.7793 24.4639 67.5993 25.0267 67.3076 25.5234C67.016 26.0202 66.6035 26.4144 66.0703 26.7061C65.5371 26.9932 64.8717 27.1367 64.0742 27.1367C63.4909 27.1367 62.96 27.0273 62.4814 26.8086C62.0075 26.5898 61.5996 26.2799 61.2578 25.8789C60.916 25.4733 60.6517 24.988 60.4648 24.4229C60.2826 23.8532 60.1914 23.2197 60.1914 22.5225V21.5312C60.1914 20.834 60.2826 20.2028 60.4648 19.6377C60.6517 19.068 60.9183 18.5804 61.2646 18.1748C61.6156 17.7692 62.0371 17.457 62.5293 17.2383C63.0215 17.0195 63.5752 16.9102 64.1904 16.9102C64.9424 16.9102 65.5781 17.0514 66.0977 17.334C66.6172 17.6165 67.0205 18.0085 67.3076 18.5098C67.5993 19.0065 67.7793 19.583 67.8477 20.2393H66.5352C66.4714 19.7744 66.3529 19.3757 66.1797 19.043C66.0065 18.7057 65.7604 18.446 65.4414 18.2637C65.1224 18.0814 64.7054 17.9902 64.1904 17.9902C63.7484 17.9902 63.3587 18.0745 63.0215 18.2432C62.6888 18.4118 62.4085 18.651 62.1807 18.9609C61.9574 19.2708 61.7887 19.6423 61.6748 20.0752C61.5609 20.5081 61.5039 20.9889 61.5039 21.5176V22.5225C61.5039 23.0101 61.554 23.4681 61.6543 23.8965C61.7591 24.3249 61.9163 24.7008 62.126 25.0244C62.3356 25.348 62.6022 25.6032 62.9258 25.79C63.2493 25.9723 63.6322 26.0635 64.0742 26.0635C64.6348 26.0635 65.0814 25.9746 65.4141 25.7969C65.7467 25.6191 65.9974 25.3639 66.166 25.0312C66.3392 24.6986 66.4622 24.2998 66.5352 23.835ZM75.3398 17.0469H76.6523V23.7803C76.6523 24.5277 76.486 25.1497 76.1533 25.6465C75.8206 26.1432 75.3786 26.5169 74.8271 26.7676C74.2803 27.0137 73.6855 27.1367 73.043 27.1367C72.3685 27.1367 71.7578 27.0137 71.2109 26.7676C70.6686 26.5169 70.238 26.1432 69.9189 25.6465C69.6045 25.1497 69.4473 24.5277 69.4473 23.7803V17.0469H70.7529V23.7803C70.7529 24.2998 70.8486 24.7282 71.04 25.0654C71.2314 25.4027 71.498 25.6533 71.8398 25.8174C72.1862 25.9814 72.5872 26.0635 73.043 26.0635C73.5033 26.0635 73.9043 25.9814 74.2461 25.8174C74.5924 25.6533 74.8613 25.4027 75.0527 25.0654C75.2441 24.7282 75.3398 24.2998 75.3398 23.7803V17.0469ZM85.0469 25.9268V27H79.7764V25.9268H85.0469ZM80.043 17.0469V27H78.7236V17.0469H80.043ZM84.3496 21.3262V22.3994H79.7764V21.3262H84.3496ZM84.9785 17.0469V18.127H79.7764V17.0469H84.9785Z" fill="#FBFFFF"/>
</g>
<defs>
<filter id="filter0_d_469_13" x="0" y="0" width="120" height="44" filterUnits="userSpaceOnUse" color-interpolation-filters="sRGB">
<feFlood flood-opacity="0" result="BackgroundImageFix"/>
<feColorMatrix in="SourceAlpha" type="matrix" values="0 0 0 0 0 0 0 0 0 0 0 0 0 0 0 0 0 0 127 0" result="hardAlpha"/>
<feOffset/>
<feGaussianBlur stdDeviation="5"/>
<feColorMatrix type="matrix" values="0 0 0 0 0.0431373 0 0 0 0 0.321569 0 0 0 0 0.741176 0 0 0 0.5 0"/>
<feBlend mode="normal" in2="BackgroundImageFix" result="effect1_dropShadow_469_13"/>
<feBlend mode="normal" in="SourceGraphic" in2="effect1_dropShadow_469_13" result="shape"/>
</filter>
<filter id="filter1_d_469_13" x="33.6299" y="16.9102" width="57.417" height="18.2266" filterUnits="userSpaceOnUse" color-interpolation-filters="sRGB">
<feFlood flood-opacity="0" result="BackgroundImageFix"/>
<feColorMatrix in="SourceAlpha" type="matrix" values="0 0 0 0 0 0 0 0 0 0 0 0 0 0 0 0 0 0 127 0" result="hardAlpha"/>
<feOffset dx="2" dy="4"/>
<feGaussianBlur stdDeviation="2"/>
<feColorMatrix type="matrix" values="0 0 0 0 0 0 0 0 0 0 0 0 0 0 0 0 0 0 0.24 0"/>
<feBlend mode="normal" in2="BackgroundImageFix" result="effect1_dropShadow_469_13"/>
<feBlend mode="normal" in="SourceGraphic" in2="effect1_dropShadow_469_13" result="shape"/>
</filter>
</defs>
</svg>
