<svg width="112" height="26" viewBox="0 0 112 26" fill="none" xmlns="http://www.w3.org/2000/svg">
<path d="M0 1.8L3 0H109L112 1.8V21.9L109 24H3L0 21.9V1.8Z" fill="#030D1C"/>
<g filter="url(#filter0_d_464_11)">
<path d="M32.1299 7.18976H35.4248C36.1722 7.18976 36.8034 7.30369 37.3184 7.53156C37.8379 7.75942 38.2321 8.09666 38.501 8.54327C38.7744 8.98533 38.9111 9.52993 38.9111 10.1771C38.9111 10.6328 38.8177 11.0498 38.6309 11.428C38.4486 11.8017 38.1842 12.1207 37.8379 12.3851C37.4961 12.6448 37.0859 12.8385 36.6074 12.9661L36.2383 13.1097H33.1416L33.1279 12.0364H35.4658C35.9398 12.0364 36.334 11.9544 36.6484 11.7903C36.9629 11.6217 37.1999 11.3961 37.3594 11.1136C37.5189 10.831 37.5986 10.5189 37.5986 10.1771C37.5986 9.79425 37.5234 9.45929 37.373 9.17218C37.2227 8.88507 36.9857 8.66404 36.6621 8.50909C36.3431 8.34959 35.9307 8.26984 35.4248 8.26984H33.4492V17.1429H32.1299V7.18976ZM37.9473 17.1429L35.5273 12.6312L36.9014 12.6243L39.3555 17.0609V17.1429H37.9473ZM47.0801 16.0696V17.1429H41.8096V16.0696H47.0801ZM42.0762 7.18976V17.1429H40.7568V7.18976H42.0762ZM46.3828 11.4691V12.5423H41.8096V11.4691H46.3828ZM47.0117 7.18976V8.26984H41.8096V7.18976H47.0117ZM54.0186 14.6273C54.0186 14.3948 53.9821 14.1898 53.9092 14.012C53.8408 13.8297 53.7178 13.6657 53.54 13.5198C53.3669 13.374 53.1253 13.235 52.8154 13.1028C52.5101 12.9707 52.1227 12.8362 51.6533 12.6995C51.1611 12.5537 50.7168 12.3919 50.3203 12.2142C49.9238 12.0319 49.5843 11.8245 49.3018 11.5921C49.0192 11.3597 48.8027 11.0931 48.6523 10.7923C48.502 10.4915 48.4268 10.1474 48.4268 9.76007C48.4268 9.3727 48.5065 9.01495 48.666 8.68683C48.8255 8.3587 49.0534 8.07387 49.3496 7.83234C49.6504 7.58624 50.0081 7.39484 50.4229 7.25812C50.8376 7.1214 51.3001 7.05304 51.8105 7.05304C52.5579 7.05304 53.1914 7.19659 53.7109 7.4837C54.235 7.76626 54.6338 8.13767 54.9072 8.59796C55.1807 9.05369 55.3174 9.54132 55.3174 10.0609H54.0049C54.0049 9.68715 53.9251 9.35675 53.7656 9.06964C53.6061 8.77797 53.3646 8.55011 53.041 8.38605C52.7174 8.21743 52.3073 8.13312 51.8105 8.13312C51.3411 8.13312 50.9538 8.20376 50.6484 8.34503C50.3431 8.48631 50.1152 8.67771 49.9648 8.91925C49.819 9.16079 49.7461 9.4365 49.7461 9.7464C49.7461 9.95603 49.7894 10.1474 49.876 10.3206C49.9671 10.4892 50.1061 10.6465 50.293 10.7923C50.4844 10.9381 50.7259 11.0726 51.0176 11.1956C51.3138 11.3187 51.667 11.4372 52.0771 11.5511C52.6423 11.7106 53.1299 11.8883 53.54 12.0843C53.9502 12.2803 54.2874 12.5013 54.5518 12.7474C54.8206 12.9889 55.0189 13.2646 55.1465 13.5745C55.2786 13.8799 55.3447 14.2262 55.3447 14.6136C55.3447 15.0192 55.2627 15.386 55.0986 15.7142C54.9346 16.0423 54.6999 16.3226 54.3945 16.555C54.0892 16.7874 53.7223 16.9674 53.2939 17.095C52.8701 17.2181 52.3962 17.2796 51.8721 17.2796C51.4118 17.2796 50.9583 17.2158 50.5117 17.0882C50.0697 16.9606 49.6663 16.7692 49.3018 16.514C48.9417 16.2588 48.6523 15.9443 48.4336 15.5706C48.2194 15.1924 48.1123 14.7549 48.1123 14.2581H49.4248C49.4248 14.5999 49.4909 14.8939 49.623 15.14C49.7552 15.3815 49.9352 15.582 50.1631 15.7415C50.3955 15.901 50.6576 16.0195 50.9492 16.097C51.2454 16.1699 51.5531 16.2064 51.8721 16.2064C52.3324 16.2064 52.722 16.1426 53.041 16.015C53.36 15.8873 53.6016 15.7051 53.7656 15.4681C53.9342 15.2311 54.0186 14.9508 54.0186 14.6273ZM63.0352 13.9778H64.3477C64.2793 14.6068 64.0993 15.1696 63.8076 15.6663C63.516 16.1631 63.1035 16.5573 62.5703 16.8489C62.0371 17.136 61.3717 17.2796 60.5742 17.2796C59.9909 17.2796 59.46 17.1702 58.9814 16.9515C58.5075 16.7327 58.0996 16.4228 57.7578 16.0218C57.416 15.6162 57.1517 15.1308 56.9648 14.5657C56.7826 13.9961 56.6914 13.3626 56.6914 12.6653V11.6741C56.6914 10.9769 56.7826 10.3457 56.9648 9.78058C57.1517 9.21092 57.4183 8.72329 57.7646 8.31769C58.1156 7.91209 58.5371 7.59991 59.0293 7.38116C59.5215 7.16241 60.0752 7.05304 60.6904 7.05304C61.4424 7.05304 62.0781 7.19432 62.5977 7.47687C63.1172 7.75942 63.5205 8.15135 63.8076 8.65265C64.0993 9.14939 64.2793 9.72589 64.3477 10.3821H63.0352C62.9714 9.9173 62.8529 9.51853 62.6797 9.18585C62.5065 8.84861 62.2604 8.58885 61.9414 8.40656C61.6224 8.22426 61.2054 8.13312 60.6904 8.13312C60.2484 8.13312 59.8587 8.21743 59.5215 8.38605C59.1888 8.55467 58.9085 8.79392 58.6807 9.10382C58.4574 9.41372 58.2887 9.78514 58.1748 10.2181C58.0609 10.651 58.0039 11.1318 58.0039 11.6605V12.6653C58.0039 13.153 58.054 13.611 58.1543 14.0394C58.2591 14.4678 58.4163 14.8437 58.626 15.1673C58.8356 15.4909 59.1022 15.7461 59.4258 15.9329C59.7493 16.1152 60.1322 16.2064 60.5742 16.2064C61.1348 16.2064 61.5814 16.1175 61.9141 15.9398C62.2467 15.762 62.4974 15.5068 62.666 15.1741C62.8392 14.8415 62.9622 14.4427 63.0352 13.9778ZM71.8398 7.18976H73.1523V13.9232C73.1523 14.6706 72.986 15.2926 72.6533 15.7894C72.3206 16.2861 71.8786 16.6598 71.3271 16.9105C70.7803 17.1566 70.1855 17.2796 69.543 17.2796C68.8685 17.2796 68.2578 17.1566 67.7109 16.9105C67.1686 16.6598 66.738 16.2861 66.4189 15.7894C66.1045 15.2926 65.9473 14.6706 65.9473 13.9232V7.18976H67.2529V13.9232C67.2529 14.4427 67.3486 14.8711 67.54 15.2083C67.7314 15.5456 67.998 15.7962 68.3398 15.9603C68.6862 16.1243 69.0872 16.2064 69.543 16.2064C70.0033 16.2064 70.4043 16.1243 70.7461 15.9603C71.0924 15.7962 71.3613 15.5456 71.5527 15.2083C71.7441 14.8711 71.8398 14.4427 71.8398 13.9232V7.18976ZM81.5469 16.0696V17.1429H76.2764V16.0696H81.5469ZM76.543 7.18976V17.1429H75.2236V7.18976H76.543ZM80.8496 11.4691V12.5423H76.2764V11.4691H80.8496ZM81.4785 7.18976V8.26984H76.2764V7.18976H81.4785Z" fill="#FBFFFF" fill-opacity="0.16"/>
</g>
<defs>
<filter id="filter0_d_464_11" x="30.1299" y="7.05304" width="57.417" height="18.2266" filterUnits="userSpaceOnUse" color-interpolation-filters="sRGB">
<feFlood flood-opacity="0" result="BackgroundImageFix"/>
<feColorMatrix in="SourceAlpha" type="matrix" values="0 0 0 0 0 0 0 0 0 0 0 0 0 0 0 0 0 0 127 0" result="hardAlpha"/>
<feOffset dx="2" dy="4"/>
<feGaussianBlur stdDeviation="2"/>
<feColorMatrix type="matrix" values="0 0 0 0 0 0 0 0 0 0 0 0 0 0 0 0 0 0 0.24 0"/>
<feBlend mode="normal" in2="BackgroundImageFix" result="effect1_dropShadow_464_11"/>
<feBlend mode="normal" in="SourceGraphic" in2="effect1_dropShadow_464_11" result="shape"/>
</filter>
</defs>
</svg>
