<svg width="460" height="112" viewBox="0 0 460 112" fill="none" xmlns="http://www.w3.org/2000/svg">
<g filter="url(#filter0_f_367_545)">
<ellipse cx="230" cy="56" rx="210" ry="7" fill="#2055A4"/>
</g>
<path d="M5.25 70.5312V37.8828C5.25 37.5547 5.40625 37.3906 5.71875 37.3906H9.09375C9.40625 37.3906 9.5625 37.5547 9.5625 37.8828V70.5312C9.5625 70.8438 9.40625 71 9.09375 71H5.71875C5.40625 71 5.25 70.8438 5.25 70.5312ZM19.1719 70.5312V37.8828C19.1719 37.5703 19.3281 37.4062 19.6406 37.3906H23.0156C23.9375 37.3906 24.6562 37.875 25.1719 38.8438L37.5469 62.3984L49.8984 38.8438C50.4141 37.8906 51.1328 37.4062 52.0547 37.3906H55.4062C55.7188 37.3906 55.8828 37.5547 55.8984 37.8828V70.5312C55.8984 70.8438 55.7344 71 55.4062 71H52.0547C51.7422 71 51.5781 70.8438 51.5625 70.5312V44.6094L40.5234 65.4688C40.0078 66.4219 39.2891 66.9062 38.3672 66.9219H36.6797C35.7578 66.9219 35.0391 66.4375 34.5234 65.4688L23.4844 44.6094V70.5312C23.4844 70.8438 23.3281 71 23.0156 71H19.6406C19.3281 71 19.1719 70.8438 19.1719 70.5312ZM65.4844 70.5312V37.8828C65.4844 37.5703 65.6406 37.4062 65.9531 37.3906H79.875C83.875 37.3906 86.9531 38.3516 89.1094 40.2734C91.2812 42.1953 92.3672 45 92.3672 48.6875C92.3672 52.3594 91.2812 55.1562 89.1094 57.0781C86.9531 59 83.875 59.9609 79.875 59.9609H69.7969V70.5312C69.7969 70.8438 69.6406 71 69.3281 71H65.9531C65.6406 71 65.4844 70.8438 65.4844 70.5312ZM69.7969 56.6094H79.875C82.4062 56.6094 84.3984 55.9531 85.8516 54.6406C87.3047 53.3281 88.0312 51.3438 88.0312 48.6875C88.0312 46.0312 87.3047 44.0469 85.8516 42.7344C84.3984 41.4219 82.4062 40.7656 79.875 40.7656H69.7969V56.6094ZM99.5625 70.5312V37.8828C99.5625 37.5547 99.7188 37.3906 100.031 37.3906H123.281C123.594 37.3906 123.75 37.5547 123.75 37.8828V40.2734C123.75 40.6016 123.594 40.7656 123.281 40.7656H103.875V52.2734H119.906C120.234 52.2734 120.398 52.4375 120.398 52.7656V55.1562C120.398 55.4844 120.234 55.6484 119.906 55.6484H103.875V67.6484H123.281C123.594 67.6484 123.75 67.8047 123.75 68.1172V70.5312C123.75 70.8438 123.594 71 123.281 71H100.031C99.7188 71 99.5625 70.8438 99.5625 70.5312ZM130.5 70.5312V37.8828C130.5 37.5703 130.656 37.4062 130.969 37.3906H144.422C148.359 37.3906 151.422 38.2969 153.609 40.1094C155.797 41.9219 156.891 44.4609 156.891 47.7266C156.891 50.0703 156.047 52.0938 154.359 53.7969C152.688 55.5 150.336 56.5938 147.305 57.0781C148.195 57.2969 149 57.6875 149.719 58.25C150.438 58.8125 150.953 59.3047 151.266 59.7266C151.594 60.1328 152.031 60.7734 152.578 61.6484L158.344 70.4141C158.422 70.5391 158.461 70.6719 158.461 70.8125C158.461 70.9375 158.289 71 157.945 71H154.008C153.758 71 153.523 70.8438 153.305 70.5312L147.539 61.6484C146.008 59.2422 143.766 58.0391 140.812 58.0391H134.812V70.5312C134.812 70.8438 134.656 71 134.344 71H130.969C130.656 71 130.5 70.8438 130.5 70.5312ZM134.812 54.6875H144.422C146.891 54.6875 148.867 54.0859 150.352 52.8828C151.836 51.6797 152.578 49.9609 152.578 47.7266C152.578 45.4766 151.828 43.7578 150.328 42.5703C148.844 41.3672 146.875 40.7656 144.422 40.7656H134.812V54.6875ZM164.719 70.5312V37.8828C164.719 37.5547 164.875 37.3906 165.188 37.3906H168.562C168.875 37.3906 169.031 37.5547 169.031 37.8828V70.5312C169.031 70.8438 168.875 71 168.562 71H165.188C164.875 71 164.719 70.8438 164.719 70.5312ZM178.148 57.5703V37.8828C178.148 37.5703 178.312 37.4062 178.641 37.3906H181.992C182.305 37.3906 182.469 37.5547 182.484 37.8828V57.5703C182.484 61.1172 183.375 63.8047 185.156 65.6328C186.953 67.4453 189.258 68.3516 192.07 68.3516C194.883 68.3516 197.188 67.4453 198.984 65.6328C200.781 63.8047 201.68 61.1172 201.68 57.5703V37.8828C201.68 37.5703 201.836 37.4062 202.148 37.3906H205.523C205.836 37.3906 205.992 37.5547 205.992 37.8828V57.5703C205.992 61.9609 204.711 65.4219 202.148 67.9531C199.586 70.4688 196.227 71.7266 192.07 71.7266C187.914 71.7266 184.555 70.4688 181.992 67.9531C179.43 65.4219 178.148 61.9609 178.148 57.5703ZM215.109 70.5312V37.8828C215.109 37.5703 215.266 37.4062 215.578 37.3906H218.953C219.875 37.3906 220.594 37.875 221.109 38.8438L233.484 62.3984L245.836 38.8438C246.352 37.8906 247.07 37.4062 247.992 37.3906H251.344C251.656 37.3906 251.82 37.5547 251.836 37.8828V70.5312C251.836 70.8438 251.672 71 251.344 71H247.992C247.68 71 247.516 70.8438 247.5 70.5312V44.6094L236.461 65.4688C235.945 66.4219 235.227 66.9062 234.305 66.9219H232.617C231.695 66.9219 230.977 66.4375 230.461 65.4688L219.422 44.6094V70.5312C219.422 70.8438 219.266 71 218.953 71H215.578C215.266 71 215.109 70.8438 215.109 70.5312ZM271.969 40.2734V37.8828C271.969 37.5703 272.125 37.4062 272.438 37.3906H299.812C300.125 37.3906 300.281 37.5547 300.281 37.8828V40.2734C300.281 40.5859 300.125 40.75 299.812 40.7656H288.047V70.5312C288.047 70.8438 287.891 71 287.578 71H284.203C283.891 71 283.734 70.8438 283.734 70.5312V40.7656H272.438C272.125 40.75 271.969 40.5859 271.969 40.2734ZM306.047 70.5312V37.8828C306.047 37.5703 306.203 37.4062 306.516 37.3906H319.969C323.906 37.3906 326.969 38.2969 329.156 40.1094C331.344 41.9219 332.438 44.4609 332.438 47.7266C332.438 50.0703 331.594 52.0938 329.906 53.7969C328.234 55.5 325.883 56.5938 322.852 57.0781C323.742 57.2969 324.547 57.6875 325.266 58.25C325.984 58.8125 326.5 59.3047 326.812 59.7266C327.141 60.1328 327.578 60.7734 328.125 61.6484L333.891 70.4141C333.969 70.5391 334.008 70.6719 334.008 70.8125C334.008 70.9375 333.836 71 333.492 71H329.555C329.305 71 329.07 70.8438 328.852 70.5312L323.086 61.6484C321.555 59.2422 319.312 58.0391 316.359 58.0391H310.359V70.5312C310.359 70.8438 310.203 71 309.891 71H306.516C306.203 71 306.047 70.8438 306.047 70.5312ZM310.359 54.6875H319.969C322.438 54.6875 324.414 54.0859 325.898 52.8828C327.383 51.6797 328.125 49.9609 328.125 47.7266C328.125 45.4766 327.375 43.7578 325.875 42.5703C324.391 41.3672 322.422 40.7656 319.969 40.7656H310.359V54.6875ZM339.773 57.5703V37.8828C339.773 37.5703 339.938 37.4062 340.266 37.3906H343.617C343.93 37.3906 344.094 37.5547 344.109 37.8828V57.5703C344.109 61.1172 345 63.8047 346.781 65.6328C348.578 67.4453 350.883 68.3516 353.695 68.3516C356.508 68.3516 358.812 67.4453 360.609 65.6328C362.406 63.8047 363.305 61.1172 363.305 57.5703V37.8828C363.305 37.5703 363.461 37.4062 363.773 37.3906H367.148C367.461 37.3906 367.617 37.5547 367.617 37.8828V57.5703C367.617 61.9609 366.336 65.4219 363.773 67.9531C361.211 70.4688 357.852 71.7266 353.695 71.7266C349.539 71.7266 346.18 70.4688 343.617 67.9531C341.055 65.4219 339.773 61.9609 339.773 57.5703ZM390.656 71.7266C385.953 71.7266 382.133 70.1797 379.195 67.0859C376.273 63.9922 374.812 59.7031 374.812 54.2188C374.812 48.7344 376.266 44.4453 379.172 41.3516C382.094 38.2422 385.836 36.6875 390.398 36.6875C394.336 36.6875 397.531 37.5391 399.984 39.2422C402.438 40.9297 403.969 43.3203 404.578 46.4141C404.641 46.8047 404.477 47 404.086 47H401.062C400.781 47 400.594 46.8438 400.5 46.5312C399.156 42.2188 395.789 40.0547 390.398 40.0391C387.164 40.0391 384.477 41.2344 382.336 43.625C380.195 46 379.125 49.5234 379.125 54.1953C379.125 58.8672 380.203 62.3984 382.359 64.7891C384.531 67.1641 387.297 68.3516 390.656 68.3516C396.031 68.3516 399.391 66.1953 400.734 61.8828C400.828 61.5703 401.016 61.4062 401.297 61.3906H404.32C404.648 61.3906 404.812 61.5312 404.812 61.8125C404.812 63.2031 404.352 64.5625 403.43 65.8906C400.758 69.7812 396.5 71.7266 390.656 71.7266ZM412.078 70.5312V37.8828C412.078 37.5703 412.234 37.4062 412.547 37.3906H415.922C416.234 37.3906 416.391 37.5547 416.391 37.8828V52.5312H420C422.875 52.5312 425.109 51.3281 426.703 48.9219L433.922 37.8828C434.141 37.5703 434.375 37.4062 434.625 37.3906H438.562C439.078 37.3906 439.211 37.5859 438.961 37.9766L431.508 49.3906C429.648 52.2344 427.727 53.8359 425.742 54.1953C428.039 54.5547 430.125 56.1562 432 59L439.43 70.4141C439.508 70.5391 439.547 70.6719 439.547 70.8125C439.562 70.9375 439.398 71 439.055 71H435.117C434.867 71 434.625 70.8438 434.391 70.5312L427.195 59.4688C425.602 57.0625 423.359 55.8672 420.469 55.8828H416.391V70.5312C416.391 70.8438 416.234 71 415.922 71H412.547C412.234 71 412.078 70.8438 412.078 70.5312Z" fill="url(#paint0_linear_367_545)"/>
<path d="M40 5L142.857 3L220 0L297.143 3L400 5H40Z" fill="#04275B"/>
<path d="M37 107L139.857 109L217 112L294.143 109L397 107H37Z" fill="#04275B"/>
<defs>
<filter id="filter0_f_367_545" x="0" y="29" width="460" height="54" filterUnits="userSpaceOnUse" color-interpolation-filters="sRGB">
<feFlood flood-opacity="0" result="BackgroundImageFix"/>
<feBlend mode="normal" in="SourceGraphic" in2="BackgroundImageFix" result="shape"/>
<feGaussianBlur stdDeviation="10" result="effect1_foregroundBlur_367_545"/>
</filter>
<linearGradient id="paint0_linear_367_545" x1="219.899" y1="20.4444" x2="220.228" y2="84.0014" gradientUnits="userSpaceOnUse">
<stop stop-color="#0B52BD"/>
<stop offset="0.679876" stop-color="#EFF5FF"/>
</linearGradient>
</defs>
</svg>
