<svg width="120" height="44" viewBox="0 0 120 44" fill="none" xmlns="http://www.w3.org/2000/svg">
<g filter="url(#filter0_d_485_10)">
<path d="M10 11.8L12.6786 10H107.321L110 11.8V31.9L107.321 34H12.6786L10 31.9V11.8Z" fill="#0E2E5E"/>
<path d="M10.5 31.6567V12.0664L12.831 10.5H107.169L109.5 12.0664V31.6567L107.149 33.5H12.8512L10.5 31.6567Z" stroke="#0B52BD"/>
</g>
<g filter="url(#filter1_d_485_10)">
<path d="M38.0361 17.0469V27H36.7373V17.0469H38.0361ZM41.2354 17.0469V18.127H33.5449V17.0469H41.2354ZM50.1836 21.709V22.3379C50.1836 23.0853 50.0902 23.7552 49.9033 24.3477C49.7165 24.9401 49.4476 25.4437 49.0967 25.8584C48.7458 26.2731 48.3242 26.5898 47.832 26.8086C47.3444 27.0273 46.7975 27.1367 46.1914 27.1367C45.6035 27.1367 45.0635 27.0273 44.5713 26.8086C44.0837 26.5898 43.6598 26.2731 43.2998 25.8584C42.9443 25.4437 42.6686 24.9401 42.4727 24.3477C42.2767 23.7552 42.1787 23.0853 42.1787 22.3379V21.709C42.1787 20.9616 42.2744 20.2939 42.4658 19.7061C42.6618 19.1136 42.9375 18.61 43.293 18.1953C43.6484 17.776 44.07 17.457 44.5576 17.2383C45.0498 17.0195 45.5898 16.9102 46.1777 16.9102C46.7839 16.9102 47.3307 17.0195 47.8184 17.2383C48.3105 17.457 48.7321 17.776 49.083 18.1953C49.4385 18.61 49.7096 19.1136 49.8965 19.7061C50.0879 20.2939 50.1836 20.9616 50.1836 21.709ZM48.8779 22.3379V21.6953C48.8779 21.1029 48.8164 20.5788 48.6934 20.123C48.5749 19.6673 48.3994 19.2845 48.167 18.9746C47.9346 18.6647 47.6497 18.43 47.3125 18.2705C46.9798 18.111 46.6016 18.0312 46.1777 18.0312C45.7676 18.0312 45.3962 18.111 45.0635 18.2705C44.7354 18.43 44.4528 18.6647 44.2158 18.9746C43.9834 19.2845 43.8034 19.6673 43.6758 20.123C43.5482 20.5788 43.4844 21.1029 43.4844 21.6953V22.3379C43.4844 22.9349 43.5482 23.4635 43.6758 23.9238C43.8034 24.3796 43.9857 24.7646 44.2227 25.0791C44.4642 25.389 44.749 25.6237 45.0771 25.7832C45.4098 25.9427 45.7812 26.0225 46.1914 26.0225C46.6198 26.0225 47.0003 25.9427 47.333 25.7832C47.6657 25.6237 47.946 25.389 48.1738 25.0791C48.4062 24.7646 48.5817 24.3796 48.7002 23.9238C48.8187 23.4635 48.8779 22.9349 48.8779 22.3379ZM56.9512 17.0469V27H55.6318V17.0469H56.9512ZM61.1211 21.5244V22.6045H56.6641V21.5244H61.1211ZM61.7979 17.0469V18.127H56.6641V17.0469H61.7979ZM69.0645 17.0469H70.377V23.7803C70.377 24.5277 70.2106 25.1497 69.8779 25.6465C69.5452 26.1432 69.1032 26.5169 68.5518 26.7676C68.0049 27.0137 67.4102 27.1367 66.7676 27.1367C66.0931 27.1367 65.4824 27.0137 64.9355 26.7676C64.3932 26.5169 63.9626 26.1432 63.6436 25.6465C63.3291 25.1497 63.1719 24.5277 63.1719 23.7803V17.0469H64.4775V23.7803C64.4775 24.2998 64.5732 24.7282 64.7646 25.0654C64.9561 25.4027 65.2227 25.6533 65.5645 25.8174C65.9108 25.9814 66.3118 26.0635 66.7676 26.0635C67.2279 26.0635 67.6289 25.9814 67.9707 25.8174C68.3171 25.6533 68.5859 25.4027 68.7773 25.0654C68.9688 24.7282 69.0645 24.2998 69.0645 23.7803V17.0469ZM78.7715 25.9268V27H73.501V25.9268H78.7715ZM73.7676 17.0469V27H72.4482V17.0469H73.7676ZM78.0742 21.3262V22.3994H73.501V21.3262H78.0742ZM78.7031 17.0469V18.127H73.501V17.0469H78.7031ZM86.4414 25.9268V27H81.4648V25.9268H86.4414ZM81.7246 17.0469V27H80.4053V17.0469H81.7246Z" fill="#FBFFFF"/>
</g>
<defs>
<filter id="filter0_d_485_10" x="0" y="0" width="120" height="44" filterUnits="userSpaceOnUse" color-interpolation-filters="sRGB">
<feFlood flood-opacity="0" result="BackgroundImageFix"/>
<feColorMatrix in="SourceAlpha" type="matrix" values="0 0 0 0 0 0 0 0 0 0 0 0 0 0 0 0 0 0 127 0" result="hardAlpha"/>
<feOffset/>
<feGaussianBlur stdDeviation="5"/>
<feColorMatrix type="matrix" values="0 0 0 0 0.0431373 0 0 0 0 0.321569 0 0 0 0 0.741176 0 0 0 0.5 0"/>
<feBlend mode="normal" in2="BackgroundImageFix" result="effect1_dropShadow_485_10"/>
<feBlend mode="normal" in="SourceGraphic" in2="effect1_dropShadow_485_10" result="shape"/>
</filter>
<filter id="filter1_d_485_10" x="31.5449" y="16.9102" width="60.8965" height="18.2266" filterUnits="userSpaceOnUse" color-interpolation-filters="sRGB">
<feFlood flood-opacity="0" result="BackgroundImageFix"/>
<feColorMatrix in="SourceAlpha" type="matrix" values="0 0 0 0 0 0 0 0 0 0 0 0 0 0 0 0 0 0 127 0" result="hardAlpha"/>
<feOffset dx="2" dy="4"/>
<feGaussianBlur stdDeviation="2"/>
<feColorMatrix type="matrix" values="0 0 0 0 0 0 0 0 0 0 0 0 0 0 0 0 0 0 0.24 0"/>
<feBlend mode="normal" in2="BackgroundImageFix" result="effect1_dropShadow_485_10"/>
<feBlend mode="normal" in="SourceGraphic" in2="effect1_dropShadow_485_10" result="shape"/>
</filter>
</defs>
</svg>
