<svg width="112" height="26" viewBox="0 0 112 26" fill="none" xmlns="http://www.w3.org/2000/svg">
<path d="M0 1.8L3 0H109L112 1.8V21.9L109 24H3L0 21.9V1.8Z" fill="#030D1C"/>
<g filter="url(#filter0_d_333_2536)">
<path d="M34.5361 7.18976V17.1429H33.2373V7.18976H34.5361ZM37.7354 7.18976V8.26984H30.0449V7.18976H37.7354ZM46.6836 11.8519V12.4808C46.6836 13.2282 46.5902 13.8981 46.4033 14.4905C46.2165 15.083 45.9476 15.5866 45.5967 16.0013C45.2458 16.416 44.8242 16.7327 44.332 16.9515C43.8444 17.1702 43.2975 17.2796 42.6914 17.2796C42.1035 17.2796 41.5635 17.1702 41.0713 16.9515C40.5837 16.7327 40.1598 16.416 39.7998 16.0013C39.4443 15.5866 39.1686 15.083 38.9727 14.4905C38.7767 13.8981 38.6787 13.2282 38.6787 12.4808V11.8519C38.6787 11.1045 38.7744 10.4368 38.9658 9.84894C39.1618 9.25649 39.4375 8.75291 39.793 8.3382C40.1484 7.91892 40.57 7.59991 41.0576 7.38116C41.5498 7.16241 42.0898 7.05304 42.6777 7.05304C43.2839 7.05304 43.8307 7.16241 44.3184 7.38116C44.8105 7.59991 45.2321 7.91892 45.583 8.3382C45.9385 8.75291 46.2096 9.25649 46.3965 9.84894C46.5879 10.4368 46.6836 11.1045 46.6836 11.8519ZM45.3779 12.4808V11.8382C45.3779 11.2457 45.3164 10.7217 45.1934 10.2659C45.0749 9.8102 44.8994 9.42739 44.667 9.11749C44.4346 8.8076 44.1497 8.5729 43.8125 8.41339C43.4798 8.25389 43.1016 8.17413 42.6777 8.17413C42.2676 8.17413 41.8962 8.25389 41.5635 8.41339C41.2354 8.5729 40.9528 8.8076 40.7158 9.11749C40.4834 9.42739 40.3034 9.8102 40.1758 10.2659C40.0482 10.7217 39.9844 11.2457 39.9844 11.8382V12.4808C39.9844 13.0778 40.0482 13.6064 40.1758 14.0667C40.3034 14.5224 40.4857 14.9075 40.7227 15.222C40.9642 15.5319 41.249 15.7666 41.5771 15.9261C41.9098 16.0856 42.2812 16.1653 42.6914 16.1653C43.1198 16.1653 43.5003 16.0856 43.833 15.9261C44.1657 15.7666 44.446 15.5319 44.6738 15.222C44.9062 14.9075 45.0817 14.5224 45.2002 14.0667C45.3187 13.6064 45.3779 13.0778 45.3779 12.4808ZM53.4512 7.18976V17.1429H52.1318V7.18976H53.4512ZM57.6211 11.6673V12.7474H53.1641V11.6673H57.6211ZM58.2979 7.18976V8.26984H53.1641V7.18976H58.2979ZM65.5645 7.18976H66.877V13.9232C66.877 14.6706 66.7106 15.2926 66.3779 15.7894C66.0452 16.2861 65.6032 16.6598 65.0518 16.9105C64.5049 17.1566 63.9102 17.2796 63.2676 17.2796C62.5931 17.2796 61.9824 17.1566 61.4355 16.9105C60.8932 16.6598 60.4626 16.2861 60.1436 15.7894C59.8291 15.2926 59.6719 14.6706 59.6719 13.9232V7.18976H60.9775V13.9232C60.9775 14.4427 61.0732 14.8711 61.2646 15.2083C61.4561 15.5456 61.7227 15.7962 62.0645 15.9603C62.4108 16.1243 62.8118 16.2064 63.2676 16.2064C63.7279 16.2064 64.1289 16.1243 64.4707 15.9603C64.8171 15.7962 65.0859 15.5456 65.2773 15.2083C65.4688 14.8711 65.5645 14.4427 65.5645 13.9232V7.18976ZM75.2715 16.0696V17.1429H70.001V16.0696H75.2715ZM70.2676 7.18976V17.1429H68.9482V7.18976H70.2676ZM74.5742 11.4691V12.5423H70.001V11.4691H74.5742ZM75.2031 7.18976V8.26984H70.001V7.18976H75.2031ZM82.9414 16.0696V17.1429H77.9648V16.0696H82.9414ZM78.2246 7.18976V17.1429H76.9053V7.18976H78.2246Z" fill="#FBFFFF" fill-opacity="0.16"/>
</g>
<defs>
<filter id="filter0_d_333_2536" x="28.0449" y="7.05304" width="60.8965" height="18.2266" filterUnits="userSpaceOnUse" color-interpolation-filters="sRGB">
<feFlood flood-opacity="0" result="BackgroundImageFix"/>
<feColorMatrix in="SourceAlpha" type="matrix" values="0 0 0 0 0 0 0 0 0 0 0 0 0 0 0 0 0 0 127 0" result="hardAlpha"/>
<feOffset dx="2" dy="4"/>
<feGaussianBlur stdDeviation="2"/>
<feColorMatrix type="matrix" values="0 0 0 0 0 0 0 0 0 0 0 0 0 0 0 0 0 0 0.24 0"/>
<feBlend mode="normal" in2="BackgroundImageFix" result="effect1_dropShadow_333_2536"/>
<feBlend mode="normal" in="SourceGraphic" in2="effect1_dropShadow_333_2536" result="shape"/>
</filter>
</defs>
</svg>
