<svg width="132" height="60" viewBox="0 0 132 60" fill="none" xmlns="http://www.w3.org/2000/svg">
<path d="M38 24.5L36 27L46 39L56 27L54 24.5" stroke="#40E9F1" stroke-width="2" stroke-linecap="round" stroke-linejoin="round"/>
<g filter="url(#filter0_d_1_254)">
<path d="M40 22H52L56 27L46 39L36 27L40 22Z" stroke="#40E9F1" stroke-width="2" stroke-linecap="round" stroke-linejoin="round"/>
<path d="M36 27H56" stroke="#40E9F1" stroke-width="2" stroke-linecap="round" stroke-linejoin="round"/>
<path d="M46 39L42 27" stroke="#40E9F1" stroke-width="2" stroke-linecap="round" stroke-linejoin="round"/>
<path d="M46 39L50 27" stroke="#40E9F1" stroke-width="2" stroke-linecap="round" stroke-linejoin="round"/>
</g>
<g filter="url(#filter1_d_1_254)">
<path d="M10.5 46.315V13.2071L13.2071 10.5H118.793L121.5 13.2071V46.315L118.77 49.5H13.23L10.5 46.315Z" stroke="#0B52BD" stroke-opacity="0.4"/>
</g>
<g filter="url(#filter2_d_1_254)">
<path d="M83.1709 24.9922V35H81.9062V26.5713L79.3564 27.501V26.3594L82.9727 24.9922H83.1709ZM93.1377 29.2305V30.748C93.1377 31.5638 93.0648 32.252 92.9189 32.8125C92.7731 33.373 92.5635 33.8242 92.29 34.166C92.0166 34.5078 91.6862 34.7562 91.2988 34.9111C90.916 35.0615 90.4831 35.1367 90 35.1367C89.6172 35.1367 89.264 35.0889 88.9404 34.9932C88.6169 34.8975 88.3252 34.7448 88.0654 34.5352C87.8102 34.321 87.5915 34.043 87.4092 33.7012C87.2269 33.3594 87.0879 32.9447 86.9922 32.457C86.8965 31.9694 86.8486 31.3997 86.8486 30.748V29.2305C86.8486 28.4147 86.9215 27.7311 87.0674 27.1797C87.2178 26.6283 87.4297 26.1862 87.7031 25.8535C87.9766 25.5163 88.3047 25.2747 88.6875 25.1289C89.0749 24.9831 89.5078 24.9102 89.9863 24.9102C90.3737 24.9102 90.7292 24.958 91.0527 25.0537C91.3809 25.1449 91.6725 25.293 91.9277 25.498C92.1829 25.6986 92.3994 25.9674 92.5771 26.3047C92.7594 26.6374 92.8984 27.0452 92.9941 27.5283C93.0898 28.0114 93.1377 28.5788 93.1377 29.2305ZM91.8662 30.9531V29.0186C91.8662 28.5719 91.8389 28.18 91.7842 27.8428C91.734 27.501 91.6589 27.2093 91.5586 26.9678C91.4583 26.7262 91.3307 26.5303 91.1758 26.3799C91.0254 26.2295 90.8499 26.1201 90.6494 26.0518C90.4535 25.9788 90.2324 25.9424 89.9863 25.9424C89.6855 25.9424 89.4189 25.9993 89.1865 26.1133C88.9541 26.2227 88.7581 26.3981 88.5986 26.6396C88.4437 26.8812 88.3252 27.1979 88.2432 27.5898C88.1611 27.9818 88.1201 28.458 88.1201 29.0186V30.9531C88.1201 31.3997 88.1452 31.7939 88.1953 32.1357C88.25 32.4775 88.3298 32.7738 88.4346 33.0244C88.5394 33.2705 88.667 33.4733 88.8174 33.6328C88.9678 33.7923 89.141 33.9108 89.3369 33.9883C89.5374 34.0612 89.7585 34.0977 90 34.0977C90.3099 34.0977 90.5811 34.0384 90.8135 33.9199C91.0459 33.8014 91.2396 33.6169 91.3945 33.3662C91.554 33.111 91.6725 32.7852 91.75 32.3887C91.8275 31.9876 91.8662 31.5091 91.8662 30.9531ZM101.013 29.2305V30.748C101.013 31.5638 100.94 32.252 100.794 32.8125C100.648 33.373 100.438 33.8242 100.165 34.166C99.8916 34.5078 99.5612 34.7562 99.1738 34.9111C98.791 35.0615 98.3581 35.1367 97.875 35.1367C97.4922 35.1367 97.139 35.0889 96.8154 34.9932C96.4919 34.8975 96.2002 34.7448 95.9404 34.5352C95.6852 34.321 95.4665 34.043 95.2842 33.7012C95.1019 33.3594 94.9629 32.9447 94.8672 32.457C94.7715 31.9694 94.7236 31.3997 94.7236 30.748V29.2305C94.7236 28.4147 94.7965 27.7311 94.9424 27.1797C95.0928 26.6283 95.3047 26.1862 95.5781 25.8535C95.8516 25.5163 96.1797 25.2747 96.5625 25.1289C96.9499 24.9831 97.3828 24.9102 97.8613 24.9102C98.2487 24.9102 98.6042 24.958 98.9277 25.0537C99.2559 25.1449 99.5475 25.293 99.8027 25.498C100.058 25.6986 100.274 25.9674 100.452 26.3047C100.634 26.6374 100.773 27.0452 100.869 27.5283C100.965 28.0114 101.013 28.5788 101.013 29.2305ZM99.7412 30.9531V29.0186C99.7412 28.5719 99.7139 28.18 99.6592 27.8428C99.609 27.501 99.5339 27.2093 99.4336 26.9678C99.3333 26.7262 99.2057 26.5303 99.0508 26.3799C98.9004 26.2295 98.7249 26.1201 98.5244 26.0518C98.3285 25.9788 98.1074 25.9424 97.8613 25.9424C97.5605 25.9424 97.2939 25.9993 97.0615 26.1133C96.8291 26.2227 96.6331 26.3981 96.4736 26.6396C96.3187 26.8812 96.2002 27.1979 96.1182 27.5898C96.0361 27.9818 95.9951 28.458 95.9951 29.0186V30.9531C95.9951 31.3997 96.0202 31.7939 96.0703 32.1357C96.125 32.4775 96.2048 32.7738 96.3096 33.0244C96.4144 33.2705 96.542 33.4733 96.6924 33.6328C96.8428 33.7923 97.016 33.9108 97.2119 33.9883C97.4124 34.0612 97.6335 34.0977 97.875 34.0977C98.1849 34.0977 98.4561 34.0384 98.6885 33.9199C98.9209 33.8014 99.1146 33.6169 99.2695 33.3662C99.429 33.111 99.5475 32.7852 99.625 32.3887C99.7025 31.9876 99.7412 31.5091 99.7412 30.9531Z" fill="#40E9F1"/>
</g>
<defs>
<filter id="filter0_d_1_254" x="30" y="18" width="32" height="32" filterUnits="userSpaceOnUse" color-interpolation-filters="sRGB">
<feFlood flood-opacity="0" result="BackgroundImageFix"/>
<feColorMatrix in="SourceAlpha" type="matrix" values="0 0 0 0 0 0 0 0 0 0 0 0 0 0 0 0 0 0 127 0" result="hardAlpha"/>
<feOffset dy="4"/>
<feGaussianBlur stdDeviation="2"/>
<feColorMatrix type="matrix" values="0 0 0 0 0 0 0 0 0 0 0 0 0 0 0 0 0 0 0.24 0"/>
<feBlend mode="normal" in2="BackgroundImageFix" result="effect1_dropShadow_1_254"/>
<feBlend mode="normal" in="SourceGraphic" in2="effect1_dropShadow_1_254" result="shape"/>
</filter>
<filter id="filter1_d_1_254" x="0" y="0" width="132" height="60" filterUnits="userSpaceOnUse" color-interpolation-filters="sRGB">
<feFlood flood-opacity="0" result="BackgroundImageFix"/>
<feColorMatrix in="SourceAlpha" type="matrix" values="0 0 0 0 0 0 0 0 0 0 0 0 0 0 0 0 0 0 127 0" result="hardAlpha"/>
<feOffset/>
<feGaussianBlur stdDeviation="5"/>
<feColorMatrix type="matrix" values="0 0 0 0 0.0431373 0 0 0 0 0.321569 0 0 0 0 0.741176 0 0 0 0.5 0"/>
<feBlend mode="normal" in2="BackgroundImageFix" result="effect1_dropShadow_1_254"/>
<feBlend mode="normal" in="SourceGraphic" in2="effect1_dropShadow_1_254" result="shape"/>
</filter>
<filter id="filter2_d_1_254" x="77.3564" y="24.9102" width="29.6562" height="18.2266" filterUnits="userSpaceOnUse" color-interpolation-filters="sRGB">
<feFlood flood-opacity="0" result="BackgroundImageFix"/>
<feColorMatrix in="SourceAlpha" type="matrix" values="0 0 0 0 0 0 0 0 0 0 0 0 0 0 0 0 0 0 127 0" result="hardAlpha"/>
<feOffset dx="2" dy="4"/>
<feGaussianBlur stdDeviation="2"/>
<feColorMatrix type="matrix" values="0 0 0 0 0 0 0 0 0 0 0 0 0 0 0 0 0 0 0.24 0"/>
<feBlend mode="normal" in2="BackgroundImageFix" result="effect1_dropShadow_1_254"/>
<feBlend mode="normal" in="SourceGraphic" in2="effect1_dropShadow_1_254" result="shape"/>
</filter>
</defs>
</svg>
