<svg width="132" height="60" viewBox="0 0 132 60" fill="none" xmlns="http://www.w3.org/2000/svg">
<g filter="url(#filter0_d_1_228)">
<path d="M10 13L13 10H119L122 13V46.5L119 50H13L10 46.5V13Z" fill="#0E2E5E"/>
<path d="M10.5 46.315V13.2071L13.2071 10.5H118.793L121.5 13.2071V46.315L118.77 49.5H13.23L10.5 46.315Z" stroke="#0B52BD"/>
</g>
<line x1="66" y1="10" x2="66" y2="50" stroke="url(#paint0_linear_1_228)" stroke-opacity="0.4" stroke-width="112" stroke-dasharray="1 1"/>
<g filter="url(#filter1_d_1_228)">
<path d="M40 22H52L56 27L46 39L36 27L40 22Z" stroke="#FBFFFF" stroke-width="2" stroke-linecap="round" stroke-linejoin="round"/>
<path d="M36 27H56" stroke="#FBFFFF" stroke-width="2" stroke-linecap="round" stroke-linejoin="round"/>
<path d="M46 39L42 27" stroke="#FBFFFF" stroke-width="2" stroke-linecap="round" stroke-linejoin="round"/>
<path d="M46 39L50 27" stroke="#FBFFFF" stroke-width="2" stroke-linecap="round" stroke-linejoin="round"/>
<path d="M38 24.5L36 27L46 39L56 27L54 24.5" stroke="#FBFFFF" stroke-width="2" stroke-linecap="round" stroke-linejoin="round"/>
</g>
<g filter="url(#filter2_d_1_228)">
<path d="M85.5361 33.9609V35H79.0215V34.0908L82.2822 30.4609C82.6833 30.0143 82.9932 29.6361 83.2119 29.3262C83.4352 29.0117 83.5902 28.7314 83.6768 28.4854C83.7679 28.2347 83.8135 27.9795 83.8135 27.7197C83.8135 27.3916 83.7451 27.0954 83.6084 26.8311C83.4762 26.5622 83.2803 26.348 83.0205 26.1885C82.7607 26.029 82.4463 25.9492 82.0771 25.9492C81.6351 25.9492 81.266 26.0358 80.9697 26.209C80.6781 26.3776 80.4593 26.6146 80.3135 26.9199C80.1676 27.2253 80.0947 27.5762 80.0947 27.9727H78.8301C78.8301 27.4121 78.9531 26.8994 79.1992 26.4346C79.4453 25.9697 79.8099 25.6006 80.293 25.3271C80.776 25.0492 81.3708 24.9102 82.0771 24.9102C82.7061 24.9102 83.2438 25.0218 83.6904 25.2451C84.137 25.4639 84.4788 25.7738 84.7158 26.1748C84.9574 26.5713 85.0781 27.0361 85.0781 27.5693C85.0781 27.861 85.028 28.1572 84.9277 28.458C84.832 28.7542 84.6976 29.0505 84.5244 29.3467C84.3558 29.6429 84.1576 29.9346 83.9297 30.2217C83.7064 30.5088 83.4671 30.7913 83.2119 31.0693L80.5459 33.9609H85.5361ZM88.4893 30.2627L87.4775 30.0029L87.9766 25.0469H93.083V26.2158H89.0498L88.749 28.9229C88.9313 28.818 89.1615 28.7201 89.4395 28.6289C89.722 28.5378 90.0456 28.4922 90.4102 28.4922C90.8704 28.4922 91.2829 28.5719 91.6475 28.7314C92.012 28.8864 92.3219 29.1097 92.5771 29.4014C92.8369 29.693 93.0352 30.0439 93.1719 30.4541C93.3086 30.8643 93.377 31.3223 93.377 31.8281C93.377 32.3066 93.3109 32.7464 93.1787 33.1475C93.0511 33.5485 92.8574 33.8994 92.5977 34.2002C92.3379 34.4964 92.0098 34.7266 91.6133 34.8906C91.2214 35.0547 90.7588 35.1367 90.2256 35.1367C89.8245 35.1367 89.444 35.082 89.084 34.9727C88.7285 34.8587 88.4095 34.6878 88.127 34.46C87.849 34.2275 87.6211 33.9404 87.4434 33.5986C87.2702 33.2523 87.1608 32.8467 87.1152 32.3818H88.3184C88.373 32.7555 88.4824 33.07 88.6465 33.3252C88.8105 33.5804 89.0247 33.7741 89.2891 33.9062C89.5579 34.0339 89.8701 34.0977 90.2256 34.0977C90.5264 34.0977 90.793 34.0452 91.0254 33.9404C91.2578 33.8356 91.4538 33.6852 91.6133 33.4893C91.7728 33.2933 91.8936 33.0563 91.9756 32.7783C92.0622 32.5003 92.1055 32.1882 92.1055 31.8418C92.1055 31.5273 92.0622 31.2357 91.9756 30.9668C91.889 30.6979 91.7591 30.4632 91.5859 30.2627C91.4173 30.0622 91.21 29.9072 90.9639 29.7979C90.7178 29.6839 90.4352 29.627 90.1162 29.627C89.6924 29.627 89.3711 29.6839 89.1523 29.7979C88.9382 29.9118 88.7171 30.0667 88.4893 30.2627ZM101.013 29.2305V30.748C101.013 31.5638 100.94 32.252 100.794 32.8125C100.648 33.373 100.438 33.8242 100.165 34.166C99.8916 34.5078 99.5612 34.7562 99.1738 34.9111C98.791 35.0615 98.3581 35.1367 97.875 35.1367C97.4922 35.1367 97.139 35.0889 96.8154 34.9932C96.4919 34.8975 96.2002 34.7448 95.9404 34.5352C95.6852 34.321 95.4665 34.043 95.2842 33.7012C95.1019 33.3594 94.9629 32.9447 94.8672 32.457C94.7715 31.9694 94.7236 31.3997 94.7236 30.748V29.2305C94.7236 28.4147 94.7965 27.7311 94.9424 27.1797C95.0928 26.6283 95.3047 26.1862 95.5781 25.8535C95.8516 25.5163 96.1797 25.2747 96.5625 25.1289C96.9499 24.9831 97.3828 24.9102 97.8613 24.9102C98.2487 24.9102 98.6042 24.958 98.9277 25.0537C99.2559 25.1449 99.5475 25.293 99.8027 25.498C100.058 25.6986 100.274 25.9674 100.452 26.3047C100.634 26.6374 100.773 27.0452 100.869 27.5283C100.965 28.0114 101.013 28.5788 101.013 29.2305ZM99.7412 30.9531V29.0186C99.7412 28.5719 99.7139 28.18 99.6592 27.8428C99.609 27.501 99.5339 27.2093 99.4336 26.9678C99.3333 26.7262 99.2057 26.5303 99.0508 26.3799C98.9004 26.2295 98.7249 26.1201 98.5244 26.0518C98.3285 25.9788 98.1074 25.9424 97.8613 25.9424C97.5605 25.9424 97.2939 25.9993 97.0615 26.1133C96.8291 26.2227 96.6331 26.3981 96.4736 26.6396C96.3187 26.8812 96.2002 27.1979 96.1182 27.5898C96.0361 27.9818 95.9951 28.458 95.9951 29.0186V30.9531C95.9951 31.3997 96.0202 31.7939 96.0703 32.1357C96.125 32.4775 96.2048 32.7738 96.3096 33.0244C96.4144 33.2705 96.542 33.4733 96.6924 33.6328C96.8428 33.7923 97.016 33.9108 97.2119 33.9883C97.4124 34.0612 97.6335 34.0977 97.875 34.0977C98.1849 34.0977 98.4561 34.0384 98.6885 33.9199C98.9209 33.8014 99.1146 33.6169 99.2695 33.3662C99.429 33.111 99.5475 32.7852 99.625 32.3887C99.7025 31.9876 99.7412 31.5091 99.7412 30.9531Z" fill="#FBFFFF"/>
</g>
<defs>
<filter id="filter0_d_1_228" x="0" y="0" width="132" height="60" filterUnits="userSpaceOnUse" color-interpolation-filters="sRGB">
<feFlood flood-opacity="0" result="BackgroundImageFix"/>
<feColorMatrix in="SourceAlpha" type="matrix" values="0 0 0 0 0 0 0 0 0 0 0 0 0 0 0 0 0 0 127 0" result="hardAlpha"/>
<feOffset/>
<feGaussianBlur stdDeviation="5"/>
<feColorMatrix type="matrix" values="0 0 0 0 0.0431373 0 0 0 0 0.321569 0 0 0 0 0.741176 0 0 0 0.5 0"/>
<feBlend mode="normal" in2="BackgroundImageFix" result="effect1_dropShadow_1_228"/>
<feBlend mode="normal" in="SourceGraphic" in2="effect1_dropShadow_1_228" result="shape"/>
</filter>
<filter id="filter1_d_1_228" x="30" y="18" width="32" height="32" filterUnits="userSpaceOnUse" color-interpolation-filters="sRGB">
<feFlood flood-opacity="0" result="BackgroundImageFix"/>
<feColorMatrix in="SourceAlpha" type="matrix" values="0 0 0 0 0 0 0 0 0 0 0 0 0 0 0 0 0 0 127 0" result="hardAlpha"/>
<feOffset dy="4"/>
<feGaussianBlur stdDeviation="2"/>
<feColorMatrix type="matrix" values="0 0 0 0 0 0 0 0 0 0 0 0 0 0 0 0 0 0 0.24 0"/>
<feBlend mode="normal" in2="BackgroundImageFix" result="effect1_dropShadow_1_228"/>
<feBlend mode="normal" in="SourceGraphic" in2="effect1_dropShadow_1_228" result="shape"/>
</filter>
<filter id="filter2_d_1_228" x="76.8301" y="24.9102" width="30.1826" height="18.2266" filterUnits="userSpaceOnUse" color-interpolation-filters="sRGB">
<feFlood flood-opacity="0" result="BackgroundImageFix"/>
<feColorMatrix in="SourceAlpha" type="matrix" values="0 0 0 0 0 0 0 0 0 0 0 0 0 0 0 0 0 0 127 0" result="hardAlpha"/>
<feOffset dx="2" dy="4"/>
<feGaussianBlur stdDeviation="2"/>
<feColorMatrix type="matrix" values="0 0 0 0 0 0 0 0 0 0 0 0 0 0 0 0 0 0 0.24 0"/>
<feBlend mode="normal" in2="BackgroundImageFix" result="effect1_dropShadow_1_228"/>
<feBlend mode="normal" in="SourceGraphic" in2="effect1_dropShadow_1_228" result="shape"/>
</filter>
<linearGradient id="paint0_linear_1_228" x1="10" y1="25.9993" x2="122" y2="25.4998" gradientUnits="userSpaceOnUse">
<stop stop-color="#0B52BD" stop-opacity="0"/>
<stop offset="0.518362" stop-color="#0B52BD"/>
<stop offset="1" stop-color="#0B52BD" stop-opacity="0"/>
</linearGradient>
</defs>
</svg>
