<svg width="132" height="60" viewBox="0 0 132 60" fill="none" xmlns="http://www.w3.org/2000/svg">
<g filter="url(#filter0_d_1_228)">
<path d="M10 13L13 10H119L122 13V46.5L119 50H13L10 46.5V13Z" fill="#0E2E5E"/>
<path d="M10.5 46.315V13.2071L13.2071 10.5H118.793L121.5 13.2071V46.315L118.77 49.5H13.23L10.5 46.315Z" stroke="#0B52BD"/>
</g>
<line x1="66" y1="10" x2="66" y2="50" stroke="url(#paint0_linear_1_228)" stroke-opacity="0.4" stroke-width="112" stroke-dasharray="1 1"/>
<g filter="url(#filter1_d_1_228)">
<path d="M40 22H52L56 27L46 39L36 27L40 22Z" stroke="#FBFFFF" stroke-width="2" stroke-linecap="round" stroke-linejoin="round"/>
<path d="M36 27H56" stroke="#FBFFFF" stroke-width="2" stroke-linecap="round" stroke-linejoin="round"/>
<path d="M46 39L42 27" stroke="#FBFFFF" stroke-width="2" stroke-linecap="round" stroke-linejoin="round"/>
<path d="M46 39L50 27" stroke="#FBFFFF" stroke-width="2" stroke-linecap="round" stroke-linejoin="round"/>
<path d="M38 24.5L36 27L46 39L56 27L54 24.5" stroke="#FBFFFF" stroke-width="2" stroke-linecap="round" stroke-linejoin="round"/>
</g>
<g filter="url(#filter2_d_1_228)">
<path d="M83.8682 25.0332H83.9775V26.1064H83.8682C83.1982 26.1064 82.6377 26.2158 82.1865 26.4346C81.7354 26.6488 81.3776 26.9382 81.1133 27.3027C80.849 27.6628 80.6576 28.0684 80.5391 28.5195C80.4251 28.9707 80.3682 29.4287 80.3682 29.8936V31.3564C80.3682 31.7985 80.4206 32.1904 80.5254 32.5322C80.6302 32.8695 80.7738 33.1543 80.9561 33.3867C81.1383 33.6191 81.3434 33.7946 81.5713 33.9131C81.8037 34.0316 82.0452 34.0908 82.2959 34.0908C82.5876 34.0908 82.8473 34.0361 83.0752 33.9268C83.3031 33.8128 83.4945 33.6556 83.6494 33.4551C83.8089 33.25 83.9297 33.0085 84.0117 32.7305C84.0938 32.4525 84.1348 32.1471 84.1348 31.8145C84.1348 31.5182 84.0983 31.2334 84.0254 30.96C83.9525 30.682 83.8408 30.4359 83.6904 30.2217C83.54 30.0029 83.3509 29.832 83.123 29.709C82.8997 29.5814 82.6331 29.5176 82.3232 29.5176C81.9723 29.5176 81.6442 29.6042 81.3389 29.7773C81.0381 29.946 80.7897 30.1693 80.5938 30.4473C80.4023 30.7207 80.293 31.0192 80.2656 31.3428L79.5957 31.3359C79.6595 30.8255 79.778 30.3903 79.9512 30.0303C80.1289 29.6657 80.3477 29.3695 80.6074 29.1416C80.8717 28.9092 81.1657 28.7406 81.4893 28.6357C81.8174 28.5264 82.1637 28.4717 82.5283 28.4717C83.0251 28.4717 83.4535 28.5651 83.8135 28.752C84.1735 28.9388 84.4697 29.1895 84.7021 29.5039C84.9346 29.8138 85.1055 30.1647 85.2148 30.5566C85.3288 30.944 85.3857 31.3428 85.3857 31.7529C85.3857 32.2223 85.3197 32.6621 85.1875 33.0723C85.0553 33.4824 84.8571 33.8424 84.5928 34.1523C84.333 34.4622 84.0117 34.7038 83.6289 34.877C83.2461 35.0501 82.8018 35.1367 82.2959 35.1367C81.7581 35.1367 81.2887 35.0273 80.8877 34.8086C80.4867 34.5853 80.154 34.2891 79.8896 33.9199C79.6253 33.5508 79.4271 33.1406 79.2949 32.6895C79.1628 32.2383 79.0967 31.7803 79.0967 31.3154V30.7207C79.0967 30.0189 79.1673 29.3307 79.3086 28.6562C79.4499 27.9818 79.6937 27.3711 80.04 26.8242C80.391 26.2773 80.8763 25.8421 81.4961 25.5186C82.1159 25.195 82.9066 25.0332 83.8682 25.0332ZM93.1377 29.2305V30.748C93.1377 31.5638 93.0648 32.252 92.9189 32.8125C92.7731 33.373 92.5635 33.8242 92.29 34.166C92.0166 34.5078 91.6862 34.7562 91.2988 34.9111C90.916 35.0615 90.4831 35.1367 90 35.1367C89.6172 35.1367 89.264 35.0889 88.9404 34.9932C88.6169 34.8975 88.3252 34.7448 88.0654 34.5352C87.8102 34.321 87.5915 34.043 87.4092 33.7012C87.2269 33.3594 87.0879 32.9447 86.9922 32.457C86.8965 31.9694 86.8486 31.3997 86.8486 30.748V29.2305C86.8486 28.4147 86.9215 27.7311 87.0674 27.1797C87.2178 26.6283 87.4297 26.1862 87.7031 25.8535C87.9766 25.5163 88.3047 25.2747 88.6875 25.1289C89.0749 24.9831 89.5078 24.9102 89.9863 24.9102C90.3737 24.9102 90.7292 24.958 91.0527 25.0537C91.3809 25.1449 91.6725 25.293 91.9277 25.498C92.1829 25.6986 92.3994 25.9674 92.5771 26.3047C92.7594 26.6374 92.8984 27.0452 92.9941 27.5283C93.0898 28.0114 93.1377 28.5788 93.1377 29.2305ZM91.8662 30.9531V29.0186C91.8662 28.5719 91.8389 28.18 91.7842 27.8428C91.734 27.501 91.6589 27.2093 91.5586 26.9678C91.4583 26.7262 91.3307 26.5303 91.1758 26.3799C91.0254 26.2295 90.8499 26.1201 90.6494 26.0518C90.4535 25.9788 90.2324 25.9424 89.9863 25.9424C89.6855 25.9424 89.4189 25.9993 89.1865 26.1133C88.9541 26.2227 88.7581 26.3981 88.5986 26.6396C88.4437 26.8812 88.3252 27.1979 88.2432 27.5898C88.1611 27.9818 88.1201 28.458 88.1201 29.0186V30.9531C88.1201 31.3997 88.1452 31.7939 88.1953 32.1357C88.25 32.4775 88.3298 32.7738 88.4346 33.0244C88.5394 33.2705 88.667 33.4733 88.8174 33.6328C88.9678 33.7923 89.141 33.9108 89.3369 33.9883C89.5374 34.0612 89.7585 34.0977 90 34.0977C90.3099 34.0977 90.5811 34.0384 90.8135 33.9199C91.0459 33.8014 91.2396 33.6169 91.3945 33.3662C91.554 33.111 91.6725 32.7852 91.75 32.3887C91.8275 31.9876 91.8662 31.5091 91.8662 30.9531ZM101.013 29.2305V30.748C101.013 31.5638 100.94 32.252 100.794 32.8125C100.648 33.373 100.438 33.8242 100.165 34.166C99.8916 34.5078 99.5612 34.7562 99.1738 34.9111C98.791 35.0615 98.3581 35.1367 97.875 35.1367C97.4922 35.1367 97.139 35.0889 96.8154 34.9932C96.4919 34.8975 96.2002 34.7448 95.9404 34.5352C95.6852 34.321 95.4665 34.043 95.2842 33.7012C95.1019 33.3594 94.9629 32.9447 94.8672 32.457C94.7715 31.9694 94.7236 31.3997 94.7236 30.748V29.2305C94.7236 28.4147 94.7965 27.7311 94.9424 27.1797C95.0928 26.6283 95.3047 26.1862 95.5781 25.8535C95.8516 25.5163 96.1797 25.2747 96.5625 25.1289C96.9499 24.9831 97.3828 24.9102 97.8613 24.9102C98.2487 24.9102 98.6042 24.958 98.9277 25.0537C99.2559 25.1449 99.5475 25.293 99.8027 25.498C100.058 25.6986 100.274 25.9674 100.452 26.3047C100.634 26.6374 100.773 27.0452 100.869 27.5283C100.965 28.0114 101.013 28.5788 101.013 29.2305ZM99.7412 30.9531V29.0186C99.7412 28.5719 99.7139 28.18 99.6592 27.8428C99.609 27.501 99.5339 27.2093 99.4336 26.9678C99.3333 26.7262 99.2057 26.5303 99.0508 26.3799C98.9004 26.2295 98.7249 26.1201 98.5244 26.0518C98.3285 25.9788 98.1074 25.9424 97.8613 25.9424C97.5605 25.9424 97.2939 25.9993 97.0615 26.1133C96.8291 26.2227 96.6331 26.3981 96.4736 26.6396C96.3187 26.8812 96.2002 27.1979 96.1182 27.5898C96.0361 27.9818 95.9951 28.458 95.9951 29.0186V30.9531C95.9951 31.3997 96.0202 31.7939 96.0703 32.1357C96.125 32.4775 96.2048 32.7738 96.3096 33.0244C96.4144 33.2705 96.542 33.4733 96.6924 33.6328C96.8428 33.7923 97.016 33.9108 97.2119 33.9883C97.4124 34.0612 97.6335 34.0977 97.875 34.0977C98.1849 34.0977 98.4561 34.0384 98.6885 33.9199C98.9209 33.8014 99.1146 33.6169 99.2695 33.3662C99.429 33.111 99.5475 32.7852 99.625 32.3887C99.7025 31.9876 99.7412 31.5091 99.7412 30.9531Z" fill="#FBFFFF"/>
</g>
<defs>
<filter id="filter0_d_1_228" x="0" y="0" width="132" height="60" filterUnits="userSpaceOnUse" color-interpolation-filters="sRGB">
<feFlood flood-opacity="0" result="BackgroundImageFix"/>
<feColorMatrix in="SourceAlpha" type="matrix" values="0 0 0 0 0 0 0 0 0 0 0 0 0 0 0 0 0 0 127 0" result="hardAlpha"/>
<feOffset/>
<feGaussianBlur stdDeviation="5"/>
<feColorMatrix type="matrix" values="0 0 0 0 0.0431373 0 0 0 0 0.321569 0 0 0 0 0.741176 0 0 0 0.5 0"/>
<feBlend mode="normal" in2="BackgroundImageFix" result="effect1_dropShadow_1_228"/>
<feBlend mode="normal" in="SourceGraphic" in2="effect1_dropShadow_1_228" result="shape"/>
</filter>
<filter id="filter1_d_1_228" x="30" y="18" width="32" height="32" filterUnits="userSpaceOnUse" color-interpolation-filters="sRGB">
<feFlood flood-opacity="0" result="BackgroundImageFix"/>
<feColorMatrix in="SourceAlpha" type="matrix" values="0 0 0 0 0 0 0 0 0 0 0 0 0 0 0 0 0 0 127 0" result="hardAlpha"/>
<feOffset dy="4"/>
<feGaussianBlur stdDeviation="2"/>
<feColorMatrix type="matrix" values="0 0 0 0 0 0 0 0 0 0 0 0 0 0 0 0 0 0 0.24 0"/>
<feBlend mode="normal" in2="BackgroundImageFix" result="effect1_dropShadow_1_228"/>
<feBlend mode="normal" in="SourceGraphic" in2="effect1_dropShadow_1_228" result="shape"/>
</filter>
<filter id="filter2_d_1_228" x="77.0967" y="24.9102" width="29.916" height="18.2266" filterUnits="userSpaceOnUse" color-interpolation-filters="sRGB">
<feFlood flood-opacity="0" result="BackgroundImageFix"/>
<feColorMatrix in="SourceAlpha" type="matrix" values="0 0 0 0 0 0 0 0 0 0 0 0 0 0 0 0 0 0 127 0" result="hardAlpha"/>
<feOffset dx="2" dy="4"/>
<feGaussianBlur stdDeviation="2"/>
<feColorMatrix type="matrix" values="0 0 0 0 0 0 0 0 0 0 0 0 0 0 0 0 0 0 0.24 0"/>
<feBlend mode="normal" in2="BackgroundImageFix" result="effect1_dropShadow_1_228"/>
<feBlend mode="normal" in="SourceGraphic" in2="effect1_dropShadow_1_228" result="shape"/>
</filter>
<linearGradient id="paint0_linear_1_228" x1="10" y1="25.9993" x2="122" y2="25.4998" gradientUnits="userSpaceOnUse">
<stop stop-color="#0B52BD" stop-opacity="0"/>
<stop offset="0.518362" stop-color="#0B52BD"/>
<stop offset="1" stop-color="#0B52BD" stop-opacity="0"/>
</linearGradient>
</defs>
</svg>
